<?xml version="1.0" encoding="UTF-8"?>
<svg id="Layer_6_xA0_Image" xmlns="http://www.w3.org/2000/svg" version="1.1" viewBox="0 0 612 792">
  <!-- Generator: Adobe Illustrator 29.2.1, SVG Export Plug-In . SVG Version: 2.1.0 Build 116)  -->
  <defs>
    <style>
      .st0 {
        fill: #3b1d11;
      }

      .st1 {
        fill: #6b675f;
      }

      .st2 {
        fill: #f8e8e3;
      }

      .st3 {
        fill: #353125;
      }

      .st4 {
        fill: #c1c0bd;
      }

      .st5 {
        fill: #1e190c;
      }

      .st6 {
        fill: #383429;
      }

      .st7 {
        fill: #e2e2e0;
      }

      .st8 {
        fill: #734327;
      }

      .st9 {
        fill: #a21f29;
      }

      .st10 {
        fill: #30200f;
      }

      .st11 {
        fill: #474338;
      }

      .st12 {
        fill: #da794d;
      }

      .st13 {
        fill: #8d8b84;
      }

      .st14 {
        fill: #935433;
      }

      .st15 {
        fill: #5e5a51;
      }

      .st16 {
        fill: #dad9d7;
      }

      .st17 {
        fill: #989590;
      }

      .st18 {
        fill: #cbcac7;
      }

      .st19 {
        fill: #c84c23;
      }

      .st20 {
        fill: #d2d0ce;
      }

      .st21 {
        fill: #423d33;
      }

      .st22 {
        fill: #3c372c;
      }

      .st23 {
        fill: #4c483e;
      }

      .st24 {
        fill: #663c23;
      }

      .st25 {
        fill: #492d18;
      }

      .st26 {
        fill: #ececeb;
      }

      .st27 {
        fill: #adaba7;
      }

      .st28 {
        fill: #565249;
      }
    </style>
  </defs>
  <path class="st19" d="M320.58,225.12c.09.15.34.3.48.48.3.92.63,1.38,1.44,1.92.29.19.66.3.96.48.5,1.61,2.6,2.22,3.36,2.88.15.13.29.32.48.48.75.61,1.3,1.72,2.88,2.4,1.7.73.58.76,1.66,1.94,2.98,3.27,8.35,6.65,11.79,9.81,18.6,17.12,49.2,60.36,55.53,84.63.85,3.27.84,6.41,2.39,9.61l48.5,245.23c-2.19,3.21.62,6.19.58,8.96-.61,37.67-16.49,72.32-48.48,93.14-1.42.92-8.31,4.38-8.5,5.38l24.75,94.14c.23,1.42.47,3.34-1.2,3.86-1.4.44-1.88-.16-3,1.54h-156.96c-.49-.8-1.82-.48-2.63-.49-13.2-.14-26.41.03-39.61,0-5.27,0-10.57.03-15.84,0-24.16-.13-49.13-1.44-73.22-.48-.93.04-1.93-.49-1.66.96h-3.84l36.49-129.34c-.18-1.07-5.71-6.26-6.95-7.48-13.49-13.17-27.68-25.83-41.54-38.62-3.35-3.09-6.06-6.92-10.32-8.88-.47-4.38-.18-8.83-.21-13.23-.05-6.97,1.39-10.42,1.89-16.79.43-5.47-.19-12.31.6-17.64,1.03-6.96,6.05-19.39,8.52-26.52,33.01-95.32,82.46-186.78,131.05-274.79l.96-1.44c1.15-.24.75-1.54.96-1.92.58-1.03,1.88-2.4,2.5-3.5.9-3.97,6.82-10.82,7.48-14.14.39-1.98-1.96-4.25-1.21-7.46.12-.53.74-.97.84-1.3,3.43-.5,4.68,3.25,6.97,5.27,6.88,6.07,14.58,7.29,23.51,8.17,6.86.68,20.32,1.22,26.76-.6,1.47-.41,3.09-1.55,4.46-2.26,2.37-3.91,3.37-9.75,5.72-13.49.54-.86.22-1.19,1.7-.93Z"/>
  <path class="st2" d="M199.14,791.52v.48h-74.88c-.27-1.45.73-.92,1.66-.96,24.09-.96,49.07.35,73.22.48Z"/>
  <path class="st12" d="M257.22,792h-42.24v-.48c13.19.02,26.41-.14,39.61,0,.81,0,2.14-.31,2.63.49Z"/>
  <path class="st4" d="M214.98,791.52v.48h-15.84v-.48c5.27.03,10.57,0,15.84,0Z"/>
  <path class="st5" d="M299.46,112.8c-.33.02-.97-.19-.96.24,0,.29.66.41.96.72-.38.02-.77-.02-1.15,0l-.29,1.92.74-.99,1.65.51c.29-1.15-.42-.91-.96-1.44.48-.03.96.03,1.44,0l-.96-.96c3.36.25,6.02,3.02,8.16,5.52,1.47,1.72.46,2.61,3.36,3.12v.96h-.96s0,.48,0,.48c.46.06,1.01-.08,1.44,0v.48h-1.44s0,.96,0,.96c.16.16,1.85-.13,2.4,0,.83.2,2.12,1.55,3.51.88l.33-.4c.9.35,1.44.49,2.4.96-.75.89-.05,1.09.46,1.68,1.08,1.22,2.3,2.38,3.38,3.6.59.67.95,1.55,1.92,1.92.07.12-.07.36,0,.48.5.85.37,1.52,1.44,2.4.29.24.03.73.96,0,.07.19.45.36.48.48.05.22.06,1.31,0,1.44-.07.16-1.26.42-.95,1.66l.95.74c-.15-.62.32-1.01.49-1.44.06-.16.59-.3.48-.96h.48c.36,1.69.33,4.18,1.44,5.28l-.96.24.96,1.2c-1.34,3.28.09,1.91.49,2.17.57.37.34.8.47,1.19-.79.11-1.35-1.19-1.45.24-.15,2.19,1.46,3.19.49,5.03l1.37.08,1.04,1.36c-.02.15,0,.32,0,.48-.04.93-.12,2.12.96,2.4.09-.71-.12-1.33-.48-1.92,1.3-.55,1.41.86,1.78.94,1.05.24,2.61.34,3.75.53l-.25,1.41-1.44-.48c-.03.31.03.64,0,.96-.09-.04-.35.11-.44-.04.18-2.82-2.55-1.27-1.96,1h2.39c.03-.31-.03-.64,0-.96.21.09.66-.06.96,0l-.48,2.88,1.91-.24-.95-2.64,1.92.96c.15,1,.51,3.08,1.44,3.36h.48c.15.91-.15.9.48,1.92.12.19.32.33.48.48-.05.27.01.65,0,.96-.06,1.55.49,4.3.96,5.76.66,2.07,1.94,4.19,4.32,4.32.49.83.3.79.48,1.44.04.15-.03,1.73.49,2.4h.94c.08-.28-.08-.86,0-.96.16-.19,2.06-1.29,2.4-.96.02,1.12-.03,2.24,0,3.36.01.48-.02.96,0,1.44h1.44c-.02.48-.66,1.69-.48,1.92h.96c0,.16,0,.32,0,.48-.05,1.1-.33,3.09-.48,4.32h-.48v-1.44s-.95,0-.95,0v.95s-1.92,0-1.92,0l.96,2.4h-1.92s0,1.44,0,1.44l1.92-.48c-.17.46,0,1.31-.48,1.92h.95c-.2-.64.35-1.05.49-1.44h.48c-.41,1-.69,2.05-1.44,2.88-.03-.12-1.06-1.91-1.44-1.92.29,1.36-2.76,5.61-1.84,6.63.19.21.84.03.87.09.17.26-.32,1.32.24,1.44.16,0,.62-1.13.72-1.44h.48c-.71,2.4-.99,4.4-1.44,6.72h-.48v-1.44c-.64-.78-1.88,5.51-1.92,6.24-.12.18-.8.34-.96.72v.47s.96.24.96.24c-2.17,2.59-4.45,5.36-8.16,5.76-.47.05-.97-.04-1.44,0,.69,1.97.23,3.02,0,4.8-.05.4-.16,1.44.24,1.44l.24-1.44h.96c-.09.57-.53,1.46-.48,1.92-.46-.05-.82-.07-.96.48-.22.88.15,2.36,0,3.36-.28,1.8-1.03,2.43-2.88,2.4l.96,1.43c-1.75.12-4.19-.17-5.76-.96-.56-.28-1.62-2.06-2.88-1.92-.19-.16-.33-.35-.48-.48l-.48-2.4-1.64.5c-.35-1.14-.89-.78-1.23-.98-.3-.18-.67-.29-.96-.48.16-1.2-1.07-1.45-1.44-1.92-.14-.18-.39-.33-.48-.48-1.34-2.14.45-1.93.44-2.13-1.26-1.84,1.9-2.6,1.08-4.98l.87-.09-.95-.71c.57-.56,1.19-1.08,1.54-1.82,2.34-5.01,3.01-10.51,6.14-15.22.79-1.2,4-2.95,0-3.36-.02-.16.03-.33,0-.48-.11-.6-.23-.58-.48-.96-1.63-2.42-4.45-4.62-6.45-7.23-.23-.29-.17-.8-.27-.93l1.44-.49c-.42-1.12-1.01-2.27-2.4-1.91v.96c-6.62-8.29-15.42-16.94-21.61-25.69-1.69-2.4-.8-2.15-3.15-4.03-.17-.14-2.03-2.72-2.6-3.41l.96-.24c-.43-.7-1.41-.81-1.92-1.2-.41-.32-.61-1-1.39-1.03l.44-1.37c-1.01.12-1.64-.5-2.41-.96-.13-.08-.24-.79-.79-.9-.39-.08-.6.42-.65.42-.16,0-.34-.03-.48,0-.36.08-1-.19-1.36.07-.31.57-.43,1.22-.56,1.85-2.21-.12-2.06,3.73-2.5,4.22-.16.18-1.22.25-1.85.78-1.05.89-1.56,2.26-2.61,3.16l-.71-.96c.56,1.5-.83,2.63-.96,3.63-.1.73.49,1.43.48,1.64,0,.13-1,2.18-1.09,2.27-.36.35-1.59.3-1.79.61-.27-2.63-1.26.17-1.64.5-2.29,1.95-5.27,1.92-5.93,2.49-.4.35-.27,1.29-.71,1.69-.3.27-1.46.43-2.16.96-2.08,1.58-2.37,3.17-5.4,2.04l-.06,1.36c-.32.32-2.92.22-3.65.69-.32.21-.68,1.32-1.09,1.79-.77.88-3,3.53-3.72,3.81-.61.24-1.83-.23-2.31.48-.45.66-.1,1.71-.21,2.43-.02.16.03.32,0,.48l-2.36.06-.09,1.29c-1.52-.19-1.72.64-2.34,1.05s-1.74-.02-1.45,1.68c.03.2.94.2,1,.54.12.71-.41,1.53-.34,2.26.11,1.14.76,2.53.78,3.51.02,1.12-.83,1.51-.93,2.35-.11.95.65,2.09-.02,3.1-.6.47-2.14-2.7-1.94-.71.32,3.19,2.09,5.31,2.9,7.91.15.47-.11,1.35,0,1.92h.96c-.08.26.09.71,0,.96-.05.14-1.1.23-.9,1.56.3.94.75,1.83,1.86,1.8.06.17.64.66.86,1.28.75,2.09,1.68,4.19,2.02,6.4h-1.92c-.15.76,1.89.36.95,1.44-.15.17-1.14-.4-.95.48l1.67.49.72-1.93c.03.31-.04.65,0,.96.13.94-.3,1.96.96,2.4.1.41.53.9.48,1.44-.98,1.05-1.38-.9-2.64-1.43l.25,2.39.72-.96c.37,1.66,1.01.37,2.16.97.4.93,1.21,1.49.96,2.4-.09.33-.71.78-.84,1.3-.75,3.2,1.6,5.48,1.21,7.46-.66,3.32-6.58,10.17-7.48,14.14-.62,1.11-1.92,2.48-2.5,3.5-.92-.18-1.13.75-1.44.96-.48.33-.82.5-1.44.96l-.46-1.11-.28.66c-2.13-1.01-1.68-.4-1.66,1.41-.14-.15-.36-.42-.48-.48-.67-.35-.5-.39-1.44-.48v-.48l-.48-.96-4.8-.48v.96s0,.48,0,.48c-.23.03-.44.24-.48.48-.72.08-2.17.59-2.88.96-1.44-.82-1.8.01-1.92,0-.16-.02-.32.02-.48,0-.87-.1-2.52-.32-3.36-.48v-1.44c.27.07.66-.06.96,0,.64.13,1.24.46,1.91.48l.47-1.65-2.86-.75.48,1.44c-.59-.38-1.85-2.22-2.23-2.34-.92-.3-1.81.31-2.62.17-.5-.09-2.3-.89-3.3-1.19-.08-.02-.1-.75-.96-.48.45.62.31,1.37.48,1.92-3.02-1.38-5.38-4.84-6.97-7.67-.58-1.03-1.98-5.06-2.22-5.23-.41-.28-1.69.02-2.33-.06v-.48c.77.14,1.31-.31,1.92-.48.76-.21,1.28.5,1.68-.97l.72.96.02-1.6-1.23-.8c-1.04,2.63-1.08.22-1.67-.47-.32-.38-1.06-.58-1.44-.96.46.06.97-.05,1.44,0,.63.07,1.29-.06,1.92,0l-.49.95h.95s1.45-2.39,1.45-2.39c-1.33,0-2.48.42-3.84.48-.64.03-1.28,0-1.92,0v-1.92c1.16.77,2.28,0,2.88,0,.25,0,.91.49,1.44.48,1.18-.03,3.25-2.28,3.36-3.36.05-.52-.36-1.01-.48-1.44-.22-.74.14-1.09-.69-1.94-1.33-1.35-5.1-1.97-6.03-4.3.45.07.97-.05,1.44,0,.6.58,4.19,2.95,4.8,2.4.13-.74-.38-1.36-.99-1.66-1.26-.64-1.36.49-1.89-1.21.2.06,1,.14.96-.24l-.96-.24c-.84-1.47-1.67-2.29-3.36-1.44-.16-.26-.63-.42-.48-.96,1.49-.65.43-1.27.48-1.44.04-.15.34-.58.48-.96.31.07.82.57,1.18.47,1.52-.4.05-3.72-1.18-.47-.44-.1-.88.05-1.41-.25-1.18-.66-2.21-3.36-2.67-.23-.58-.3-.52-1.03-.72-1.44.36-.1,2.27-1.43,2.4-1.68l-1.44-.72h1.92c.31-.81-.33-1.08-.48-1.44-.69-1.73-1.17-3.05-1.01-5.01-.04-.34-.3-.21-.43-.27-.18-.09-.68.06-.96,0,0-.96,0-1.92,0-2.88.22-.43.91-.86.96-.96v.96s.96,0,.96,0v-.96s-.96,0-.96,0c.15-.31.57-1.67.44-1.86-.65-.42-1.8-.67-2.36-1.02-.37-.23-.94-.43-.96-.48-.1-.21.22-.99-.1-1.33-.24-.26-.8-.04-.86-.11-.92-.95-.99-2.18-1.44-2.88l.48-.48c.7,1.28,2.95,3.29,3.25.63-1.28-1.95-1.9-3.83-2.77-5.91l.34-.37,2.06-.11c.08.66.41,1.26.49,1.92l.48-.24c.04-.85-.78-1.6-.97-2.15-.11-1.58.09-3.21,0-4.8h-.47c-.02.64,0,1.28,0,1.92h-.96v-.96s-.48,0-.48,0c-.01.48,0,.96,0,1.44h-.96c.12-.32-.01-1.4,0-1.92,0-.16.02-.33,0-.48-.02-.16.03-.34,0-.48-.12-.56-.18-.56-.48-.96-.42-.55-.55-.95-1.44-.96l-.48-.96c.35-.37.3-1.14.48-1.44.28-.46,1.92-.89,1.44-2.4h.48c.07.26,1.17,1.11.96,1.92-.36.12-.93-.02-1.22.45l-.18,1.91,3.79,1-2.4-3.36c.59-.2,1.54-.22,1.92-.72l-2.88-1.68c-.05-.38-.06-1.08,0-1.44,0-.05.69-.37.48-.96-1.58.33-2.03-1.09-2.4-2.4-.04-.14.03-.32,0-.48l1.44.48c.07-.46-.09-1.03,0-1.44l.96.96c-.27,1.71-.04,3.12,1.48,4.06.51.32,1.15.14,1.4.26.03.01.46.45.48.48.1.16-.29.87.3.98,2.59-.13,7.64.29,8.34-2.9-.94.06-1.95-.1-2.88,0-.04-.31.06-.67,0-.96-.44-2.18-1.88-1.42-2.4-1.92-.09-.09.33-1.39-1.44-.96l1.44-1.44,2.88-.24c-.89-.96-2.17-.28-2.88-.24-.77.04-1.7-.12-2.4,0v-1.92c.3-.05.65.02.96,0,.16,0,.32.02.48,0v.96c.77.28,1.08-.34,1.44-.48.22-.08.66.07.96,0,.08-.1-.87-1.86-.96-2.39-.15-.86.11-1.97,0-2.88l-1.44.48v-.96s-.96,0-.96,0v1.92h-1.44c-.11-1.2-.13-2.41-1.44-1.44.04-.11.44-2.1.48-2.4h1.92c.14.33.6,1.42.72,1.45l2.17-1.21-2.89-.72c-.16-.48-.46-.91-.48-1.44,1.29-.26.72-.17,1.44-1.44.41,2.24.91,1.81,2.86,2.4l.5-1.44-.48-.48c-.16.02-.32-.02-.48,0l-1.44-.48c-.17-.26-.64-.41-.96-.48-.48-.1-1.35-.01-1.92,0v-1.44c1-.06,2.4-.11,3.36,0,.08,0,1.05.36,1.44.48.27.08.87-.1.96,0,.31.34-.86,1.1,1.44.96.17,0,.35.03.48,0l1.68,1.44c1.18-1.01,1.31-2.43,2.16-3.84.07-.12.74-.21.91-.82.2-.69-.43-1.02-.43-1.1-.1-1.57.36-1.23.96-1.92l.23,2.41.97.46c.14-.03.13-.41.24-.48.87-.54,1.65-1.23,2.4-1.92.66-.32,1.07-.67,1.92-.48.32-1.52-.94-.86-1.93-.96.62-.61-.01-1.36,0-1.44.16-.61,1.29-1.38.96-2.4h.96c.02.14.45.34.48.48.09.4-.14,1.01.02,1.57.04.14.62.41.94,1.31s-.56,1.5,1.44,1.92l.21,3.39,2.44.92-1.2-1.44.96-.71c-1.75-.83-1.16-.92-1.44-2.16s.35-1.58-1.44-1.92c.83-1.82-.45-4.13,0-6.24h-.96s-.48,0-.48,0c-.01-.16,0-.32,0-.48.37.05.81-.46.96-.48s.32.01.48,0c.88-.06,2-.07,2.88,0,.16.01.32,0,.48,0l.48.48c.02.32-.03.64,0,.96.12,1.25.38,1.03.48,1.44.11.45-.6,1.07-.25,1.43l1.21-.47-.24,2.88,1.12-1.19c-.56-.86-.28-1.83-.4-2.66s-.4-1.1-.48-1.44c-.09-.41.06-.99,0-1.44.2-.07.68.17.88-.06.17-.18,1.21-3.91,1.52-4.74.17-.47.65-.81.96-1.92.04-.14-.03-.32,0-.48h.48c.42.07.76-.42.96-.48.4-.13,1.19-.45,1.44-.48.21-.03,1.52.11,2.4,0s1.96.09,2.88,0c2.6-.26,4.3-1.15,7.2-.96.07,0,.38.76.88.42.22-.23.02-.85.08-.9.16-.12,1.07.1,1.44,0v-.95c-.73.12-1.31-.31-1.92-.48v-.96c.8.16,1.6.3,2.4.48.3-.66-.48-1.34-.48-1.44,0-.2.38-.66.48-.96.05-.15-.06-.36,0-.48.06-.13.34-.3.48-.48.12-.16.33-.33.48-.48.89-.84,1.63-.92,1.79-1.08.31-.29.06-.7.13-.84.08-.17.7-.38.48-.96-5-1.48-11.39-1.25-16.32.48l-.48-.96c5.94-2.08,11.87-2.54,17.91-.53,2.62-3.5,5.41-5.41,9.54-6.82,1.08-.37,2-.14,2.79-.33v1.92c-.84-.44-6.02,1.19-6.24,1.45-1.23,1.44,1.86.31,1.92.95l-1.44.72.24.24c.72.04,1.23-.47,1.68-.96.1-.11-.26-1.16,1.27-1.4l.86.88,1.71-.45-.96-.72.97-.24,3.84.48v-.96c.6.13,2.1-.18,2.4,0,.05.03-.13.65.48.96,1.52.77,7.85,3.56,9.36,3.85.27.05.79.12.72-.24-.99-.57-2.18-2.64-2.88-3.12.31.03.65-.04.96,0,1.42.18,1.73,1.6,3.09,1.46s4.71-3.77,7.47-4.59c3.19-.94,9.69-2.08,12.49-.23ZM300.18,115.68v.48c.31-.16.31-.32,0-.48ZM302.58,116.16v.48c.31-.16.31-.32,0-.48ZM303.53,116.65l-.23.23,1.2,1.2.23-.23-1.2-1.2ZM292.73,117.12h-1.92v.96h1.92v-.96ZM300.9,118.56c-.56-.38-1.11-1.02-1.69-1.43h-.71s0,.95,0,.95c.57.1,2.05.23,2.4.48.14.1.19.8.45,1.07.7.72,1.72.81,1.47,2.29l1.43-.72c-1.02-1.06-2.14-1.82-3.35-2.64ZM253.85,117.6c-1.42.19-2.93,2.53-2.87,3.84,1.19-.93,3.07-2.1,2.87-3.84ZM255.06,118.08v.48c.31-.16.31-.32,0-.48ZM271.38,118.08v.48c.31-.16.31-.32,0-.48ZM262.49,118.56h-1.44v.47h1.44v-.47ZM272.34,118.56v.48c.31-.16.31-.32,0-.48ZM260.57,119.04h-.71s-.72.72-.72.72l1.43-.25v-.47ZM255.29,120.96h-.96s-.25,1.43-.25,1.43l1.2-.47v-.96ZM264.41,121.44c-1.05-.02-2.51-.27-2.88.95h2.88s0-.95,0-.95ZM250.97,123.84c-.47-2.35-1.96-2.51-2.86-.23l1.67,1.19-.23-1.21,1.42.25ZM257.22,123.36h-.96s-.25,1.91-.25,1.91l1.14-.53.07-1.38ZM250.01,125.77l-2.87-.97c-.6,1.87-.89,1.89,1.15,2.43l.38-.91,1.34.4v-.95ZM247.14,127.2c-3.06-.51-.92,3.44.95,1.19l-1.19-.22.24-.97ZM241.38,132c-.47-1.34-2.5-1.32-3.36-.23l3.36.23ZM228.9,133.44c.01.17-.04.39,0,.48.66,1.37,3.89-1.1,4.32-1.92-1.58.11-2.79.97-4.32,0,0,.48-.03.96,0,1.44ZM228.41,133.92c-1.2-1.35-3.52,5.3-2.88,6.24,1.43.25.76-.37,1.01-1.12.61-1.83,1.42-3.32,1.87-5.11ZM240.89,134.88h-1.92v.96h1.92v-.96ZM230.1,136.8v.48c.31-.16.31-.32,0-.48ZM229.85,137.76h-.96s0,1.44,0,1.44l.95-.73v-.71ZM234.18,139.2c-.13-.09.13-1.67-2.4-.96-.41,2.84.7,1.53,1.44,1.92.13.07.08,1.57,2.15,1.45.3-1.78.37-1.58,2.16-1.45-.15-1.08-3.01-.73-3.36-.96ZM219.77,140.64l-.96,1.91h1.92s0-1.92,0-1.92h-.96ZM232.26,141.12h-.95s-.49,1.43-.49,1.43h.95s.49-1.43.49-1.43ZM234.65,142.08h-.96s0,1.91,0,1.91h.47s.48-1.91.48-1.91ZM220.02,144.96v.48c.31-.16.31-.32,0-.48ZM221.69,145.92v-.96h-.47v.96h.47ZM221.21,146.88h-1.44s0,.47,0,.47l1.43.49v-.96ZM214.5,150.72c-.31.04-.64-.03-.96,0v.96s.95,0,.95,0c.03-.31-.04-.65,0-.96.31-.04.64.03.96,0v-.96s-.95,0-.95,0c-.03.31.04.65,0,.96ZM213.53,152.16h-.72s0-1.44,0-1.44c-2.33,1.74-7.85,6.12-2.17,7.19-.39-1.82-.63-2.8.98-4.07.84-.66,2.24-.34,1.9-1.69ZM203.22,155.52v.48c.31-.16.31-.32,0-.48ZM218.34,155.52l-4.31.98.46,1.66c-1.55-.32-2.71-.33-3.83.96l.85.31-.37.88c2.37.71,2.39-.93,3.23-1.45,1.56-.97,3.39-1.02,3.97-3.34ZM208.74,159.84c.36-1.25-1.63-2.73-2.63-2.89-1.07-.17-1.56,2.22-.25,2.41-.97-.08-2.51,1.79-1.92,2.4.35.01,1.85-.4,1.92-.48l.49,1.44h.95s0-1.44,0-1.44h-1.44c.07-.09-.15-.71.07-.9.55-.47,2.3,1.24,2.81-.54ZM219.78,157.92h-1.92s0,.95,0,.95c.9.12,1.66,0,1.92-.95ZM313.37,159.84l-.48-1.91h-.47s0,1.91,0,1.91h.96ZM319.13,158.4h-.96s.48,1.92.48,1.92l.94-.72-.47-1.2ZM216.9,160.8c-.16-.01-.32.01-.48,0l-.96.96h.96c-.04.37-.85,1.81-.96,1.92-.16.16-1.37-.47-.96.96.32,0,.64.02.96,0,.17,0,.38.04.48,0,.74-.32,1.76-2.45,2.4-3.12.02-.08-1.36-.71-1.44-.72.88.15,1.59-.53,1.44-1.44-.91-.15-1.59.56-1.44,1.44ZM209.7,161.28c-2.52,1.79,1.74,2.68,1.44,4.8l1.43-2.88-1.68.47c-.15-.81.56-1.12-.23-1.91v-.96s-.72,0-.72,0c-.16.05-.13.4-.24.48ZM218.82,164.16l-.47-.96-1.45,3.11c.23,1.85.85-.48.97-.71l.49.96c.55.28,1.74-2.15,1.43-2.88l-.96.48ZM205.37,168.97l-4.31-.96c-.11.7.85.66,1.34.81.4.12,2.91.98,2.97.15ZM205.37,169.94l-2.87-.49c.72,1.02,3.43,3.36,2.87.49ZM330.65,173.28c-1.91-.37-.12,1.86-.47,2.89,1.91.37.12-1.86.47-2.89ZM325.37,174.24h-.96s0,1.91,0,1.91h.47s.48-1.91.48-1.91ZM202.98,176.16c-.9-.13-1.66,0-1.92.95.9.13,1.66,0,1.92-.95ZM345.63,177.52c-.12-.1.46-1.05-.33-1.36-1.06,1.63.73,2.66,2.16,2.88.28-1.52-1.36-1.15-1.83-1.52ZM196.5,179.04v.48c.31-.16.31-.32,0-.48ZM202.02,181.44c1.67-.42,3.29-.83,4.8-1.68-.96-1.28-2.48-.06-3.73.13-.91.14-1.96-.92-2.4,1.42-.07.4.36.53.38.61.06.27-.04.65,0,.96-.31,0-.69-.05-.96,0-1.95.39-1.31,1.21-1.95,2.52-.19.39-.92.36-.93.65-.04,1.08,1.13,5.78,1.99,6.37,1.13.46,1.67-.49,2.33-.89.28-.17.81-.32.96-.48.12-.13.42-.18.48-.48l.96-5.76c-.9.24-.85,1.27-1.44,1.92v-.48c-.02-.16.02-.32,0-.48l2.39-2.64-.23-.23c-.4.3-1.25.93-1.69.95-.05,0-.61-.55-.96-.48.05-.11-.03-.31,0-.48.07-.45-.05-.97,0-1.44ZM344.16,181.37l3.12,2.44,1.59-1.22c.22-.99-3.3-2.82-4.06-3.54l-.65,2.32ZM208.73,181.45l-1.91-.48v.96s1.91,0,1.91,0v-.47ZM352.26,181.44l-2.4-.48,1.2,2.4.31-.85.88.37v-1.44ZM197.69,182.88h-.96s0,1.91,0,1.91h.47s.48-1.91.48-1.91ZM353.69,184.8h-.95s.48,2.4.48,2.4h.95s-.48-2.4-.48-2.4ZM206.33,185.28c-1.12-1.09-1.41.91-1.62,1.27-.11.19-.63.19-.66.26-.12.29.62,1.64.36,2.31,1.21.16.75-.05,1-.68.19-.49,1.03-3.05.91-3.16ZM198.18,193.92l-2.88-4.31c-.22.9.32,1.34.65,1.99s1.26,2.6,2.23,2.33ZM203.45,192.96l-2.39.72,2.88,1.68-.48-2.4ZM205.37,192.96h-.96s.48,1.91.48,1.91h.47s0-1.91,0-1.91ZM348.41,195.84l-.95-2.87-1.44,2.87h2.39ZM197.18,197.73l.28-1.88-1.68,1.2v.71s1.4-.02,1.4-.02ZM239.7,196.8v.48c.31-.16.31-.32,0-.48ZM199.14,202.08c.11.36.03.75.48.96-.2,1.46-2.24,4.49.48,4.8-.96-2.23.38-1.8.48-2.24.28-1.19.91-3.45,1.44-4.47.04-.07.43-.31.96-.96.23-.28,1-.38.96-.96h-1.2s-.24.96-.24.96h-.96c.07-.62-.05-1.29,0-1.92h-2.4c.14,1.35-.41,2.5,0,3.84ZM206.34,200.16l-1.44-.48-.48,1.44c.9.13,1.66,0,1.92-.95ZM205.85,202.08l-1.91-.25.47,1.68c.91.15,1.59-.56,1.44-1.44ZM202.02,204.96c-.1,3.04,1.94,3.2,1.87.72-.01-.42-.42-.64-.43-.72-.07-.62.06-1.29,0-1.92h-.71c-.35.07-.71,1.55-.72,1.92ZM206.34,204l-.25,1.43.72-.72v-.71h-.47ZM208.26,206.88c-.85.14-.92.02-1.44.96-.01-.48.01-.96,0-1.44l-1.86.07c-.2.27.02.71-.06.89-.42.99-.3,1.08-.48,1.92-.03.15.03.32,0,.48,0,.05-.69.38-.48.96h.72s.24-.96.24-.96c1.82.41,1.23-.68,1.92-1.92.02.89-.23,2.15.24,2.88.11-.9,1.68-2.07,1.69-2.21.03-.44-.46-1.11-.48-1.63.58-.1,1.31.08,1.92,0,.69-2.86-2.06-2.62-1.92,0ZM328.26,211.68l-.48-1.91h-.47s0,1.92,0,1.92h.96ZM338.81,210.25l-1.62-.43-.78.67v.71s2.39-.48,2.39-.48v-.47ZM201.53,210.72h-.96v.96h.96v-.96ZM209.69,211.68l-2.88.47,2.39,1.44.48-1.91ZM202.97,212.16h-1.92s0,.95,0,.95l1.91-.48v-.47ZM216.41,212.64c-.91-.15-1.59.56-1.44,1.44.91.15,1.59-.56,1.44-1.44ZM204.15,215.31c-.2-.2-.28-.47-.22-.75h-.47s.72,1.43.72,1.43l.71-.47c-.28.06-.55-.02-.75-.22ZM246.65,219.36c-.28-.82-.03-3.03-.95-3.36.11.84-.04,3.04.95,3.36ZM340.73,216.96h-.71s-.73.95-.73.95h1.44s0-.95,0-.95ZM246.42,223.68v.48c.31-.16.31-.32,0-.48ZM214.02,241.44c-.11.12-1.19.11-1.44.72-.61,1.48.88,1.13.96,1.2.1.09-.25,1.32.96.96-.03.22.02.37.24.47l2.64-1.43.47-.24-.47-.24-1.92.48.49-.95h-1.44c.66-.85,2.24-.75-.25-1.93-.44.13-.13.86-.23.97ZM206.82,243.36c.21.83-.13,1.41.44,2.67.75,1.67,1.76,1.76,2.92,2.61.05.04-.16.65.09.85l2.78.83c-.73-.32-1.2-1.82-1.55-2.06-.46-.31-1.13-.01-1.32-.11-.61-.31-2.85-4.05-2.88-4.8,0-.13.92-2.09-.24-2.4-2.03-.54-.27,2.26-.24,2.4ZM219.77,244.32l-3.08.45-.23.94,1.15.99c.74-.38.53-1.59.82-1.83.42-.34,1.49.34,1.34-.56ZM217.85,247.2l-.96.24,1.2,1.19-.25-1.43ZM218.34,251.04l-2.4-.48v.47s1.7.94,1.7.94l.69.02v-.95ZM227.93,252.96l1.91.25-1.67-1.2-.24.95ZM228.42,255.36l-2.4-1.91.4,1.39-.4.78,2.4-.25ZM239.45,253.44c-1.18.02-2.89-.4-3.36.95.84-.11,3.04.03,3.36-.95Z"/>
  <path class="st5" d="M204.42,222.24s-.47.06-.47-.24l.47-.24c.06.03-.06.46,0,.48Z"/>
  <path class="st23" d="M343.62,166.56c1.04,0,2.15.43,3.03.95.44.26.29.94.33.97h-1.44s0,.47,0,.47l1.43.49v-.96c.18.11,1.04-.07,1.69.46,3.31,2.66,7.08,7.39,7.45,11.76.11,1.33.47,4.4-.98,5.06,0-.16,0-.32,0-.48.07-1.95.07-3.94-.11-5.89l-1.32-2.75c.56,2.45,1.08,4.13.96,6.72h-1.44c-.02-.48.02-.96,0-1.44h.96s-.96-3.36-.96-3.36c-.34-.33-2.24.77-2.4.96l-1.44-1.44c-.18-.65.01-.61-.48-1.44-.93-1.57-2.91-3.14-4.32-4.32-.47-1.46-1.02-4.21-.96-5.76ZM347.7,169.44v.48c.31-.16.31-.32,0-.48ZM348.66,170.4v.48c.31-.16.31-.32,0-.48ZM348.41,171.36h-.96v.47h.96v-.47ZM350.33,174.24c.32-.6-.77-1.67-.95-1.44-.32.6.77,1.67.95,1.44ZM352.26,174.24l-.96-.96v.96s.96,0,.96,0ZM353.21,176.16v-.71s-.72-.72-.72-.72l.25,1.43h.47Z"/>
  <path class="st6" d="M231.3,120.48l.48.96c-5.14,1.8-15.48,11.44-15.84,17.11-.04.7.48,1.06.48,1.13,0,.16-.01.32,0,.48.07.97-1.23.74-.96,2.88h-.96l-.04-.92-.68-.04c-.15.05-.13.41-.24.48-3.71,2.2-5.48,2.94-7.68,6.72-.13.1-.62.04-.94.26-.99.69-3.11,2.49-3.38,3.58-.39-.12-1.36-.47-1.44-.48.4-2.09,2.74-3,4.09-4.31,3.06-2.96,5.57-6.04,9.71-7.81,1.66-8.94,8.91-17.07,17.4-20.04Z"/>
  <path class="st22" d="M192.9,207.84c.18,1.7,1.37,5.56,2.36,6.9.31.42,1.03.42,1.48.3.2.41.14,1.14.72,1.44.45-3.13,1.49-.42,2.67.23.53.3.97.15,1.41.25-.14.38-.44.81-.48.96l-.73-.48-1.2,1.2.73,1.19.72-.47c-.15.54.32.7.48.96.46.74.63,1.62,1.44,2.4-.47-.05-.99.07-1.44,0-.5-.07-1.12-.48-1.61-.37-.74.16-1.2,1.54-1.98,1.34-.43-.11-.69-1.33-1.23-1.67-.51-.32-1.32-.12-1.75-.41-.55-.37-1.21-1.88-2.54-1.77l2.33-3.98c-1.47-2.71-2.58-4.85-2.81-8.01h1.44ZM195.77,216.96h-.71s-1.2,1.2-1.2,1.2l.23.23,1.68-.96v-.47ZM193.62,218.88v.48c.31-.16.31-.32,0-.48Z"/>
  <path class="st22" d="M330.66,143.04c.57.56,2.53,1.18,3.17,1.88,2.2,2.41,2.48,6.14,3.81,8.18.29.45,2.57,2.23,3.58,3.38v.48l-3.12-2.4-.24.71c1.76.71,1.84,2.61,3.36,3.6v.48c-.29-.09-.51.28-.48.48l-1.92-.96.95,2.64-1.91.24.48-2.88c-.3-.07-.75.08-.96,0-.03.31.03.65,0,.96h-2.39c-.59-2.28,2.14-3.83,1.96-1.01.09.15.35,0,.44.04.03-.31-.03-.64,0-.96l1.44.48.25-1.41c-1.14-.19-2.69-.28-3.75-.53-.37-.08-.48-1.49-1.78-.94-.11-.19-.31-.34-.48-.48,0-.16-.02-.33,0-.48.02-.14.85-1.23.48-1.44-.21-.12-.69.82-.71,0-.05-1.82-.07-2.5-.72-4.33l1.44-.48-.34.87.68.18c-.75,1.42.4.93,1.1.39.12.35.56,2.31.48,2.4l-1.44-.96.48,2.4c1.5.28.79-.6.96-1.44.07-.34.53-.3.3-1.43-.31-1.52-1.29-3.19-2.22-4.33-.57-.7-.62-.88-1.44-1.44l-.73-.96-.71.48-.96-1.2.96-.24Z"/>
  <path class="st3" d="M183.78,165.6h.96c-1.03,5.65,2.17,9.18,6.24,12.48-.18.3-.13,1.07-.48,1.44h-.48c-4.43-3.63-7.08-8.02-6.72-13.92h.48Z"/>
  <path class="st22" d="M190.98,180.48c-.09,2.26-.68,4.08-.43,6.43.14,1.26,1.74,5.9,2.35,7.01l-.48.48c-.14-.23-.88-.43-1.32-1.3-2.28-4.48-2.75-8.78-1.08-13.58h.48l.48.96Z"/>
  <path class="st3" d="M262.5,112.32c3.14-.55,4.9-.7,8.17.23,1.75.49,5.24,1.76,5.75,3.61-.31-.04-.65.03-.96,0-.66-.46-4.71-2.06-5.64-2.28-1.68-.4-4.25-.71-5.88-.12-.54-.35-1.09-.89-1.44-1.44Z"/>
  <path class="st21" d="M239.94,258.72c-4.76,3.78-12.1,4.26-16.32-.48.16.02.32-.02.48,0,1.15-.14,1.83.77,2.88.96.15.03.32-.02.48,0-.27,1.16.61,1.06,1.41,1.21,3.08.57,4.03.32,6.75-.73-2.09.29-4.72-.21-6.89,0-.47-.07-.27-.43-.31-.49,1.97.13,4.51.26,6.24-.48.48-.2.94-.72,1.44-.96.12.06.34.33.48.48.16.16.33.31.48.48-.19.13-.33.39-.48.48-.08.05-.91.47-.96.48.4-.15.67-.36.96-.48.84-.36,1.25-.63,1.92-.96.56-.27,1.48-.14,1.92-.96h.48l-.96,1.44Z"/>
  <path class="st21" d="M238.5,257.76v.48h-.96c.98-.69.9-.44.96-.48Z"/>
  <path class="st23" d="M189.06,156.48l.48.48c-.19.15-2.24,2.08-2.41,2.29-1.68,2.03-1.38,4.83-3.35,6.35h-.48c.15-2.44,2-7.3,4.07-8.67.66-.44,1.62-.39,1.69-.45Z"/>
  <path class="st21" d="M213.06,252.48c1.25,2.16,4.86,3.24,7.2,3.84v1.44c-1.48-.28-6.84-1.97-7.58-2.99-.23-.32-.04-.65-.1-.85-.17-.54-.03-1.29-.48-1.92.86-.27.88.45.96.48Z"/>
  <path class="st11" d="M352.26,196.32c.17.74.08,2.75-.09,3.53-.15.71-.82,1.11-.87,1.27h-.48c.17-.52.87-2.87.24-2.88l-1.2,2.88c-.03-.05-.68.13-.87-.09-.93-1.02,2.13-5.28,1.84-6.63.38,0,1.41,1.8,1.44,1.92Z"/>
  <path class="st21" d="M311.46,121.44c1.27.22,2.04.12,3.49.59,6.6,2.1,12.87,9.18,14.27,15.73h-.48c-.03-.2-.79-1.03-.96-1.44-.54-1.3-.65-1.64-1.44-2.88-.62-1.29-.69-2.65-2.4-3.36-1.19-2.24-.39-.61-2.4-1.68l.97-.48c.13-.78-.54-.87-.97-1.2-.71-.56-1.21-.63-1.92-.96-1.78-1.26-2.76-1.6-4.8-2.4-1.02-.4-1.94-1.28-3.36-.96v-.96Z"/>
  <path class="st3" d="M193.86,197.28c.06.06.62-.16.86.11.31.34,0,1.12.1,1.33l-.93.02c-.27,2.06-.85,3.58-.99,5.74h-1.44c.16-2.12.59-5.86,2.4-7.2Z"/>
  <path class="st21" d="M341.22,156.48c1.75,1.99,2.8,3.31,3.17,6.23.24,1.91-.6,2.03-.77,2.89-.16-.15-.36-.29-.48-.48l.28-2.41-1.24-2.87c.22,1.1.29,2.26.48,3.36h-.48l-.96-3.84v-.48l.95.25-.95-2.17v-.48Z"/>
  <path class="st11" d="M202.5,237.12c.59.69.63,3.1,1.67.47l1.23.8-.02,1.6-.72-.96c-.4,1.46-.92.75-1.68.97v-.48h.96s0-.47,0-.47c-.66-.03-1.34-.14-1.92-.49-.17-.1-.34-.81-.72-.95l-1.2,1.43c-.44-.07-.98.05-1.44,0-.09-.19.06-.67,0-.96.23-.48.71-.95.96-1.44l2.88.48Z"/>
  <path class="st11" d="M198.66,239.04c.09.19,2.2,1.4,2.4,1.44v.48c-1-.13-2.01.06-2.89-.72-.99-.87-.05-1.03.01-1.2h.48Z"/>
  <path class="st23" d="M208.26,230.4c-1.42.63-3.1,1.73-3.36,3.36-.53.01-1.19-.48-1.44-.48.57-2.16,2.39-3.49,4.32-4.32.12.43.53.92.48,1.44Z"/>
  <path class="st23" d="M262.5,112.32c.35.55.9,1.09,1.44,1.44.35.23,1.2.91,1.44.96v.96s-3.84-.48-3.84-.48v-2.4c.15-.04.48-.4.96-.48Z"/>
  <path class="st11" d="M349.86,207.84c-.36,1.87-.35,3.77-1.29,5.65-.44.88-1.05.52-1.11.59l-.96-.24v-.47c.16-.38.85-.54.96-.72,1.09-1.67,1.19-3.08,1.92-4.8h.48Z"/>
  <path class="st3" d="M192.9,154.08l.48.48c-.26.13-3.48,2.12-3.84,2.4l-.48-.48c.06-.04,0-.84.5-1.16,1.15-.73,2.37-.81,3.34-1.24Z"/>
  <path class="st28" d="M196.74,152.64v1.44c-1.06.02-2.4.02-3.36.48l-.48-.48c1.57-.7.73-1.26,3.84-1.44Z"/>
  <path class="st5" d="M192.9,204.48c-.06.99-.1,2.39,0,3.36h-1.44c-.07-1.02-.08-2.34,0-3.36h1.44Z"/>
  <path class="st4" d="M202.5,235.2c1.36-.06,2.51-.48,3.84-.48l-1.45,2.39h-.95s.49-.95.49-.95c-.63-.06-1.3.07-1.92,0v-.96Z"/>
  <path class="st23" d="M339.3,224.64h-.48c.19-1.35-.52-3.34.48-4.32,1.12,1.61.21,3.01,0,4.32Z"/>
  <path class="st20" d="M339.3,219.84v.48c-1,.98-.29,2.97-.48,4.32h-.96c.23-1.77.69-2.83,0-4.8.47-.04.97.05,1.44,0Z"/>
  <path class="st11" d="M338.82,226.56c.17,1.5,1.22,1.25.48,3.84h-.48c.05-1.17.15-2.61-.96-3.36.14-.55.5-.53.96-.48Z"/>
  <path class="st21" d="M353.7,193.44h-.48c.33-.95.22-2.38.96-3.36h.48c-.25,2.11-.28,1.71-.96,3.36Z"/>
  <path class="st15" d="M339.3,230.4c-.26.91-.85,1.85-1,2.84l-1.4-.2c.77-.53.98-1.52,1.44-2.16.12-.16.37-.28.48-.48h.48Z"/>
  <path class="st27" d="M201.06,236.16c.38.38,1.12.58,1.44.96l-2.88-.48c.09-.17-.08-.67,0-.96.69-.32,1.27.46,1.44.48Z"/>
  <path class="st13" d="M299.46,112.8c.15-.01.33-.01.48,0l.96.96c-.47.03-.96-.03-1.44,0-.31-.31-.97-.43-.96-.72,0-.43.63-.22.96-.24Z"/>
  <path class="st18" d="M198.66,239.04h-.48c.16-.44.33-.64.48-.96.06.29-.09.77,0,.96Z"/>
  <path class="st18" d="M200.1,239.04c.13.02.49.41.96.48.58.09,1.3-.06,1.92,0v.48c-.61.17-1.15.62-1.92.48-.2-.04-2.31-1.25-2.4-1.44.46.05,1-.07,1.44,0Z"/>
  <path class="st12" d="M289.86,147.84c.77.47,1.39,1.08,2.41.96l-.44,1.37c.78.02.99.71,1.39,1.03.14.63.58.98.96,1.44.57.68,2.43,3.27,2.6,3.41,2.34,1.87,1.45,1.63,3.15,4.03,6.19,8.75,14.99,17.4,21.61,25.69.3.37.56.93.96,1.44.11.13.05.64.27.93,2,2.61,4.82,4.81,6.45,7.23l.48.96c.03.15-.02.32,0,.48.11,1.09-.07,2.26,0,3.36-3.13,4.71-3.8,10.21-6.14,15.22-.35.74-.97,1.26-1.54,1.82l.95.71-.87.09c.81,2.39-2.35,3.15-1.08,4.98.01.2-1.78-.02-.44,2.13-1.47-.26-1.15.07-1.7.93-2.35,3.74-3.35,9.59-5.72,13.49-1.38.71-3,1.84-4.46,2.26-6.43,1.82-19.9,1.28-26.76.6-8.93-.88-16.63-2.1-23.51-8.17-2.29-2.02-3.54-5.77-6.97-5.27.25-.91-.56-1.47-.96-2.4-.08-.19.08-.49,0-.71l-.48-.25c.05-.54-.38-1.03-.48-1.44-.2-.83.06-1.85-.96-2.4-.04-.31.03-.65,0-.96l-.48-.48c-.34-2.22-1.27-4.31-2.02-6.4-.22-.61-.8-1.11-.86-1.28-.3-.87.15-2.58-.96-3.36.09-.25-.08-.7,0-.96,1.72-5.44.7-9.3,1.92-13.92.27-1.03.63-1.95.96-3.36.3-1.29.31-2.64.96-3.84.86-1.59,4.31-3.09,4.32-5.76,2.19-1.09,3.01-2.54,4.32-3.84.07-.07,1.01-.2,1.44-.48.19,2.52,1.09.12,1.31.02.86-.38,1.89-.58,2.76-1.01l.49.99c1.38-2.04,3.44-3.23,5.31-4.77.68-.56.93-1.5,1.52-1.96,1.91-1.46,5.21-2.02,7.35-4.05,1.57-1.49,1.93-3.63,4.3-4.34l-1.43.24v-.96s2.16-1.92,2.16-1.92c1.06,2.97,2.09-2.03,3.04-3.2l4.88-8.32ZM310.97,180c-1.3.1-1.72,1.18-3.14,1.41-.91.15-2.4.14-3.31,0s-2.81-1.81-2.66-.22l2.86,1.23-.46,2.86c1.53.43,1.66-2.27,2.16-2.4,1.04-.14.88,1.09,1.63,1.72.64.53,1.08.84,1.96.68l-1.92-2.87,3.36.48-.99-1.22.51-1.65ZM273.53,183.36c-1.26-.05-1.69,1.33-2.85,1.7-1.41.45-3.24.32-4.62-.23-1.08-.43-1.46-1.51-2.6-1.47-.53,1.24,1.92,1.85,1.92,2.16l-1.92,2.63,4.32-1.92c.64.68-2.64,4.62-.72,3.83,1.39-.56,1.54-3.37,2.41-3.83l1.2,1.68,2.88-4.56ZM286.98,202.08c.91-.03,2.86-1.25,2.89-2.14s-3.15-5.27-3.85-4.58l2.86,4.56-1.9,2.15ZM298.5,215.04c-2.53-.48-4.85-1.81-7.84-1.74-3.28.08-6.98,2.22-10.4,2.22,3.68,5.04,9.2,9.71,15.54,5.68.75-.48.87-1.02,1.26-1.36,1.66-1.47,3.06-4.11,5.28-3.84.38-1.76-2.69-.74-3.84-.96Z"/>
  <path class="st18" d="M323.46,228c.34.2.88-.17,1.23.98l1.64-.5.48,2.4c-.76-.66-2.86-1.27-3.36-2.88Z"/>
  <path class="st17" d="M241.86,255.36c-.21.38.19,1.68-.96,1.92h-.48v-.96c.31-.21.52-1.14,1.44-.96Z"/>
  <path class="st4" d="M330.18,233.28v.48c-1.58-.68-2.13-1.79-2.88-2.4,1.26-.14,2.32,1.64,2.88,1.92Z"/>
  <path class="st17" d="M322.5,227.52c-.81-.54-1.14-1-1.44-1.92.37.47,1.6.72,1.44,1.92Z"/>
  <path class="st18" d="M196.74,154.08c.57-.01,1.44-.1,1.92,0v.48c-.72,1.27-.15,1.18-1.44,1.44-.89.18-.94.1-1.92.48-.33.13-.63.34-.96.48-1.28.56-2.21,1.13-3.36,1.92-.18.12-.31.35-.48.48-.49.36-3.65,2.76-3.74,2.98-.31.76.44,1.55.33,1.79-.02.05-.67.23-.91.52-.3.35-.63.5-.51,1.15l.5,3.65v-4.32c.89,1.76.24,3.37,1.09,5.4.51,1.23,2.24,4.03,3.72,4.2.04.38,0,.9.48.96l.22.4c.13,0,.18-.39.26-.4.15-.03.32.02.48,0,.48,1.51-1.16,1.94-1.44,2.4-4.07-3.3-7.27-6.83-6.24-12.48h-.96c1.97-1.52,1.67-4.32,3.35-6.35.17-.2,2.22-2.14,2.41-2.29.36-.28,3.58-2.27,3.84-2.4.96-.46,2.3-.46,3.36-.48Z"/>
  <path class="st21" d="M242.82,121.92s-.24.36.71.49c.76.1,1.63-.06,2.41-.01l.24-.48h1.44c-.07.15.18.55-.13.84-.16.15-.91.24-1.79,1.08h-2.4s0,.48,0,.48h1.92c-.14.19-.42.36-.48.48l-7.2.24,7.2.24c-.1.3-.48.76-.48.96-4.42-.1-8.49-.31-12.48,1.92l-.97-1.44h-.47s.48,1.92.48,1.92c-.39.27-.79,1.62-1.92,1.45l.48.47v.48c-.25.03-1.04.35-1.44.48-.29-.06-.74.09-.96,0-.08-.03-.07-.6-.47-.48-.04.31.04.66,0,.96-.03.16.04.34,0,.48h-.48l-1.19-.97c-.25.53-.99.36-1.21.49.07-.63-.06-1.29,0-1.92.83.24,1.11.24,1.92,0,.95-.27,1.52-.4,1.92-1.44.63-.4.23-1.53,1.92-.48l.07-1.87c.17-.22.77.03.89-.05,1.02.01,1.63-.58,2.4-.96,1.97-.98,4-1.63,6.21-1.97l.03-.91v-.48c1.4.03,2.12-.24,3.84,0ZM242.81,123.36h-1.44v.47h1.44v-.47Z"/>
  <path class="st10" d="M254.34,176.16c.41-.47.77-1.58,1.09-1.79.74-.47,3.33-.37,3.65-.69l.06-1.36c3.03,1.13,3.32-.46,5.4-2.04.69-.53,1.85-.69,2.16-.96.45-.4.31-1.34.71-1.69.66-.57,3.65-.53,5.93-2.49.38-.33,1.37-3.13,1.64-.5-.17.26.18,1.2-.69,1.95-2.11,1.8-5.88,3.09-7.98,4.54-.41.28-.03.96-.45,1.4-1.94,2.01-4.9,2.74-7.2,4.11l.48-1.44-2.87.96,2.4.47c-.16.1-.3.36-.48.48-.43.28-1.37.41-1.44.48l-.63-.02-1.77-1.42Z"/>
  <path class="st10" d="M243.3,185.76l1.92.48-.52,1.63,1,.6v.65c-.11.34.08,1.01,0,1.44-1.5.83-.73,6.31-.92,7.95-.1.92-.97.65-.95.89.05.64.56,1.33.47,2.43-.12,1.49-.49,3.16-1,4.56-.81-2.6-2.58-4.72-2.9-7.91-.2-1.99,1.34,1.18,1.94.71.67-1.01-.1-2.15.02-3.1.1-.84.95-1.23.93-2.35-.02-.98-.66-2.36-.78-3.51-.07-.73.45-1.55.34-2.26-.06-.34-.96-.34-1-.54-.29-1.71.82-1.26,1.45-1.68Z"/>
  <path class="st7" d="M231.78,121.44c4.93-1.73,11.32-1.95,16.32-.48.22.58-.4.78-.48.96h-1.44l-.24-.48c-.92.16-2.7-.49-3.12.48-1.72-.24-2.44.03-3.84,0-.09,0-.74-.54-1.64-.53-7.42.05-17.77,8.78-19.48,15.89-.15.64-.32,1.28-.48,1.92-.15.02-.59.53-.96.48,0-.06-.52-.42-.48-1.13.36-5.68,10.69-15.31,15.84-17.11Z"/>
  <path class="st24" d="M279.78,161.28v.96s1.44-.24,1.44-.24c-2.37.71-2.73,2.85-4.3,4.34-2.14,2.02-5.44,2.59-7.35,4.05-.6.46-.84,1.4-1.52,1.96-1.87,1.54-3.93,2.73-5.31,4.77l-.49-.99c-.86.43-1.9.63-2.76,1.01-.22.1-1.12,2.49-1.31-.02.18-.12.32-.38.48-.48l-2.4-.47,2.87-.96-.48,1.44c2.31-1.36,5.27-2.1,7.2-4.11.43-.44.05-1.12.45-1.4,2.09-1.45,5.86-2.75,7.98-4.54.87-.74.52-1.68.69-1.95.2-.31,1.43-.26,1.79-.61.09-.09,1.08-2.15,1.09-2.27l1.92-.48Z"/>
  <path class="st23" d="M195.78,199.2c.56.35,1.72.6,2.36,1.02.13.18-.29,1.55-.44,1.86h.96s0,.96,0,.96h-.96s0-.96,0-.96c-.05.1-.74.53-.96.96-.9,1.74-.36,3.4-.48,5.28.86.04.47-1.81.48-2.4.28.06.78-.09.96,0-.35,1.65.46,3.29.48,4.8,0,.14-.76.95-.48,1.92l1.44.72c-.12.26-2.04,1.59-2.4,1.68-1.11-2.26-2.63-4.55-2.4-7.2l1.44-8.64Z"/>
  <path class="st21" d="M195.78,157.92c-.04.3-.44,2.29-.48,2.4-.4,1.1-2.29,1.53-3.09,2.43-1.95,2.23-1.79,4.5-1.23,7.17.03.16-.04.34,0,.48-.14.14-.44.33-.48.48l-.72-.97-.24.96h-.96c-.08-.44.1-1.05,0-1.44.21-1.39-.31-3.56,0-4.8.11-.44,2.26-2.32.96-2.88.25-.77.09-1.69.96-2.4.17-.13.3-.36.48-.48l2.4,1.44c-.24-1.09.67-1.8,1.44-2.4.25-.2.67-.29.96-.48,0,.16.02.32,0,.48ZM190.01,165.6l.48-2.39h-.47c-.14.8-.57,1.55-.48,2.4h.47Z"/>
  <path class="st8" d="M289.86,147.84l-4.88,8.32c-.95,1.17-1.97,6.17-3.04,3.2l-2.16,1.92.97-4.8,2.85.46c.3-1.96,1.68-3.28,2.2-5.25.24-.9.07-1.74.21-2.41.13-.63.25-1.28.56-1.85.36-.26.99.02,1.36-.07l.24,1.44.24-1.44s.25-.51.65-.42c.55.12.66.82.79.9Z"/>
  <path class="st18" d="M192.42,181.44l-.48.24v.71s.96,0,.96,0c.03.14-.02.32,0,.48l-.96.24v1.2s.48,0,.48,0l.49-.96c-.01.52.12,1.6,0,1.92-.08.2-1.59,1-.96,2.4l.93-.47c-.1.63.32.99.5,1.43.87,2.09,1.48,3.97,2.77,5.91-.3,2.66-2.55.65-3.25-.63-.6-1.11-2.21-5.75-2.35-7.01-.26-2.35.34-4.17.43-6.43.89.01,1.02.41,1.44.96Z"/>
  <path class="st3" d="M197.7,167.04c.7-.12,1.63.04,2.4,0v.48l-1.44,1.44c1.77-.42,1.35.88,1.44.96l-.48,1.92h2.88c.06.29-.04.65,0,.96-2.28.24-3.62,1.6-5.76,1.92-.02-.03-.45-.47-.48-.48l.96-1.43c-2.47-.27-1.39-3.66-.71-5.29.29-.49.73-.4,1.19-.47Z"/>
  <path class="st26" d="M196.74,161.76c.26,2.72-1.4,2.08-2.88,3.84-.94,1.12-1.14,2.04-1.44,3.36-.09.4.07.98,0,1.44l-1.44-.48c-.56-2.67-.72-4.94,1.23-7.17.79-.91,2.69-1.34,3.09-2.43,1.31-.97,1.33.24,1.44,1.44Z"/>
  <path class="st10" d="M286.02,149.28c-.14.67.03,1.51-.21,2.41-.52,1.97-1.9,3.3-2.2,5.25l-2.85-.46-.97,4.8-1.92.48c.01-.21-.58-.91-.48-1.64.14-1,1.52-2.13.96-3.63l.71.96c1.05-.89,1.56-2.27,2.61-3.16.63-.53,1.69-.6,1.85-.78.44-.49.29-4.34,2.5-4.22Z"/>
  <path class="st7" d="M275.46,116.16c.7.48,1.89,2.55,2.88,3.12.07.37-.45.3-.72.24-1.51-.29-7.84-3.07-9.36-3.85l-.48-.96c-.3-.18-1.8.13-2.4,0-.24-.05-1.09-.73-1.44-.96,1.63-.59,4.2-.28,5.88.12.93.22,4.98,1.83,5.64,2.28Z"/>
  <path class="st8" d="M247.14,191.04c-1.72-.15-1.97,2.38-.96,3.36-1.22,4.62-.2,8.48-1.92,13.92h-.96c-.12-.57.14-1.45,0-1.92.51-1.4.88-3.07,1-4.56.09-1.1-.43-1.79-.47-2.43-.02-.25.85.03.95-.89.19-1.64-.58-7.12.92-7.95.15-.08.76.16.91-.03.2-.27.05-1.79.05-2.37,0-.16,0-.32,0-.48l1.44-.48c-.65,1.2-.66,2.55-.96,3.84Z"/>
  <path class="st16" d="M194.82,198.72s.59.25.96.48l-1.44,8.64v-3.36s-.48,0-.48,0v3.12s.48.24.48.24c-.23,2.65,1.29,4.94,2.4,7.2-.45.12-1.16.12-1.48-.3-1-1.34-2.18-5.2-2.36-6.9-.1-.97-.06-2.37,0-3.36.14-2.15.72-3.67.99-5.74l.93-.02Z"/>
  <path class="st24" d="M254.34,176.16l1.77,1.42.63.02c-1.31,1.3-2.13,2.75-4.32,3.84-.99.49-3.17,1-4.32,1.44.1-.72-.24-1.77.21-2.43.48-.72,1.7-.25,2.31-.48.72-.28,2.96-2.93,3.72-3.81Z"/>
  <path class="st20" d="M197.7,165.12v1.92c-.45.08-.9-.02-1.19.47-.69,1.63-1.76,5.02.71,5.29l-.96,1.43c-.25-.12-.89.06-1.4-.26-1.52-.94-1.74-2.35-1.48-4.06.17-1.07,1.16-2.12.96-3.84.73-.28,2.18-1.23,2.76-1.33.39-.07.57.37.6.37ZM195.29,171.84v-2.4h-.47v2.4h.47Z"/>
  <path class="st17" d="M213.54,142.56c.11-.06.09-.43.24-.48l.68.04.04.92c.33,1.02-.8,1.79-.96,2.4-1.54.25-2.84,1.24-3.84,2.4-.6.69-1.06.35-.96,1.92-1.96.04-4.16,2.57-4.8,4.32-2.3.14-1.13-.62-1.44-.96.19-1.74,1.7-1.33,2.69-2.37.56-.59.45-1.11.67-1.47,2.03-1.5,3.97-3.27,6.21-4.61l1.47-2.11Z"/>
  <path class="st22" d="M202.98,183.84c-1.23,1.12-.56,1.33-.48,1.92.02.16-.02.32,0,.48l-.96.24v.71s.72,0,.72,0c.33-.11.22-.45.24-.48.58-.65.54-1.68,1.44-1.92l-.96,5.76-.95-.24.47.72c-.15.16-.68.31-.96.48-1.12-.51-1.45-1.73-1.44-2.88.01-.15.01-.33,0-.48-.07-.82-.04-1.61.23-2.4.41-1.24,1.55-2.07,1.69-2.4.35-.07.91.48.96.48Z"/>
  <path class="st6" d="M242.34,127.2v.96c-3.53-1.01-7.91.36-10.56,2.88-.88.11-2.19-.03-2.4,0v-.48c4.48-3.12,7.46-4.44,12.96-3.36Z"/>
  <path class="st14" d="M252.42,181.44c-.01,2.67-3.46,4.17-4.32,5.76l-1.44.48c-.02-.82-.51-2.25-.44-2.35.26-.37,1.56.01,1.88-1.97.03-.16-.02-.32,0-.48,1.15-.44,3.33-.95,4.32-1.44Z"/>
  <path class="st20" d="M200.1,182.88c.29,1.09-.85,2.16-.96,2.88-.2,1.3.14,2.96,0,4.32h.47c-.23-.58.48-1.33.49-1.44-.01,1.15.32,2.37,1.44,2.88-.66.4-1.2,1.35-2.33.89-.86-.59-2.03-5.29-1.99-6.37,0-.29.74-.26.93-.65.64-1.31,0-2.13,1.95-2.52Z"/>
  <path class="st23" d="M199.14,202.08c-.41-1.34.14-2.48,0-3.84h2.4c-.05.63.07,1.3,0,1.92-.02.19-.79.72-.48,1.44l.96-.48c-.53,1.02-1.16,3.28-1.44,4.47-.11.45-1.44.01-.48,2.24-2.72-.31-.68-3.34-.48-4.8h1.44s-.77-1.42-.77-1.42l-1.16.46Z"/>
  <path class="st18" d="M202.5,172.8c.93-.1,1.94.07,2.88,0-.7,3.18-5.74,2.76-8.34,2.9-.59-.11-.2-.82-.3-.98,2.14-.32,3.48-1.68,5.76-1.92Z"/>
  <path class="st7" d="M242.34,128.16c.61.17,1.19.6,1.92.48v.95c-.37.1-1.29-.12-1.44,0-.32,0-.64,0-.96,0-.5-.78-2.42-.56-3.36-.48-1.13.1-4.15.5-3.84,1.92-.92.09-1.97-.11-2.88,0,2.65-2.52,7.03-3.89,10.56-2.88Z"/>
  <path class="st16" d="M213.53,152.16c.34,1.35-1.06,1.02-1.9,1.69-1.61,1.27-1.36,2.26-.98,4.07-5.68-1.07-.16-5.46,2.17-7.19v1.44s.71,0,.71,0Z"/>
  <path class="st27" d="M218.34,155.52c-.58,2.32-2.42,2.37-3.97,3.34-.84.52-.86,2.16-3.23,1.45l.37-.88-.85-.31c1.11-1.29,2.28-1.28,3.83-.96l-.46-1.66,4.31-.98Z"/>
  <path class="st21" d="M213.54,145.44c-.02.08.61.82,0,1.44.99.1,2.25-.56,1.93.96-.85-.19-1.26.16-1.92.48-1.01.5-1.87.59-2.4,1.92-.11.07-.1.45-.24.48l-.97-.46-.23-2.41c1-1.16,2.3-2.15,3.84-2.4Z"/>
  <path class="st21" d="M200.58,163.2c-.48,1.36-2.03.12-1.92,1.92-.31.02-.66-.05-.96,0-.03,0-.21-.43-.6-.37-.58.1-2.03,1.05-2.76,1.33,0-.03-.59-.03-.48-.48,1.48-1.76,3.14-1.12,2.88-3.84h1.44v.96s.96,0,.96,0v-1.92s1.44-.48,1.44-.48c.12.91-.15,2.02,0,2.88Z"/>
  <path class="st15" d="M321.54,126.72c.43.33,1.1.42.97,1.2l-.97.48c2,1.07,1.21-.56,2.4,1.68.83,1.56,1.59,2.08,2.4,3.36.28.59.71,1.72.96,2.4-.93.73-.67.24-.96,0-.12-.97-.48-1.99-1.44-2.4-.07-.12.07-.36,0-.48-.46-.83-1.08-1.48-1.92-1.92-1.08-1.22-2.3-2.38-3.38-3.6-.52-.59-1.21-.79-.46-1.68.13.06.35-.06.48,0,.58.41,1.11,1,1.68,1.43l.24-.47Z"/>
  <path class="st22" d="M234.66,257.28c.94.09.77.13,1.44.48-.5.24-.96.76-1.44.96l-6.49-.47c-.35.17.08.7.25.95-.32-.02-.65.04-.96,0-.16-.02-.33.03-.48,0-.34-.24-.64-.78-.96-.96.71-.37,2.16-.88,2.88-.96,1.55-.16,4.19-.14,5.76,0Z"/>
  <path class="st20" d="M213.06,252.48c1,.3,2.8,1.1,3.3,1.19.81.14,1.7-.47,2.62-.17.39.12,1.64,1.96,2.23,2.34v.48c-.3-.06-.69.07-.96,0-2.34-.6-5.95-1.68-7.2-3.84Z"/>
  <path class="st17" d="M331.62,147.84c.05.14-.04.33,0,.48l.48.48c.65,1.82.68,2.51.72,4.33.02.82.51-.12.71,0,.37.21-.46,1.3-.48,1.44l-1.04-1.36-1.37-.08c.98-1.84-.64-2.84-.49-5.03.1-1.43.66-.13,1.45-.24Z"/>
  <path class="st25" d="M248.1,183.36c-.33,1.98-1.63,1.6-1.88,1.97-.07.1.42,1.53.44,2.35,0,.16,0,.32,0,.48-.21.29-.88.71-.96.96v-.65s-1-.6-1-.6l.52-1.63-1.92-.48c.62-.41.82-1.23,2.34-1.05l.09-1.29,2.36-.06Z"/>
  <path class="st16" d="M204.42,221.76l.96.24c.04.38-.77.3-.96.24-.06-.02.06-.45,0-.48Z"/>
  <path class="st16" d="M204.42,221.76l-.47.24c0,.3.46.21.47.24.53,1.7.63.58,1.89,1.21.6.3,1.12.92.99,1.66-.61.56-4.2-1.81-4.8-2.4-.81-.78-.98-1.66-1.44-2.4,1.69-.85,2.52-.03,3.36,1.44Z"/>
  <path class="st28" d="M332.1,144.96c.82.56.87.74,1.44,1.44.1,1.27,1.05,2.24,1.44,3.36-.7.54-1.85,1.03-1.1-.39l-.68-.18.34-.87-1.44.48c-.07-.2-.3-.36-.48-.48-.04-.15.05-.34,0-.48-.13-.38.1-.82-.47-1.19-.4-.26-1.83,1.11-.49-2.17.4.28,1.22.33,1.44.48Z"/>
  <path class="st16" d="M344.16,181.37l.65-2.32c.76.72,4.28,2.54,4.06,3.54l-1.59,1.22-3.12-2.44Z"/>
  <path class="st21" d="M208.74,149.76c0,.08.63.41.43,1.1-.17.61-.84.7-.91.82-1.21.6-2.58,2.08-3.84,2.4-.13.03-.31,0-.48,0,.64-1.75,2.84-4.28,4.8-4.32Z"/>
  <path class="st11" d="M216.9,140.16h.96c-.45,2.11.83,4.42,0,6.24-.29-.06-.65.04-.96,0-.32-.9-.9-1.17-.94-1.31-.16-.55.07-1.16-.02-1.57,1.35-.54.67-2.09.96-3.36Z"/>
  <path class="st26" d="M225.54,134.4c-.31.83-1.35,4.56-1.52,4.74-.21.23-.68,0-.88.06-.48.16-1.02.15-1.44.48l-.48-.48c.02-.32-.03-.64,0-.96h.48l.88-.06c.29-1.68,1.11-2.53,2-3.78.12-.16.34-.3.48-.48l.48.48Z"/>
  <path class="st23" d="M195.3,184.8c-.02,1.49.05,1.62.48,2.88.01.16-.02.32,0,.48l-2.06.11-.34.37c-.18-.44-.61-.8-.5-1.43l-.93.47c-.63-1.41.88-2.2.96-2.4h.96c0,.48,0,.96,0,1.44h.47s0-1.92,0-1.92h.96Z"/>
  <path class="st16" d="M201.06,181.92c-.02-.08-.45-.21-.38-.61.43-2.34,1.49-1.28,2.4-1.42,1.25-.19,2.77-1.41,3.73-.13-1.51.85-3.13,1.26-4.8,1.68-.31.08-.64.37-.96.48Z"/>
  <path class="st1" d="M210.66,161.76c.79.79.08,1.1.23,1.91l1.68-.47-1.43,2.88c.3-2.12-3.96-3.01-1.44-4.8.13.53.87.39.96.48Z"/>
  <path class="st28" d="M193.86,177.6l2.4,3.36-3.79-1,.18-1.91c.29-.47.86-.32,1.22-.45Z"/>
  <path class="st16" d="M228.41,133.92c-.45,1.79-1.26,3.28-1.87,5.11-.25.75.42,1.37-1.01,1.12-.65-.93,1.68-7.58,2.88-6.24Z"/>
  <path class="st27" d="M261.54,114.72v.48l-.97.24.96.72-1.71.45-.86-.88c-1.53.23-1.17,1.29-1.27,1.4h-.48c-.06-.64-3.15.49-1.92-.95.22-.26,5.39-1.89,6.24-1.45Z"/>
  <path class="st21" d="M208.74,159.84c-.51,1.79-2.27.08-2.81.54-.21.18,0,.81-.07.9-.06.08-1.57.49-1.92.48-.59-.61.95-2.48,1.92-2.4v-.96s2.88,1.44,2.88,1.44Z"/>
  <path class="st13" d="M219.3,148.32c.28,1.24-.31,1.33,1.44,2.16l-.96.71,1.2,1.44-2.44-.92-.21-3.39c.28.06.65-.04.96,0Z"/>
  <path class="st27" d="M238.5,129.12c.64.82,2.32.49,3.36.48v.48c-2.9-.19-4.6.7-7.2.96-.31-1.42,2.71-1.82,3.84-1.92Z"/>
  <path class="st13" d="M228.9,133.44c-.03-.48.01-.96,0-1.44,1.53.97,2.73.11,4.32,0-.43.82-3.66,3.29-4.32,1.92l.47-.24-.47-.24Z"/>
  <path class="st23" d="M234.18,139.2c.35.23,3.21-.12,3.36.96-1.8-.13-1.86-.32-2.16,1.45-2.07.13-2.03-1.38-2.15-1.45l.96-.96Z"/>
  <path class="st28" d="M353.22,189.6c.56,1.61-.64,2.51-.96,3.36l-1.92.48v-1.44s1.91,0,1.91,0l-.96-2.4h1.92Z"/>
  <path class="st16" d="M244.26,126.24c0,.09.78.78.48,1.44-.79-.18-1.6-.32-2.4-.48-5.5-1.08-8.48.24-12.96,3.36l-.48-.47c1.13.17,1.53-1.17,1.92-1.45.27-.19.66-.31.96-.48,3.99-2.23,8.06-2.02,12.48-1.92Z"/>
  <path class="st16" d="M348.9,176.64c-2.38-.13-3.66-2.25-4.32-4.32,1.41,1.18,3.39,2.75,4.32,4.32Z"/>
  <path class="st3" d="M219.78,136.32c.02.97.72,1.95.96,2.88-.88-.07-2-.06-2.88,0,.52-.51.3-1.52.48-1.92.24-.55.78-1.12,1.44-.96Z"/>
  <path class="st7" d="M205.86,159.36c-1.31-.19-.82-2.58.25-2.41,1.01.16,2.99,1.64,2.63,2.89l-2.88-1.44v.96Z"/>
  <path class="st16" d="M210.18,248.16v.48c-1.15-.85-2.16-.94-2.92-2.61-.57-1.26-.24-1.85-.44-2.67h.48c.03.75,2.27,4.49,2.88,4.8Z"/>
  <path class="st23" d="M314.82,123.36c.43.16,1.44,1.25,1.92,1.44l-.33.4c-1.39.67-2.68-.68-3.51-.88l-.1-.87-.86-.09v-.48c.74.14,2.46.33,2.88.48Z"/>
  <path class="st17" d="M201.06,182.88c.32,0,.64,0,.96,0-.03.17.05.37,0,.48-.14.33-1.28,1.16-1.69,2.4-.26.79-.29,1.58-.23,2.4-.02-.24-.68-2.04-.96-2.4.11-.72,1.25-1.79.96-2.88.27-.05.65,0,.96,0Z"/>
  <path class="st21" d="M192.9,173.76c-.06.36-.05,1.06,0,1.44.02.16-.04.34,0,.48h-.48c-.16.02-.33-.03-.48,0h-.48c-.48-.06-.44-.58-.48-.96-.05-.53-.04-1.06.09-1.58l.39-.34c.28.33,1.07.61,1.44.96Z"/>
  <path class="st7" d="M206.33,185.28c.12.11-.72,2.67-.91,3.16-.25.63.21.84-1,.68.26-.67-.49-2.02-.36-2.31.03-.07.55-.07.66-.26.21-.36.5-2.36,1.62-1.27Z"/>
  <path class="st17" d="M250.97,123.84l-1.42-.25.23,1.21-1.67-1.19c.9-2.28,2.39-2.12,2.86.23Z"/>
  <path class="st27" d="M216.9,160.8c.08,0,1.46.64,1.44.72-.64.68-1.66,2.8-2.4,3.12v-.96s-.48,0-.48,0v.96c-.32.01-.64,0-.96,0-.41-1.42.79-.79.96-.96.11-.11.92-1.56.96-1.92.04-.31-.02-.65,0-.96.16.01.32-.01.48,0Z"/>
  <path class="st8" d="M245.22,212.64c-1.11.04-1.56-.85-1.86-1.8-.21-1.33.85-1.42.9-1.56,1.11.78.66,2.49.96,3.36Z"/>
  <path class="st27" d="M329.7,200.16c-.07-1.1.11-2.27,0-3.36,4,.41.79,2.16,0,3.36Z"/>
  <path class="st28" d="M250.01,125.77v.95s-1.34-.4-1.34-.4l-.38.91c-2.04-.54-1.76-.57-1.15-2.43l2.87.97Z"/>
  <path class="st21" d="M221.22,255.84l-.48-1.44,2.86.75-.47,1.65c-.67-.02-1.27-.35-1.91-.48v-.48Z"/>
  <path class="st26" d="M253.85,117.6c.2,1.73-1.68,2.91-2.87,3.84-.06-1.31,1.45-3.65,2.87-3.84Z"/>
  <path class="st13" d="M208.26,151.68c-.85,1.41-.98,2.83-2.16,3.84l-1.68-1.44c1.26-.32,2.63-1.8,3.84-2.4Z"/>
  <path class="st27" d="M208.26,206.88c-.14-2.62,2.61-2.87,1.92,0-.62.08-1.34-.1-1.92,0,.03.52.51,1.19.48,1.63,0,.14-1.57,1.31-1.69,2.21-.47-.73-.22-1.99-.24-2.88.52-.94.59-.82,1.44-.96Z"/>
  <path class="st1" d="M204.9,207.36c.08-.18-.15-.61.06-.89l1.86-.07c.02.48-.01.96,0,1.44-.69,1.24-.1,2.33-1.92,1.92h-.48c.03-.16-.03-.33,0-.48h.48c.59-.08.4-.58.48-.96.03-.14,0-.33,0-.48l.48-.72-.24-.24-.24.48h-.48Z"/>
  <path class="st7" d="M202.5,171.84h-2.88s.48-1.92.48-1.92c.52.5,1.96-.26,2.4,1.92Z"/>
  <path class="st11" d="M221.7,135.36c.07.07-.06.33,0,.48.05.12-.03.31,0,.48-.42.59-.42,1.23-.48,1.92-.03.32.02.64,0,.96-.16,0-.32.01-.48,0-.24-.93-.94-1.91-.96-2.88,0-.15-.02-.33,0-.48l1.44-.48h.48Z"/>
  <polygon class="st27" points="348.41 195.84 346.02 195.84 347.46 192.96 348.41 195.84"/>
  <path class="st7" d="M233.22,140.16c-.74-.39-1.85.92-1.44-1.92,2.53-.71,2.27.87,2.4.96l-.96.96Z"/>
  <path class="st20" d="M355.14,185.28h-.96c-.18-.23.45-1.43.48-1.92.12-2.59-.39-4.27-.96-6.72l1.32,2.75c.18,1.95.18,3.94.11,5.89Z"/>
  <path class="st28" d="M199.62,154.56c.11.17-.1.87,0,.96.53.42,1.33-.46,1.44-.48.16-.02.32.02.48,0l.48.48-.5,1.44c-1.95-.58-2.46-.16-2.86-2.4v-.48c.32.07.79.22.96.48Z"/>
  <polygon class="st13" points="228.42 255.36 226.01 255.61 226.42 254.83 226.02 253.44 228.42 255.36"/>
  <path class="st13" d="M321.54,185.76v-.96c1.39-.36,1.98.78,2.4,1.91l-1.44.49c-.4-.51-.66-1.07-.96-1.44Z"/>
  <path class="st4" d="M217.86,146.4c1.79.34,1.15.62,1.44,1.92-.31-.04-.68.06-.96,0-2-.42-1.13-1.06-1.44-1.92.31.04.67-.06.96,0Z"/>
  <path class="st15" d="M238.98,257.28c-.1.07-.23.3-.48.48-.06.04.02-.21-.96.48-.16.12-.29.35-.48.48-.15-.17-.32-.32-.48-.48-.02-1.81-.47-2.42,1.66-1.41l.28-.66.46,1.11Z"/>
  <path class="st13" d="M219.77,244.32c.16.9-.91.22-1.34.56-.3.24-.08,1.45-.82,1.83l-1.15-.99.23-.94,3.08-.45Z"/>
  <path class="st1" d="M203.46,204.96c0,.08.41.3.43.72.07,2.48-1.97,2.32-1.87-.72h1.44Z"/>
  <path class="st26" d="M204.9,233.76c.26-1.63,1.94-2.73,3.36-3.36-.11,1.08-2.18,3.33-3.36,3.36Z"/>
  <path class="st3" d="M248.1,220.32l.48.48-.72,1.93-1.67-.49c-.19-.87.8-.3.95-.48.94-1.08-1.11-.68-.95-1.43h1.92Z"/>
  <path class="st1" d="M197.7,157.44l2.89.72-2.17,1.21c-.11-.02-.58-1.12-.72-1.45-.06-.13.05-.33,0-.48Z"/>
  <path class="st22" d="M197.22,156c.02.53.32.96.48,1.44.05.15-.06.35,0,.48h-1.92c.02-.16,0-.32,0-.48.03-.41-.03-.82-.48-.96.98-.38,1.03-.3,1.92-.48Z"/>
  <polygon class="st4" points="203.45 192.96 203.93 195.36 201.06 193.68 203.45 192.96"/>
  <polygon class="st17" points="352.26 181.44 352.25 182.88 351.37 182.51 351.06 183.36 349.86 180.96 352.26 181.44"/>
  <path class="st4" d="M244.74,124.8c-.06.12.05.33,0,.48l-7.2-.24,7.2-.24Z"/>
  <path class="st27" d="M216.9,140.16c-.29,1.27.39,2.82-.96,3.36-.03-.14-.46-.34-.48-.48-.27-2.14,1.03-1.91.96-2.88h.48Z"/>
  <path class="st27" d="M200.58,163.2c.09.53,1.04,2.3.96,2.39-.3.07-.74-.08-.96,0v-.96c-.57-.17-1.12.43-1.44.48-.16.02-.32,0-.48,0-.11-1.8,1.44-.56,1.92-1.92Z"/>
  <path class="st15" d="M247.14,127.2l-.24.97,1.19.22c-1.87,2.25-4.01-1.7-.95-1.19Z"/>
  <path class="st1" d="M206.82,243.36c-.04-.15-1.8-2.94.24-2.4,1.16.31.24,2.27.24,2.4h-.48Z"/>
  <path class="st18" d="M349.38,207.84c-.73,1.72-.83,3.13-1.92,4.8.04-.73,1.28-7.02,1.92-6.24v1.44Z"/>
  <polygon class="st11" points="219.77 140.64 220.73 140.64 220.73 142.56 218.82 142.56 219.77 140.64"/>
  <path class="st11" d="M223.62,142.08c.12.83-.15,1.8.4,2.66l-1.12,1.19.24-2.88-1.21.47c-.35-.36.36-.98.25-1.43h1.44Z"/>
  <polygon class="st18" points="234.18 255.84 229.38 256.32 229.38 255.36 234.18 255.84"/>
  <path class="st13" d="M218.82,164.16l.96-.48c.31.73-.87,3.16-1.43,2.88l-.49-.96c.26-.53.41-1.1.96-1.44Z"/>
  <path class="st26" d="M223.14,140.64c.08.34.36.65.48,1.44h-1.44c-.1-.41-.36-.19-.48-1.44h1.44Z"/>
  <path class="st13" d="M345.63,177.52c.46.36,2.1,0,1.83,1.52-1.43-.21-3.22-1.25-2.16-2.88.79.31.21,1.26.33,1.36Z"/>
  <path class="st17" d="M205.37,169.94c.56,2.87-2.15.53-2.87-.49l2.87.49Z"/>
  <path class="st11" d="M199.14,211.2c.14.36.78.63.48,1.44h-1.92c-.28-.97.48-1.77.48-1.92l.96.48Z"/>
  <path class="st18" d="M338.82,230.4c-.11.2-.36.32-.48.48l-.48-.48c.15-1-.22-2.48,0-3.36,1.11.75,1.01,2.19.96,3.36Z"/>
  <path class="st15" d="M299.46,113.76c.54.53,1.25.29.96,1.44l-1.65-.51-.74.99.29-1.92c.38-.01.77.03,1.15,0Z"/>
  <path class="st17" d="M241.38,132l-3.36-.23c.86-1.09,2.89-1.1,3.36.23Z"/>
  <path class="st28" d="M234.66,256.8c-1.67.16-3.68-.23-5.28,0v-.48l4.8-.48.48.96Z"/>
  <path class="st4" d="M343.14,165.12c-.63-1.02-.33-1.01-.48-1.92-.19-1.1-.25-2.26-.48-3.36l1.24,2.87-.28,2.41Z"/>
  <path class="st22" d="M192.9,175.2l2.88,1.68c-.38.5-1.33.52-1.92.72.21-.81-.89-1.66-.96-1.92-.04-.14.02-.32,0-.48Z"/>
  <path class="st4" d="M214.5,242.4h1.44s-.49.96-.49.96l1.92-.48v.48l-2.64,1.43c-.22-.1-.27-.25-.24-.47.01-.1.46-.14.38-.38l-.89-.35c-.03-.39.27-.89.51-1.19Z"/>
  <polygon class="st26" points="198.18 161.76 198.18 159.84 199.14 159.84 199.14 160.8 199.13 162.72 198.18 162.72 198.18 161.76"/>
  <path class="st23" d="M201.54,216.96c1.23-3.24,2.7.07,1.18.47-.36.09-.87-.4-1.18-.47Z"/>
  <path class="st4" d="M234.66,256.8v.48c-1.57-.14-4.21-.16-5.76,0,.04-.24.25-.45.48-.48,1.6-.23,3.61.16,5.28,0Z"/>
  <path class="st4" d="M201.06,217.92c-.05.17,1.01.79-.48,1.44l-.72.47-.73-1.19,1.2-1.2.73.48Z"/>
  <path class="st4" d="M353.22,189.6v-.95s.96,0,.96,0v1.44c-.73.98-.63,2.41-.96,3.36-.13.38-.68.79-.49,1.44h-.95c.48-.61.31-1.46.48-1.92.32-.85,1.52-1.75.96-3.36Z"/>
  <path class="st4" d="M196.74,205.92c0,.59.38,2.43-.48,2.4.11-1.88-.43-3.54.48-5.28,0,.96,0,1.92,0,2.88Z"/>
  <path class="st27" d="M264.41,121.44v.96s-2.88,0-2.88,0c.37-1.22,1.82-.98,2.88-.95Z"/>
  <path class="st18" d="M311.46,122.4c1.42-.32,2.34.56,3.36.96-.42-.15-2.14-.34-2.88-.48-.43-.08-.98.06-1.44,0v-.47s.96,0,.96,0Z"/>
  <path class="st13" d="M210.18,248.16c.19.1.86-.2,1.32.11.35.23.83,1.74,1.55,2.06l-2.78-.83c-.25-.2-.04-.81-.09-.85v-.48Z"/>
  <path class="st1" d="M239.45,253.44c-.32.98-2.52.84-3.36.95.46-1.35,2.18-.93,3.36-.95Z"/>
  <path class="st27" d="M311.94,123.36l.86.09.1.87c-.55-.13-2.24.16-2.4,0v-.96s1.44,0,1.44,0Z"/>
  <path class="st1" d="M330.65,173.28c-.36,1.02,1.43,3.26-.47,2.89.36-1.02-1.43-3.26.47-2.89Z"/>
  <path class="st27" d="M195.78,187.68c-.43-1.26-.5-1.39-.48-2.88,0-.64-.01-1.28,0-1.92h.47c.09,1.59-.11,3.22,0,4.8Z"/>
  <path class="st26" d="M214.02,241.44l-.48,1.92c-.07-.07-1.56.28-.96-1.2.25-.61,1.32-.6,1.44-.72Z"/>
  <polygon class="st13" points="353.69 184.8 354.17 187.2 353.22 187.2 352.74 184.8 353.69 184.8"/>
  <path class="st4" d="M199.14,202.08l1.16-.46.77,1.42h-1.44c-.45-.21-.37-.6-.48-.96Z"/>
  <path class="st23" d="M202.02,204.96c.01-.37.37-1.85.72-1.92h.71c.06.63-.07,1.3,0,1.92h-1.44Z"/>
  <polygon class="st1" points="209.69 211.68 209.21 213.6 206.82 212.16 209.69 211.68"/>
  <path class="st13" d="M328.26,138.72c-.17.43-.63.82-.49,1.44l-.95-.74c-.31-1.24.89-1.5.95-1.66l.48.96Z"/>
  <path class="st13" d="M300.9,118.56c1.21.82,2.33,1.58,3.35,2.64l-1.43.72c.25-1.48-.77-1.57-1.47-2.29-.26-.27-.32-.97-.45-1.07Z"/>
  <polygon class="st13" points="338.81 210.25 338.81 210.71 336.42 211.2 336.42 210.49 337.2 209.82 338.81 210.25"/>
  <path class="st17" d="M342.18,163.2c-.93-.28-1.29-2.36-1.44-3.36-.03-.2.19-.57.48-.48l.96,3.84Z"/>
  <path class="st1" d="M214.02,241.44c.1-.11-.21-.83.23-.97,2.49,1.18.91,1.08.25,1.93-.24.3-.54.8-.51,1.19l.89.35c.08.24-.37.28-.38.38-1.21.36-.86-.87-.96-.96l.48-1.92Z"/>
  <path class="st13" d="M202.5,185.76c-.08-.59-.75-.8.48-1.92.44-.02,1.28-.65,1.69-.95l.23.23-2.39,2.64Z"/>
  <path class="st3" d="M250.5,226.56c-1.15-.6-1.79.7-2.16-.97l-.72.96-.25-2.39c1.26.53,1.66,2.48,2.64,1.43l.48.25c.09.22-.08.53,0,.71Z"/>
  <path class="st15" d="M205.37,168.97c-.07.82-2.57-.03-2.97-.15-.5-.15-1.45-.11-1.34-.81l4.31.96Z"/>
  <path class="st20" d="M236.58,259.2c-.29.12-.56.33-.96.48.05,0,.88-.43.96-.48Z"/>
  <path class="st20" d="M238.5,258.24c-.67.33-1.08.6-1.92.96.15-.09.29-.35.48-.48s.32-.36.48-.48h.96Z"/>
  <path class="st20" d="M240.42,256.32v.96c-.44.82-1.36.69-1.92.96v-.48c.25-.18.38-.41.48-.48.62-.46.96-.63,1.44-.96Z"/>
  <path class="st20" d="M202.5,200.16h.48c-.53.65-.92.89-.96.96l-.96.48c-.32-.72.45-1.25.48-1.44h.96Z"/>
  <path class="st3" d="M199.14,165.12c.32-.04.87-.65,1.44-.48v.96c-.35.14-.66.76-1.43.48v-.96Z"/>
  <path class="st27" d="M353.22,178.56l.96,3.36h-.96c-.03-1.11.02-2.24,0-3.36Z"/>
  <path class="st1" d="M200.1,167.04c.72-.04,1.99-.72,2.88.24l-2.88.24v-.48Z"/>
  <path class="st27" d="M349.38,178.08l1.44,1.44c-.09.1.08.68,0,.95h-.94c-.52-.66-.45-2.24-.49-2.39Z"/>
  <rect class="st15" x="290.82" y="117.12" width="1.92" height=".96"/>
  <polygon class="st16" points="197.18 197.73 195.78 197.76 195.78 197.05 197.46 195.85 197.18 197.73"/>
  <rect class="st1" x="238.98" y="134.88" width="1.92" height=".96"/>
  <path class="st11" d="M223.14,139.2c.06.45-.09,1.03,0,1.44h-1.44c-.03-.32.02-.64,0-.96.42-.33.96-.32,1.44-.48Z"/>
  <path class="st13" d="M205.85,202.08c.16.87-.53,1.59-1.44,1.44l-.47-1.68,1.91.25Z"/>
  <path class="st1" d="M333.54,155.52c.35.59.57,1.21.48,1.92-1.07-.28-.99-1.47-.96-2.4.17.14.37.29.48.48Z"/>
  <polygon class="st13" points="205.86 161.28 207.29 161.28 207.29 162.72 206.34 162.72 205.86 161.28"/>
  <path class="st13" d="M206.34,200.16c-.26.95-1.02,1.08-1.92.95l.48-1.44,1.44.48Z"/>
  <path class="st3" d="M249.54,224.16c-1.26-.44-.83-1.46-.96-2.4,1.02.55.76,1.57.96,2.4Z"/>
  <path class="st27" d="M216.41,212.64c.16.87-.53,1.59-1.44,1.44-.16-.87.53-1.59,1.44-1.44Z"/>
  <path class="st27" d="M199.14,211.2l-.96-.48c-.02-1.51-.83-3.15-.48-4.8.13.07.39-.07.43.27-.17,1.96.32,3.28,1.01,5.01Z"/>
  <path class="st26" d="M213.54,142.56l-1.47,2.11c-2.24,1.34-4.18,3.11-6.21,4.61-.21.37-.1.88-.67,1.47-.99,1.04-2.5.63-2.69,2.37-.09-.1-.69.08-.96,0,.27-1.09,2.39-2.9,3.38-3.58.32-.22.81-.16.94-.26,2.2-3.78,3.97-4.52,7.68-6.72Z"/>
  <path class="st20" d="M350.82,201.12c-.1.31-.56,1.45-.72,1.44-.56-.13-.07-1.18-.24-1.44l1.2-2.88c.63.01-.07,2.37-.24,2.88Z"/>
  <path class="st13" d="M216.9,160.8c-.15-.88.53-1.59,1.44-1.44.15.91-.56,1.59-1.44,1.44Z"/>
  <path class="st13" d="M219.78,157.92c-.26.95-1.02,1.08-1.92.95v-.96s1.92,0,1.92,0Z"/>
  <polygon class="st1" points="208.73 181.45 208.73 181.92 206.82 181.92 206.82 180.96 208.73 181.45"/>
  <path class="st18" d="M201.06,155.04c-.1.02-.91.89-1.44.48-.1-.08.11-.78,0-.96l1.44.48Z"/>
  <polygon class="st15" points="319.13 158.4 319.6 159.6 318.66 160.32 318.18 158.4 319.13 158.4"/>
  <path class="st1" d="M202.98,176.16c-.26.95-1.02,1.08-1.92.95.26-.95,1.02-1.08,1.92-.95Z"/>
  <path class="st4" d="M225.54,134.4l-.48-.48c.36-.44.62-.98.96-1.44h.48c-.31,1.11-.79,1.45-.96,1.92Z"/>
  <polygon class="st1" points="205.37 192.96 205.37 194.88 204.9 194.88 204.42 192.96 205.37 192.96"/>
  <polygon class="st13" points="202.97 212.16 202.97 212.63 201.06 213.12 201.06 212.16 202.97 212.16"/>
  <path class="st4" d="M194.34,184.8v1.92s-.48,0-.48,0c-.01-.48,0-.96,0-1.44s0-.96,0-1.44h.47s0,.96,0,.96Z"/>
  <polygon class="st13" points="234.65 142.08 234.17 144 233.7 144 233.7 142.08 234.65 142.08"/>
  <polygon class="st28" points="325.37 174.24 324.89 176.16 324.42 176.16 324.42 174.24 325.37 174.24"/>
  <path class="st17" d="M218.82,164.16c-.55.34-.7.91-.96,1.44-.12.24-.74,2.57-.97.71l1.45-3.11.47.96Z"/>
  <path class="st15" d="M205.38,207.36c0,.16,0,.32,0,.48,0,.15.03.34,0,.48l-.48.96h-.48c.18-.84.06-.93.48-1.92h.48Z"/>
  <polygon class="st15" points="313.37 159.84 312.42 159.84 312.42 157.92 312.89 157.92 313.37 159.84"/>
  <polygon class="st20" points="197.69 182.88 197.21 184.8 196.74 184.8 196.74 182.88 197.69 182.88"/>
  <path class="st17" d="M257.22,117.12h.48c-.44.49-.96,1-1.68.96l-.24-.24,1.44-.72Z"/>
  <path class="st17" d="M300.9,118.56c-.35-.26-1.83-.38-2.4-.48v-.95s.71,0,.71,0c.58.41,1.12,1.05,1.69,1.43Z"/>
  <polygon class="st23" points="232.26 141.12 231.77 142.56 230.82 142.56 231.3 141.12 232.26 141.12"/>
  <path class="st27" d="M217.86,139.2c-.16.01-.33-.02-.48,0,.16-.64.33-1.28.48-1.92h.48c-.18.4.04,1.41-.48,1.92Z"/>
  <path class="st27" d="M190.98,170.4c.37,1.32.82,2.74,2.4,2.4.21.59-.47.9-.48.96-.37-.35-1.16-.63-1.44-.96-.11-.13-.93-1.36-.96-1.44-.03-.1-.02-.38,0-.48.04-.15.34-.34.48-.48Z"/>
  <polygon class="st15" points="229.85 137.76 229.85 138.47 228.9 139.2 228.9 137.76 229.85 137.76"/>
  <polygon class="st1" points="340.73 216.96 340.73 217.92 339.3 217.92 340.02 216.96 340.73 216.96"/>
  <path class="st23" d="M202.5,200.16l.24-.96h1.2c.04.58-.73.69-.96.96h-.48Z"/>
  <path class="st22" d="M202.02,182.88c-.32,0-.64,0-.96,0-.04-.31.06-.69,0-.96.32-.11.65-.4.96-.48-.05.47.07.99,0,1.44Z"/>
  <polygon class="st15" points="328.26 211.68 327.3 211.68 327.3 209.76 327.77 209.76 328.26 211.68"/>
  <path class="st17" d="M198.18,193.92c-.97.27-1.92-1.71-2.23-2.33s-.87-1.08-.65-1.99l2.88,4.31Z"/>
  <path class="st4" d="M293.22,151.2c.5.39,1.49.5,1.92,1.2l-.96.24c-.38-.46-.82-.81-.96-1.44Z"/>
  <polygon class="st17" points="257.22 123.36 257.15 124.75 256.01 125.27 256.26 123.36 257.22 123.36"/>
  <path class="st4" d="M245.7,123.84c-.15.15-.36.32-.48.48h-1.92s0-.48,0-.48h2.4Z"/>
  <polygon class="st28" points="218.34 251.04 218.33 252 217.64 251.98 215.94 251.03 215.94 250.56 218.34 251.04"/>
  <polygon class="st15" points="227.93 252.96 228.17 252 229.85 253.2 227.93 252.96"/>
  <rect class="st27" x="200.58" y="210.72" width=".96" height=".96"/>
  <path class="st1" d="M192.9,182.4h-.96s0-.72,0-.72l.48-.24c.3.4.36.4.48.96Z"/>
  <path class="st1" d="M192.9,182.88c.02.15,0,.32,0,.48l-.49.96h-.47s0-1.19,0-1.19l.96-.24Z"/>
  <polygon class="st1" points="255.29 120.96 255.29 121.92 254.09 122.39 254.34 120.96 255.29 120.96"/>
  <polygon class="st15" points="221.21 146.88 221.21 147.84 219.78 147.35 219.78 146.88 221.21 146.88"/>
  <path class="st15" d="M204.9,209.76l-.24.97h-.72c-.21-.59.47-.91.48-.97h.48Z"/>
  <path class="st4" d="M326.34,135.84c-1.07-.88-.94-1.55-1.44-2.4.96.41,1.32,1.43,1.44,2.4Z"/>
  <path class="st18" d="M209.7,161.28c.11-.08.08-.43.24-.48h.72s0,.96,0,.96c-.09-.09-.83.05-.96-.48Z"/>
  <path class="st13" d="M214.5,150.72c.04-.31-.03-.64,0-.96h.96s0,.95,0,.95c-.31.03-.65-.04-.96,0-.04.31.03.64,0,.96h-.96s0-.95,0-.95c.31-.03.65.04.96,0Z"/>
  <path class="st1" d="M242.82,129.6c-.06.05.14.67-.08.9-.5.35-.81-.41-.88-.42v-.48c.32,0,.64,0,.96,0Z"/>
  <path class="st27" d="M246.65,219.36c-.99-.32-.84-2.51-.95-3.36.92.32.67,2.54.95,3.36Z"/>
  <rect class="st1" x="261.06" y="118.56" width="1.44" height=".47"/>
  <path class="st23" d="M338.34,224.64l-.24,1.44c-.4,0-.29-1.05-.24-1.44h.48Z"/>
  <path class="st12" d="M288.42,147.36l-.24,1.44-.24-1.44c.14-.03.32,0,.48,0Z"/>
  <path class="st4" d="M319.62,125.76c-.13-.06-.35.06-.48,0-.96-.47-1.5-.61-2.4-.96-.48-.19-1.49-1.28-1.92-1.44,2.04.8,3.02,1.14,4.8,2.4Z"/>
  <polygon class="st17" points="217.85 247.2 218.1 248.63 216.9 247.44 217.85 247.2"/>
  <path class="st27" d="M328.74,137.76c.11.66-.42.8-.48.96l-.48-.96c.06-.13.05-1.22,0-1.44.17.41.93,1.24.96,1.44Z"/>
  <path class="st13" d="M216.42,161.76h-.96s.96-.96.96-.96c-.02.31.04.65,0,.96Z"/>
  <path class="st17" d="M195.78,187.68c.19.56,1.01,1.31.97,2.15l-.48.24c-.07-.66-.41-1.26-.49-1.92-.02-.16.01-.32,0-.48Z"/>
  <path class="st4" d="M226.02,258.24c.32.18.62.72.96.96-1.05-.19-1.73-1.1-2.88-.96.12.01.48-.82,1.92,0Z"/>
  <path class="st27" d="M213.54,148.32c-.75.69-1.53,1.38-2.4,1.92.53-1.33,1.39-1.42,2.4-1.92Z"/>
  <path class="st27" d="M329.7,196.32l-.48-.96c.25.38.37.36.48.96Z"/>
  <polygon class="st1" points="206.34 204 206.81 204 206.81 204.71 206.09 205.43 206.34 204"/>
  <path class="st1" d="M204.15,215.31c.2.2.47.28.75.22l-.71.47-.72-1.43h.47c-.06.28.02.55.22.75Z"/>
  <path class="st23" d="M268.26,115.68c-.61-.31-.43-.93-.48-.96l.48.96Z"/>
  <polygon class="st1" points="260.57 119.04 260.57 119.52 259.15 119.76 259.86 119.04 260.57 119.04"/>
  <path class="st1" d="M215.94,164.64c-.1.04-.31,0-.48,0v-.96h.48s0,.96,0,.96Z"/>
  <path class="st3" d="M226.98,131.52v.48h-.48c.05-.3-.04-.65,0-.96.4-.12.4.45.47.48Z"/>
  <path class="st4" d="M227.94,131.52c-.2.06-.54.55-.96.48v-.48c.22.09.67-.06.96,0Z"/>
  <path class="st18" d="M327.78,136.32c-.03-.12-.41-.29-.48-.48-.25-.68-.68-1.81-.96-2.4.79,1.24.9,1.58,1.44,2.88Z"/>
  <rect class="st28" x="221.22" y="144.96" width=".47" height=".96"/>
  <path class="st3" d="M246.42,223.68c.31.16.31.32,0,.48v-.48Z"/>
  <path class="st1" d="M272.34,118.56c.31.16.31.32,0,.48v-.48Z"/>
  <path class="st1" d="M271.38,118.08c.31.16.31.32,0,.48v-.48Z"/>
  <path class="st17" d="M255.06,118.08c.31.16.31.32,0,.48v-.48Z"/>
  <rect class="st1" x="303.86" y="116.51" width=".32" height="1.69" transform="translate(6.06 249.35) rotate(-45)"/>
  <path class="st1" d="M302.58,116.16c.31.16.31.32,0,.48v-.48Z"/>
  <path class="st15" d="M300.18,115.68c.31.16.31.32,0,.48v-.48Z"/>
  <path class="st10" d="M239.7,196.8c.31.16.31.32,0,.48v-.48Z"/>
  <path class="st28" d="M220.02,144.96c.31.16.31.32,0,.48v-.48Z"/>
  <polygon class="st13" points="217.38 243.36 217.38 242.88 217.85 243.12 217.38 243.36"/>
  <path class="st6" d="M203.22,155.52c.31.16.31.32,0,.48v-.48Z"/>
  <path class="st15" d="M230.1,136.8c.31.16.31.32,0,.48v-.48Z"/>
  <path class="st18" d="M202.02,155.52l-.48-.48.48.48Z"/>
  <path class="st16" d="M228.9,133.92c-.04-.09.01-.31,0-.48l.47.24-.47.24Z"/>
  <path class="st27" d="M324.9,132.96c-.97-.37-1.33-1.25-1.92-1.92.84.44,1.46,1.09,1.92,1.92Z"/>
  <path class="st28" d="M196.5,179.04c.31.16.31.32,0,.48v-.48Z"/>
  <path class="st17" d="M202.98,190.56c-.06.3-.36.35-.48.48l-.47-.72.95.24Z"/>
  <polygon class="st4" points="346.98 168.48 346.97 169.44 345.54 168.95 345.54 168.48 346.98 168.48"/>
  <path class="st27" d="M350.33,174.24c-.19.23-1.27-.84-.95-1.44.19-.23,1.27.84.95,1.44Z"/>
  <polygon class="st4" points="352.26 174.24 351.3 174.24 351.3 173.28 352.26 174.24"/>
  <polygon class="st4" points="353.21 176.16 352.74 176.16 352.49 174.73 353.21 175.45 353.21 176.16"/>
  <rect class="st27" x="347.46" y="171.36" width=".96" height=".47"/>
  <path class="st4" d="M347.7,169.44c.31.16.31.32,0,.48v-.48Z"/>
  <path class="st4" d="M348.66,170.4c.31.16.31.32,0,.48v-.48Z"/>
  <polygon class="st4" points="195.77 216.96 195.77 217.43 194.09 218.39 193.87 218.16 195.06 216.96 195.77 216.96"/>
  <path class="st4" d="M193.62,218.88c.31.16.31.32,0,.48v-.48Z"/>
  <path class="st4" d="M341.22,156.96l.95,2.17-.95-.25c-1.52-1-1.6-2.89-3.36-3.6l.24-.71,3.12,2.4Z"/>
  <path class="st28" d="M335.46,152.16c-.17.84.54,1.72-.96,1.44l-.48-2.4,1.44.96Z"/>
  <path class="st4" d="M335.46,152.16c.08-.09-.36-2.05-.48-2.4-.39-1.12-1.34-2.09-1.44-3.36.94,1.15,1.92,2.81,2.22,4.33.23,1.13-.24,1.09-.3,1.43Z"/>
  <path class="st4" d="M234.66,258.72c-1.73.74-4.27.61-6.24.48.04.06-.16.41.31.49,2.17-.21,4.8.29,6.89,0-2.72,1.04-3.67,1.29-6.75.73-.8-.15-1.68-.05-1.41-1.21.31.04.64-.02.96,0-.17-.25-.59-.78-.25-.95l6.49.47Z"/>
  <path class="st20" d="M321.54,126.72l-.24.47c-.58-.43-1.1-1.02-1.68-1.43.71.33,1.21.4,1.92.96Z"/>
  <path class="st15" d="M202.02,238.56l-.96.96c-.47-.07-.83-.46-.96-.48l1.2-1.43c.37.14.55.85.72.95Z"/>
  <path class="st5" d="M202.02,238.56c.58.34,1.25.46,1.92.49v.47s-.96,0-.96,0c-.62-.06-1.34.09-1.92,0l.96-.96Z"/>
  <path class="st4" d="M326.34,133.44c-.81-1.28-1.57-1.8-2.4-3.36,1.71.71,1.78,2.07,2.4,3.36Z"/>
  <path class="st4" d="M332.1,144.96c-.22-.15-1.04-.2-1.44-.48l.71-.48.73.96Z"/>
  <path class="st0" d="M298.5,215.04c-4.02-.02-7.62-1.8-11.62-.34l-3.25,1.3c4.04,1.21,9.32,1.59,13.33.14.62-.22,1.41-.29,1.55-1.09,1.15.22,4.22-.8,3.84.96-2.23-.26-3.63,2.37-5.28,3.84.41-.25,1.72-2.63,1.69-3.35-4.99,2-10.49,1.76-15.6.47-1,1.04,3.02,3.24,3.82,3.62,1.92.91,3.22,1.42,5.42,1.07.43-.07,4.35-1.61,4.68-1.81-.39.35-.52.89-1.26,1.36-6.33,4.03-11.85-.64-15.54-5.68,3.42,0,7.12-2.14,10.4-2.22,2.99-.07,5.31,1.26,7.84,1.74Z"/>
  <path class="st25" d="M273.53,183.36l-2.88,4.56-1.2-1.68c-.87.46-1.03,3.27-2.41,3.83-1.92.78,1.37-3.15.72-3.83l-4.32,1.92,1.92-2.63c0-.32-2.45-.93-1.92-2.16,1.14-.03,1.52,1.05,2.6,1.47,1.38.55,3.21.68,4.62.23,1.16-.37,1.59-1.76,2.85-1.7Z"/>
  <path class="st25" d="M310.97,180l-.51,1.65.99,1.22-3.36-.48,1.92,2.87c-.88.15-1.32-.15-1.96-.68-.75-.63-.6-1.86-1.63-1.72-.51.13-.64,2.83-2.16,2.4l.46-2.86-2.86-1.23c-.16-1.59,1.78.09,2.66.22s2.4.15,3.31,0c1.43-.23,1.85-1.31,3.14-1.41Z"/>
  <path class="st25" d="M286.98,202.08l1.9-2.15-2.86-4.56c.69-.69,3.87,3.65,3.85,4.58s-1.97,2.11-2.89,2.14Z"/>
  <path class="st14" d="M247.14,191.04c-.33,1.41-.69,2.33-.96,3.36-1.01-.98-.76-3.51.96-3.36Z"/>
  <path class="st22" d="M189.54,161.76c-.31.96-.72,1.9-.96,2.88-.56,2.35-.66,2.31,0,4.8.1.38-.08.99,0,1.44h.96s.24-.97.24-.97l.72.97c-.02.1-.03.38,0,.48l-.96.96h.96s0-.96,0-.96c.03.08.85,1.31.96,1.44l-.39.34c-.13.52-.14,1.05-.09,1.58-1.48-.17-3.2-2.98-3.72-4.2-.85-2.03-.2-3.64-1.08-5.4v-.48c.24-.29.89-.47.91-.52.1-.24-.64-1.03-.33-1.79.09-.22,3.25-2.61,3.74-2.98-.87.71-.71,1.63-.96,2.4Z"/>
  <path class="st22" d="M194.82,157.92c-.78.6-1.69,1.31-1.44,2.4l-2.4-1.44c1.15-.79,2.08-1.36,3.36-1.92l.48.96Z"/>
  <path class="st15" d="M186.18,165.12v4.32s-.51-3.65-.51-3.65c-.12-.65.21-.8.51-1.15v.48Z"/>
  <path class="st5" d="M195.78,157.44c-.29.19-.71.28-.96.48l-.48-.96c.33-.14.63-.35.96-.48.45.14.51.55.48.96Z"/>
  <path class="st5" d="M191.46,175.68h.48c-.08.01-.13.4-.26.4l-.22-.4Z"/>
  <path class="st13" d="M238.98,121.92v.48c-3.01-.01-6.68.98-9.28,2.48-3.04,1.75-9.41,7.52-9.92,10.96-.02.15,0,.33,0,.48-.66-.16-1.2.41-1.44.96h-.48c1.7-7.11,12.05-15.84,19.48-15.89.91,0,1.56.53,1.64.53Z"/>
  <path class="st3" d="M238.98,122.4l-.03.91c-2.21.33-4.23.98-6.21,1.97-1.21-.25-1.66.52-2.4.96-.13.08-.72-.17-.89.05l-.07,1.87c-1.69-1.05-1.29.08-1.92.48-.56.36-1.65.26-1.92,1.44-.8.23-1.09.24-1.92,0-.06.63.07,1.3,0,1.92.22-.12.95.04,1.21-.49l1.19.97c-.34.46-.6,1-.96,1.44-.14.18-.36.32-.48.48v-1.44c-.31.03-.71-.07-.96,0,.02-.32-.04-.65,0-.96-.81.46-1.31,1.22-1.45,2.15l.48.24c.05-.63.29-1.25.97-1.44-.02.36-.33.79-.33,1.21l.33.23c-.12.13-.11.62-.48.96-.15.14-.43.46-.48.48-.24.08-.66-.05-.96,0-.06-.15.07-.41,0-.48l-.24-.47-.24.47-1.44.48c.51-3.44,6.89-9.21,9.92-10.96,2.6-1.5,6.27-2.5,9.28-2.48Z"/>
  <path class="st18" d="M246.18,121.92l-.24.48c-.78-.05-1.65.11-2.41.01-.95-.12-.67-.48-.71-.49h3.36Z"/>
  <path class="st27" d="M227.46,128.64c-.4,1.04-.97,1.17-1.92,1.44.27-1.18,1.36-1.08,1.92-1.44Z"/>
  <path class="st3" d="M230.82,128.64l-.48-1.92h.47s.97,1.44.97,1.44c-.3.17-.69.29-.96.48Z"/>
  <rect class="st4" x="241.38" y="123.36" width="1.44" height=".47"/>
  <path class="st27" d="M232.74,125.28c-.77.38-1.38.97-2.4.96.74-.44,1.19-1.21,2.4-.96Z"/>
  <path class="st14" d="M246.66,188.16c0,.58.15,2.1-.05,2.37-.15.19-.76-.05-.91.03.08-.43-.12-1.1,0-1.44.08-.25.75-.67.96-.96Z"/>
  <path class="st1" d="M246.18,121.92h-3.36c.42-.96,2.2-.32,3.12-.48l.24.48Z"/>
  <path class="st17" d="M188.58,169.44c-.66-2.49-.56-2.45,0-4.8-.31,1.24.21,3.41,0,4.8Z"/>
  <path class="st27" d="M190.01,165.6h-.47c-.09-.84.34-1.59.48-2.39h.47s-.48,2.39-.48,2.39Z"/>
  <path class="st27" d="M188.58,164.64c.24-.98.65-1.92.96-2.88,1.3.56-.85,2.44-.96,2.88Z"/>
  <path class="st28" d="M194.34,166.08c.2,1.72-.79,2.77-.96,3.84l-.96-.96c.3-1.32.5-2.24,1.44-3.36-.11.45.48.45.48.48Z"/>
  <polygon class="st28" points="194.34 207.84 193.86 207.6 193.86 204.48 194.33 204.48 194.34 207.84"/>
  <rect class="st15" x="194.82" y="169.44" width=".47" height="2.4"/>
  <path class="st15" d="M200.1,188.16c.01.15.01.33,0,.48,0,.11-.72.86-.49,1.44h-.47c.13-1.36-.2-3.01,0-4.32.28.36.94,2.16.96,2.4Z"/>
  <path class="st13" d="M202.5,186.24v.48s.08.36-.24.48h-.71s0-.71,0-.71l.96-.24Z"/>
  <path class="st15" d="M241.86,129.6c-1.04.01-2.72.34-3.36-.48.94-.08,2.86-.3,3.36.48Z"/>
  <path class="st5" d="M332.1,148.8l-.48-.48c.18.12.41.28.48.48Z"/>
  <path class="st21" d="M224.58,134.4c-.89,1.25-1.71,2.1-2,3.78l-.88.06c.62-.95.1-1.39,0-1.92-.03-.17.05-.36,0-.48.3-.05.72.08.96,0l.48-.48c.37-.34.36-.83.48-.96.16-.19.71-.3.96-.48v.48Z"/>
  <path class="st27" d="M221.7,138.24h-.48c.06-.69.06-1.33.48-1.92.1.53.62.97,0,1.92Z"/>
  <path class="st5" d="M205.38,207.84c0-.16,0-.32,0-.48l.24-.48.24.24-.48.72Z"/>
  <path class="st5" d="M204.9,209.28l.48-.96c-.08.38.11.88-.48.96Z"/>
  <polygon class="st27" points="221.7 135.36 221.22 135.36 221.46 134.89 221.7 135.36"/>
  <path class="st9" d="M297.06,219.84c-.33.2-4.25,1.74-4.68,1.81-2.2.35-3.5-.16-5.42-1.07-.8-.38-4.81-2.57-3.82-3.62,5.11,1.28,10.61,1.53,15.6-.47.03.72-1.27,3.09-1.69,3.35Z"/>
  <path class="st9" d="M298.5,215.04c-.13.81-.93.87-1.55,1.09-4.01,1.45-9.29,1.07-13.33-.14l3.25-1.3c4-1.45,7.6.32,11.62.34Z"/>
  <polygon class="st21" points="190.5 171.36 190.49 172.32 189.54 172.32 190.5 171.36"/>
  <path class="st11" d="M223.62,132.96c.25-.07.65.03.96,0v.96c-.25.18-.8.29-.96.48l-.33-.23c0-.41.31-.84.33-1.21Z"/>
  <path class="st27" d="M223.62,132.96c-.67.18-.91.81-.97,1.44l-.48-.24c.14-.94.63-1.69,1.45-2.15-.04.31.02.64,0,.96Z"/>
  <path class="st11" d="M222.66,135.84c.05-.02.33-.34.48-.48l-.48.48Z"/>
</svg>