<?xml version="1.0" encoding="UTF-8"?>
<svg id="Layer_13_xA0_Image" xmlns="http://www.w3.org/2000/svg" version="1.1" viewBox="0 0 612 792">
  <!-- Generator: Adobe Illustrator 29.2.1, SVG Export Plug-In . SVG Version: 2.1.0 Build 116)  -->
  <defs>
    <style>
      .st0 {
        fill: #8cc9ba;
      }

      .st1 {
        fill: #e2f1ed;
      }

      .st2 {
        fill: #25967a;
      }

      .st3 {
        fill: #9cd0c3;
      }

      .st4 {
        fill: #ecf6f3;
      }

      .st5 {
        fill: #fff;
      }

      .st6 {
        fill: #e1f1ed;
      }

      .st7 {
        fill: #3fa48b;
      }

      .st8 {
        fill: #f4faf8;
      }

      .st9 {
        fill: #c1e2d9;
      }

      .st10 {
        fill: #93ccbe;
      }

      .st11 {
        fill: #179173;
      }

      .st12 {
        fill: #deefeb;
      }

      .st13 {
        fill: #e4f2ef;
      }

      .st14 {
        fill: #e9f5f2;
      }

      .st15 {
        fill: #f5faf9;
      }

      .st16 {
        fill: #a1d3c6;
      }

      .st17 {
        fill: #c4e3dc;
      }

      .st18 {
        fill: #149071;
      }
    </style>
  </defs>
  <path class="st5" d="M306.24,792H0V0h612v792h-297.6c-.76-5.99-3.84-11.95-4.34-17.98-1.08-13.06,3.06-29.28,2.48-42.68l26.83-121.97-.04-2.15c-2.07.64-2.34-1.6-3.16-1.89-2.81-.98-3.13,4.74-3.93,6.52-1.18,2.63-3.89,5.55-5.14,8.3l-8.38,17.77c-.13-7.48,2.72-14.32,5.53-21.1,1.15-2.77,6.84-13.45,6.96-15.13.03-.4,0-.81-.01-1.2-.84-.05-1.46-.14-2.16.47-.46.41-3.59,7.1-4.16,8.32-1.51,3.22-2.56,7.21-4.71,9.92.04-1.67-.09-3.36,0-5.03.29-5.72,1.24-11.55,1.45-17.26.04-1.03.45-5.4-1.21-5.06l-1.19,1.69c-1.09,11.24-.66,23.37-1.99,34.5-.59,4.99-3.83,12.57-5.19,17.85-9.03,35.02-13.14,71.35-11.58,107.5.18,4.06,1.25,8.41.99,12.48-.35,5.7-4.3,15.77-3.9,20.62.15,1.86,1.21,2.38,2.07.59l3.24-11.87c1.02,2.52.87,8.1,2.01,10.24.56,1.05,1.71.55,1.87,1.09l-.51,5.47ZM339.31,583.14c.34-1.36.44-2.79.92-4.12,5.64-15.89,14.61-31.74,20.51-47.66.9-1.79-.87-3.56-2.07-1.58l-16.91,39.97c-.9.1-.39-1.01-.34-1.54.1-1.01,1.17-5.6-.85-5.18l-1.11,1.3-2.02,18.86,1.86-.06ZM354.58,583.25c-.92.24-4.12,3.57-1.96,4.23,1.67.51,2.98-1.59,3.98-2.67l-.93-1.39c-.34-.25-.69-.28-1.1-.17Z"/>
  <path class="st18" d="M306.24,792l.51-5.47c-.16-.54-1.31-.04-1.87-1.09-1.14-2.14-.99-7.71-2.01-10.24l-3.24,11.87c-.87,1.79-1.92,1.27-2.07-.59-.4-4.86,3.54-14.92,3.9-20.62.25-4.07-.82-8.42-.99-12.48-1.56-36.15,2.54-72.48,11.58-107.5,1.36-5.28,4.6-12.86,5.19-17.85,1.32-11.12.9-23.26,1.99-34.5l1.19-1.69c1.66-.34,1.25,4.03,1.21,5.06-.22,5.72-1.16,11.54-1.45,17.26-.09,1.67.04,3.36,0,5.03,2.15-2.72,3.2-6.7,4.71-9.92.57-1.22,3.7-7.91,4.16-8.32.7-.61,1.32-.53,2.16-.47,0,.4.04.8.01,1.2-.12,1.68-5.81,12.36-6.96,15.13-2.81,6.78-5.66,13.63-5.53,21.1l8.38-17.77c1.25-2.75,3.95-5.68,5.14-8.3.8-1.78,1.12-7.5,3.93-6.52.82.29,1.09,2.53,3.16,1.89l.04,2.15-26.83,121.97c.59,13.4-3.56,29.61-2.48,42.68.5,6.03,3.57,11.99,4.34,17.98h-1.92l-3.12-11.04c-.73,3.64-.83,7.33-.72,11.04h-2.4ZM323.52,668.64c-.08.39-.58,1.11-.73,1.89-1.1,5.59-2.41,11.16-3.1,16.83.81-.43.98-2.45,1.2-3.35,1.16-4.77,2.05-9.62,3.11-14.41,4.47-20.08,8.89-40.18,13.43-60.25-1.82.54-2.62,2.45-3.12,4.08-4.69,15.39-5.69,34.19-10.08,49.92-.47,1.65-.39,3.69-.71,5.29ZM314.88,702.24l16.8-84.96c-3.05,4.13-5.65,9.36-7.76,14.08-1.76,3.93-5.4,12.09-6.04,16.04-2.6,16-.96,34.53-3.47,50.77l.47,4.07ZM305.28,690.72c-.18,1.44-.34,2.87-.48,4.32-.29,3.04-.74,6.03-.48,9.12l1.44-8.64c.21-1.42.28-2.9.48-4.32,1.05-7.62,2.36-15.42,4.07-23.05,1.52-6.76,4.88-15.21,5.89-21.47.43-2.64.22-6.01.59-8.76l-2.26,6.61c-3.9,15.18-7.34,30.6-9.26,46.18ZM305.76,742.56c.03.8-.02,1.6,0,2.4h.47c.17-.95.29-1.94.49-2.88,5.55-26.75,7.3-53.54,8.64-80.88.05-1.11.05-2.25,0-3.36-.03-.58.37-1.78-.47-1.67-1.83,8.78-4.15,17.43-5.63,26.3-3.36,20.14-4.15,39.74-3.5,60.1ZM318.23,696.48l1.44-8.63c-.74-.12-.57.9-.71,1.44-.42,1.62-.98,3.96-1.15,5.58-.06.53-.43,1.73.42,1.62ZM317.76,698.88v-1.92h-.47v1.92h.47ZM316.8,701.28c-.36,1.31-1.35,2.67-.96,4.32,1.22-.73.81-3.16.96-4.32.04-.28.87-1.08.47-1.92h-.47c-.1.59.13,1.41,0,1.92ZM302.88,757.44l.24,1.92c.51,0,.12-1.44.24-1.92.44-1.85,1.42-4.1,1.45-6.03.05-2.91-.93-7.05-.99-10.03-.25-11.39-.38-23.85.92-35.12.07-.57.4-2.05-.66-1.62-2.47,17.35-1.89,35.28-1.2,52.8ZM315.84,708v-1.92h-.47v1.92h.47ZM315.36,709.92v-1.44h-.47v1.44h.47ZM314.88,712.32v-1.92h-.47v1.92h.47ZM307.68,763.2c.14.84.12,2.47.96,2.4.03-.64-.02-1.28,0-1.92.24-6.57.98-13.1.96-19.68l-2.84,11.35c.46,2.58.51,5.27.93,7.85ZM307.2,784.8c-.07-3.95.77-7.77.48-11.75-.2-2.77-1.05-6.63-1.59-9.45-.12-.63-.05-2.32-.79-2.32-2.13,6.67-.54,12.6.62,19.3l1.3,4.22Z"/>
  <path class="st4" d="M312.48,792h-3.84c-.11-3.71-.01-7.41.72-11.04l3.12,11.04Z"/>
  <path class="st11" d="M339.31,583.14l-1.86.06,2.02-18.86,1.11-1.3c2.02-.42.95,4.17.85,5.18-.05.53-.56,1.63.34,1.54l16.91-39.97c1.2-1.98,2.97-.21,2.07,1.58-5.9,15.92-14.87,31.77-20.51,47.66-.47,1.33-.58,2.76-.92,4.12Z"/>
  <path class="st2" d="M354.58,583.25c.4-.11.75-.07,1.1.17l.93,1.39c-1.01,1.08-2.32,3.18-3.98,2.67-2.16-.66,1.04-3.99,1.96-4.23Z"/>
  <path class="st15" d="M314.88,702.24l-.47-4.07c2.51-16.24.87-34.77,3.47-50.77.64-3.95,4.28-12.11,6.04-16.04,2.11-4.72,4.71-9.94,7.76-14.08l-16.8,84.96Z"/>
  <path class="st8" d="M306.72,742.08l-.96.48c-.65-20.36.14-39.96,3.5-60.1,1.48-8.87,3.79-17.52,5.63-26.3.84-.11.45,1.09.47,1.67.05,1.11.05,2.25,0,3.36-1.34,27.34-3.09,54.14-8.64,80.88Z"/>
  <path class="st1" d="M324,669.6l-.48-.96c.32-1.6.24-3.64.71-5.29,4.39-15.73,5.4-34.53,10.08-49.92.5-1.63,1.3-3.54,3.12-4.08-4.54,20.07-8.96,40.17-13.43,60.25Z"/>
  <path class="st13" d="M302.88,757.44c-.68-17.52-1.26-35.45,1.2-52.8,1.06-.42.72,1.06.66,1.62-1.3,11.27-1.17,23.73-.92,35.12.07,2.98,1.04,7.12.99,10.03-.03,1.92-1.01,4.17-1.45,6.03h-.48Z"/>
  <path class="st12" d="M306.24,691.2l-.96-.48c1.92-15.59,5.35-31,9.26-46.18l2.26-6.61c-.37,2.75-.16,6.12-.59,8.76-1.01,6.26-4.37,14.71-5.89,21.47-1.71,7.63-3.02,15.42-4.07,23.05Z"/>
  <path class="st14" d="M307.2,784.8l-1.3-4.22c-1.15-6.69-2.74-12.62-.62-19.3.74,0,.67,1.69.79,2.32.55,2.82,1.39,6.68,1.59,9.45.29,3.98-.54,7.8-.48,11.75Z"/>
  <path class="st6" d="M308.64,763.68l-.96-.48c-.42-2.58-.47-5.27-.93-7.85l2.84-11.35c.03,6.58-.71,13.11-.96,19.68Z"/>
  <path class="st9" d="M324,669.6c-1.06,4.78-1.95,9.64-3.11,14.41-.22.9-.39,2.92-1.2,3.35.7-5.66,2-11.24,3.1-16.83.15-.79.66-1.5.73-1.89l.48.96Z"/>
  <path class="st13" d="M305.76,695.52l-1.44,8.64c-.27-3.09.18-6.08.48-9.12l.96.48Z"/>
  <path class="st0" d="M318.23,696.48c-.85.11-.47-1.09-.42-1.62.17-1.62.74-3.95,1.15-5.58.14-.55-.03-1.56.71-1.44l-1.44,8.63Z"/>
  <path class="st17" d="M306.24,691.2c-.2,1.42-.27,2.9-.48,4.32l-.96-.48c.14-1.45.3-2.88.48-4.32l.96.48Z"/>
  <path class="st7" d="M316.8,701.28c-.15,1.15.27,3.59-.96,4.32-.39-1.65.6-3.01.96-4.32Z"/>
  <path class="st3" d="M306.72,742.08c-.2.94-.31,1.93-.49,2.88h-.47c-.03-.79.02-1.6,0-2.4l.96-.48Z"/>
  <path class="st16" d="M308.64,763.68c-.02.64.02,1.28,0,1.92-.84.08-.82-1.55-.96-2.4l.96.48Z"/>
  <rect class="st0" x="317.28" y="696.96" width=".47" height="1.92"/>
  <path class="st0" d="M316.8,701.28c.14-.5-.1-1.33,0-1.92h.47c.4.83-.44,1.64-.47,1.92Z"/>
  <rect class="st7" x="315.36" y="706.08" width=".47" height="1.92"/>
  <rect class="st7" x="314.4" y="710.4" width=".47" height="1.92"/>
  <path class="st10" d="M303.36,757.44c-.12.49.27,1.93-.24,1.92l-.24-1.92h.48Z"/>
  <rect class="st7" x="314.88" y="708.48" width=".47" height="1.44"/>
</svg>