<?xml version="1.0" encoding="UTF-8"?>
<svg id="Layer_7_xA0_Image" xmlns="http://www.w3.org/2000/svg" version="1.1" viewBox="0 0 612 792">
  <!-- Generator: Adobe Illustrator 29.2.1, SVG Export Plug-In . SVG Version: 2.1.0 Build 116)  -->
  <defs>
    <style>
      .st0 {
        fill: #a35635;
      }

      .st1 {
        fill: #ae5d39;
      }

      .st2 {
        fill: #e5d3cb;
      }

      .st3 {
        fill: #a15533;
      }

      .st4 {
        fill: #d4764a;
      }

      .st5 {
        fill: #9d5435;
      }

      .st6 {
        fill: #a3593a;
      }

      .st7 {
        fill: #a25635;
      }

      .st8 {
        fill: #be6647;
      }

      .st9 {
        fill: #9e5536;
      }

      .st10 {
        fill: #a65835;
      }

      .st11 {
        fill: #e2bfb2;
      }

      .st12 {
        fill: #c28b72;
      }

      .st13 {
        fill: #a35b3c;
      }

      .st14 {
        fill: #c84c23;
      }

      .st15 {
        fill: #a86143;
      }

      .st16 {
        fill: #d28970;
      }

      .st17 {
        fill: #cf744a;
      }

      .st18 {
        fill: #c27053;
      }

      .st19 {
        fill: #a75f41;
      }

      .st20 {
        fill: #c68268;
      }

      .st21 {
        fill: #b17961;
      }

      .st22 {
        fill: #a45d3f;
      }
    </style>
  </defs>
  <path class="st14" d="M175.68,482.4c26.49,4.95,50.96,31.03,66.91,51.41,14.86,18.99,25.78,40.67,37.73,61.39.41.71.34,1.69.48,1.92-2.03,2.63-2.41-.05-3.6-.96-6.71-5.16-15.82-6.22-22.32-.48-1.53,1.35-2.75,2.53-3.84,4.32-1.44,1.45-8.78,9.11-8.93,10.32-.05.27.29.59.29.72-.02.48,0,.96,0,1.44-.43.12-1.13.19-1.44.48-.77.73-.59,4.01-.48,5.28.19,2.07.91,3.09,1.44,4.8,6.47,20.64,19.56,36.74,30.24,54.24.05,1.69-3.81,2.03-5.28,2.4l-.96-.48v.96c-1.26.31-3.12.23-4.32.48.21-1.52-.54-.89-1.46-.75-40.16,6.12-97.31-12.67-130.69-35.34-9.87-6.7-13.96-12.25-21.91-20.33-.66-.67-1.64-.65-2.17-1.19-.37-.37-4.23-8.78-4.45-9.47-.91-2.95-1.4-10.22-1.56-13.56-.37-8.07-.14-17.41.48-25.44.01-.16-.01-.32,0-.48.91-.68.37-2.31.48-3.36,2.14-20.05,7.72-37.41,16.8-55.2.49-.95.98-1.94,1.44-2.88,1.41-1.83,3.87-3.41,3.36-6.24,2.71-.84,1.33-.98,2.88-2.88,7.92-9.68,19.04-20.77,32.16-22.08,5.33-.53,13.42-.03,18.72.96Z"/>
  <path class="st14" d="M445.44,568.8c.53,5.73,2.48,11.47,3.31,17.09,7.21,48.84-29.07,96-73.62,112.04-12.92,4.65-27.27,7.84-41.05,7.67-.19-.51-1.27-.48-1.65-.99-.54-.72-1.29-2.43-1.71-3.33,4.59-.51,12.1-4.91,17.28-6.24,4.31-1.1,5.41-.85,9.56-3.64,3.26-2.19,14.16-10.64,6.15-13.27-2.72-.89-4.51.29-6.23,0-1.47-.24-2.97-2.44-4.68-2.29-.18-.14-.32-.37-.48-.48-.52-2.88.92-1.41,2.2-2.36.67-.5,1.13-2.01,1.58-2.77l-.15-.66c-.32-.42-1.11-.34-1.23-.45-2.76-2.64-3.58-2.58-6.72-3.36l-7.22-2.62c-.05-2.43-4.64-7.75-4.78-9.38-.01-.15.43-.95.48-1.44.02-.16-.03-.33,0-.48.91-.81,1.34-1.99,2.16-2.89,5.42-5.94,16.62-14.08,23.76-18.23,7.61-4.43,16.43-7.63,24.14-12.1.82-.47,1.78-.97,2.26-1.82.14-.06.34.06.48,0l.48-.48c3.97-1.65,7.9-3.47,12-4.8l10.08-.96,4.32.48c.69-1.46-.9-2.17-.96-2.4-.11-.37.09-1.02,0-1.44.79-.61.79-2.75,0-3.36.13-.97.35-1.91.48-2.88h.96c-.17-1.35.51-3.34-.48-4.32.46-2.22,1.27-3.34,1.79-5.17,1.66-5.83,1.41-9.62,6.84-13.8,1.98-1.52,5.47-2.01,5.71-2.21.15-.12.18-1.2.44-1.7,2.35-4.42,7.05-5.65,11.35-3.01.84-2.33,1.81-1.49,3.15-1.95Z"/>
  <path class="st4" d="M315.84,653.28c1.01.72,2.13,2.04,3.38,2.62.91.42,1.64.67,1.42-.7.19.13.32.38.48.48,9.06,5.95,16.5,7.49,26.88,10.08,3.14.78,3.96.72,6.72,3.36.33,2.45-2,3.97-4.12,4.28-4.68.67-23.04.65-27.58-.17-2.05-.37-19.23-6.13-20.39-6.97-2.04-1.47-6.78-8.78-8.88-11.28s-4.42-4.6-6.23-6.97l-2.88-2.88,2.4,3.36c4.54,5.29,8.67,12.6,13.45,17.51,4.03,4.14,17.19,6.16,22.83,8.85,4.95,0,9.91.13,14.86.06,3.7-.05,10.97-1.69,14.14.46.16.11.3.34.48.48.68.52,3.95,3.51,4.33,4.07,1.02,1.48-.68,1.9-1.95,2.4-10.9,4.36-42.55-.89-54.12-4.89-2.31-.8-4.57-2.04-6.82-3.02-.31-.13-1.9-1.61-1.92-.72.57.47,1.29.77,1.92,1.2,7.07,4.78,16.4,6.79,24.8,8.08,8.83,1.36,21.33,2.5,30.15,1.99,1.15-.07,9.27-2.42,6.52,1.24-1.35,1.79-10.3,3.21-12.81,3.51-7.71.9-16.57.88-24.41,1.02-2.84.05-7.03.5-9.86-.23-4.68-1.2-10.69-6.62-15.83-7.45.59,1.14,1.97,1.85,3.04,2.48,2.05,1.21,9.96,5.45,11.83,5.93,4.72,1.21,14.68-.1,19.92-.28s10.94.28,16.33-.94c.54-.06-.19.95-.23.97-.45.13-1.32-.09-2.02.11-6.26,1.86-12.55,3.87-19.01,5.01-4.85.86-10.59,2.16-15.2.14l-.25.96c4.98,2.01,10.76.73,15.93-.14,7.65-1.29,13.53-3.25,20.55-6.09,5.85-2.36,3.94,1.55.64,3.76-7.92,5.3-31.37,7.66-40.5,5.62-16.38-3.66-36.43-31.26-45.11-45.13-7.67-12.27-16.56-28.24-16.31-42.97,0-.48-.02-.96,0-1.44l10.07-10.81c9.99-14.18,26.84-4.38,34,7.31,10.43,17.02,11.6,32.98,29.37,45.75ZM292.32,672h-.95v.95h.95v-.95ZM294.96,689.28v.48c.31-.16.31-.32,0-.48ZM295.92,689.76v.48c.31-.16.31-.32,0-.48ZM297.12,690.72l.73.96h.71s0-.95,0-.95h-1.44c.11-.11-.07-.49-.24-.48-.52.04.01.71.24.48ZM306.72,695.53c-2.8-.72-4.66-3.43-7.67-3.61,2.24,1.78,4.79,3.5,7.42,4.57l.25-.96Z"/>
  <path class="st9" d="M242.4,683.04c-26.57-.54-53.85-8.39-78.22-18.5-19.34-8.02-53.31-25.07-62.68-44.36-13.11-27.01-.86-76.22,11.22-102.58,1.22-2.67,4.39-9.93,5.89-11.87.88-1.13,3.4-1.55,2.83.67-.54.33-2.39,5.24-2.88,6.24-.69.9-1.43,1.36-1.44,2.88-9.08,17.79-14.66,35.15-16.8,55.2-.1.95-.37,2.06-.48,3.36-.01.16.01.32,0,.48-1.36,4.94-.56,10.12-1.48,15.11l1,10.33c.15,3.34.65,10.62,1.56,13.56.21.69,4.08,9.1,4.45,9.47.53.54,1.51.52,2.17,1.19,7.95,8.07,12.04,13.62,21.91,20.33,33.38,22.67,90.53,41.46,130.69,35.34.92-.14,1.68-.77,1.46.75-2.16.45-4.63,1.74-7.02,1.86l-10.74.54c-.07-.72-1.37-.72-1.44,0Z"/>
  <path class="st5" d="M445.44,568.8c.07-.02.43-1.12,1.17-.96.62.13,1.35,1.64,1.61,2.26,2.39,5.65,3.71,22.84,3.48,29.2-1.81,50.25-38.22,92.26-86.42,104.38-4.54,1.14-8.5,2.28-13.26,2.82-2.61.3-16.32,1.49-17.66.59-.6-.4-.15-1.15-.28-1.49,13.78.17,28.13-3.02,41.05-7.67,44.55-16.04,80.84-63.2,73.62-112.04-.83-5.62-2.79-11.36-3.31-17.09Z"/>
  <path class="st0" d="M242.4,612.48c-.25,14.73,8.64,30.7,16.31,42.97,8.68,13.88,28.72,41.48,45.11,45.13,9.14,2.04,32.58-.32,40.5-5.62,3.3-2.21,5.21-6.12-.64-3.76.05-.01.77-1.03.23-.97-5.39,1.22-10.87.76-16.33.94s-15.2,1.49-19.92.28c-1.86-.48-9.78-4.73-11.83-5.93-1.07-.63-2.44-1.34-3.04-2.48,5.14.82,11.14,6.25,15.83,7.45,2.83.73,7.02.28,9.86.23,7.84-.14,16.71-.12,24.41-1.02,2.51-.29,11.46-1.71,12.81-3.51,2.75-3.66-5.37-1.31-6.52-1.24-8.82.51-21.32-.63-30.15-1.99-8.4-1.3-17.73-3.3-24.8-8.08v-.48c2.26.97,4.52,2.22,6.82,3.02,11.58,4.01,43.22,9.25,54.12,4.89,1.27-.51,2.96-.93,1.95-2.4-.39-.56-3.66-3.55-4.33-4.07,1.71-.15,3.21,2.05,4.68,2.29,1.72.29,3.5-.9,6.23,0,8,2.63-2.9,11.08-6.15,13.27-4.15,2.79-5.25,2.54-9.56,3.64,4.23-1.42,13.97-7.88,16.53-11.55,3.12-4.49-2.54-4.97-5.97-4.77,1.21,2.66-.6,3.14-2.39,4.56,5.52,5.35-5.49,5.37-7.22,6.71-.73.56-.21,4.06-2.38,4.82.02.4,1.23.31,1.44.24-5.18,1.33-12.69,5.73-17.28,6.24-18.55,2.05-30.02,3.36-44.64-9.6-2.35-2.09-12.76-12.49-13.92-14.4-10.68-17.5-23.77-33.6-30.24-54.24.42-1.62-.81-3.54-.96-4.8-.2-1.64.14-3.59,0-5.28.31-.29,1.01-.36,1.44-.48Z"/>
  <path class="st22" d="M280.32,595.2c-11.94-20.72-22.86-42.4-37.73-61.39-15.95-20.38-40.42-46.46-66.91-51.41-5.86-1.93-12.7-2.41-18.72-.96-13.12,1.31-24.24,12.4-32.16,22.08.9-3.04,3.66-6.47,5.77-8.87,25.68-29.14,63.56-11.37,87.35,10.06,27,24.31,47.46,57.65,62.39,90.49Z"/>
  <path class="st6" d="M254.88,595.68c6.51-5.74,15.61-4.68,22.32.48,1.19.91,1.57,3.59,3.6.96,3.14,5.26,6.82,9.56,9.86,15.34,8.27,15.71,10.74,28.48,25.66,40.34l-.48.48c-17.77-12.76-18.95-28.73-29.37-45.75-7.16-11.69-24.01-21.49-34-7.31l-10.07,10.81c0-.13-.34-.44-.29-.72.15-1.21,7.49-8.87,8.93-10.32,1.21-1.23,3.27-2.52,3.84-4.32Z"/>
  <path class="st15" d="M362.4,630.24v.48c-7.14,4.15-18.34,12.3-23.76,18.23-.82.89-1.24,2.07-2.16,2.89.82-4.41,4.67-7.79,8.16-10.56,5.4-4.3,11.84-7.55,17.76-11.04Z"/>
  <path class="st7" d="M336,653.76c.14,1.63,4.73,6.95,4.78,9.38l7.22,2.62c-10.38-2.59-17.82-4.13-26.88-10.08,2.74.03,3.34,2.52,6.24,1.44-.26,1.23.59.99,1.31,1.3,3.55,1.56,7.25,2.74,10.93,3.97-1.13-2.94-2.66-6.44-5.53-8.15.63-.21,1.19-.59,1.92-.48Z"/>
  <path class="st19" d="M388.8,616.8c-.48.85-1.44,1.35-2.26,1.82-7.71,4.46-16.53,7.67-24.14,12.1v-.48c8.78-5.18,16.9-9.41,26.4-13.44Z"/>
  <path class="st13" d="M414.72,609.12c.05.2.63.5.48.96l-3.36.48-10.08.96c4.27-1.39,8.31-2.81,12.96-2.4Z"/>
  <path class="st12" d="M320.64,655.2c.21,1.38-.52,1.13-1.42.7-1.25-.58-2.37-1.9-3.38-2.62l.48-.48c.82.65,3.1,1.57,4.32,2.4Z"/>
  <path class="st11" d="M121.92,506.4c.51,2.83-1.95,4.41-3.36,6.24.49-1,2.34-5.91,2.88-6.24.1-.06.32.05.48,0Z"/>
  <path class="st16" d="M416.16,596.64c.99.98.31,2.97.48,4.32h-.96c.21-1.59.12-2.56.48-4.32Z"/>
  <path class="st2" d="M305.76,595.2c.4,1.78-2.34.68-3.36.95-.4-1.78,2.34-.68,3.36-.95Z"/>
  <path class="st16" d="M415.2,607.2c-.48-2.22-.24-1.51,0-3.36.79.61.79,2.75,0,3.36Z"/>
  <path class="st21" d="M243.84,683.04h-1.44c.07-.72,1.37-.72,1.44,0Z"/>
  <path class="st16" d="M266.88,679.68c-.05.01-.26.31-.96.48v-.96s.96.48.96.48Z"/>
  <path class="st19" d="M389.28,616.8c.13-.05.27-.39.48-.48l-.48.48Z"/>
  <path class="st16" d="M415.2,608.64c.07.23,1.66.94.96,2.4l-4.32-.48,3.36-.48c.15-.45-.43-.75-.48-.96-.06-.24.17-.56.48-.48Z"/>
  <path class="st8" d="M99.36,600l-1-10.33c.92-4.99.12-10.17,1.48-15.11-.62,8.03-.85,17.37-.48,25.44Z"/>
  <path class="st18" d="M175.68,482.4c-5.3-.99-13.39-1.49-18.72-.96,6.02-1.45,12.86-.97,18.72.96Z"/>
  <path class="st20" d="M241.92,623.04c-.53-1.71-1.25-2.73-1.44-4.8h.48c.15,1.26,1.38,3.18.96,4.8Z"/>
  <path class="st2" d="M240.96,618.24h-.48c-.11-1.27-.29-4.55.48-5.28.14,1.69-.2,3.64,0,5.28Z"/>
  <path class="st8" d="M99.84,574.08c.11-1.3.38-2.41.48-3.36-.11,1.05.43,2.68-.48,3.36Z"/>
  <path class="st18" d="M254.88,595.68c-.57,1.8-2.63,3.09-3.84,4.32,1.09-1.79,2.31-2.97,3.84-4.32Z"/>
  <path class="st20" d="M117.12,515.52c.01-1.52.75-1.98,1.44-2.88-.46.94-.95,1.93-1.44,2.88Z"/>
  <path class="st3" d="M287.52,648c1.81,2.37,4.21,4.56,6.23,6.97s6.84,9.81,8.88,11.28c1.17.84,18.34,6.6,20.39,6.97,4.53.82,22.9.84,27.58.17,2.13-.3,4.45-1.82,4.12-4.28.12.11.91.03,1.23.45l.15.66c-.45.76-.91,2.27-1.58,2.77-1.28.95-2.72-.52-2.2,2.36-3.17-2.15-10.44-.51-14.14-.46-4.95.06-9.91-.05-14.86-.06-5.63-2.7-18.8-4.72-22.83-8.85-4.78-4.91-8.91-12.22-13.45-17.51l.48-.48Z"/>
  <path class="st10" d="M343.68,691.2c-7.02,2.83-12.9,4.8-20.55,6.09-5.17.87-10.94,2.15-15.93.14l.25-.96c4.61,2.01,10.35.71,15.2-.14,6.46-1.14,12.75-3.15,19.01-5.01.7-.21,1.58.02,2.02-.11Z"/>
  <path class="st10" d="M306.72,695.53l-.25.96c-2.63-1.07-5.18-2.79-7.42-4.57,3,.18,4.86,2.9,7.67,3.61Z"/>
  <polygon class="st1" points="287.04 648.48 284.64 645.12 287.52 648 287.04 648.48"/>
  <polygon class="st10" points="297.12 690.72 298.56 690.72 298.56 691.68 297.85 691.68 297.12 690.72"/>
  <rect class="st1" x="291.36" y="672" width=".95" height=".95"/>
  <path class="st1" d="M294.24,674.4v.48c-.63-.43-1.35-.73-1.92-1.2.03-.89,1.62.59,1.92.72Z"/>
  <path class="st1" d="M294.96,689.28c.31.16.31.32,0,.48v-.48Z"/>
  <path class="st1" d="M297.12,690.72c-.23.23-.76-.44-.24-.48.17-.01.35.37.24.48Z"/>
  <path class="st1" d="M295.92,689.76c.31.16.31.32,0,.48v-.48Z"/>
  <path class="st4" d="M348,695.04c-.2.07-1.42.16-1.44-.24,2.17-.76,1.65-4.25,2.38-4.82,1.73-1.34,12.74-1.35,7.22-6.71,1.79-1.41,3.61-1.9,2.39-4.56,3.43-.2,9.09.28,5.97,4.77-2.56,3.68-12.3,10.13-16.53,11.55Z"/>
  <path class="st17" d="M334.08,654.24c2.86,1.71,4.39,5.21,5.53,8.15-3.68-1.23-7.38-2.4-10.93-3.97-.72-.32-1.57-.07-1.31-1.3,1.94-.72,4.31-2.06,6.72-2.88Z"/>
</svg>