<?xml version="1.0" encoding="UTF-8"?>
<svg id="Layer_9_xA0_Image" xmlns="http://www.w3.org/2000/svg" version="1.1" viewBox="0 0 612 792">
  <!-- Generator: Adobe Illustrator 29.2.1, SVG Export Plug-In . SVG Version: 2.1.0 Build 116)  -->
  <defs>
    <style>
      .st0 {
        fill: #a7aca8;
      }

      .st1 {
        fill: #b6bab7;
      }

      .st2 {
        fill: #fff;
      }

      .st3 {
        fill: #abb0ac;
      }

      .st4 {
        fill: #9ba19d;
      }

      .st5 {
        fill: #a1a6a2;
      }

      .st6 {
        fill: #b0b5b1;
      }

      .st7 {
        fill: #9aa09c;
      }

      .st8 {
        fill: #d0d2d0;
      }

      .st9 {
        fill: #646d66;
      }

      .st10 {
        fill: #b8bcb9;
      }

      .st11 {
        fill: #adb2ae;
      }

      .st12 {
        fill: #9ca19d;
      }

      .st13 {
        fill: #8f9590;
      }

      .st14 {
        fill: #a9aeaa;
      }

      .st15 {
        fill: #d0d3d0;
      }

      .st16 {
        fill: #a7aca9;
      }
    </style>
  </defs>
  <path class="st9" d="M126.24,100.32l.48.96c-.1,1.15.39,2.23.48,3.36l-.48.72.48.24c.17,1.75.39,3.53.48,5.28-.75.2-.72,1.76,0,1.92.06,1.91,0,3.85,0,5.76l-.48,1.44c-.1.39-.08,2.64.07,2.82.58.67,1.82-.37,2.81,2.94.24.79-.49,2.52.96,2.88.02-.96-.02-1.92,0-2.88.03-1.44-.04-2.88,0-4.32l.48-.72-.48-.24c.07-1.48.12-2.87.48-4.32l.42-.66-.42-.3c1.89-17.03,4.5-26.24,13.38-40.62,1.32-2.14-.28-3.54,3.66-3.58,5.54-.06,3.01,2.93,3.1,6.02.13,4.36,1.97,9.91,1.98,13.94.02,7.91-.71,16.32-1.48,24.24l-.4.66.4.3c-.09.98-.38,1.91-.48,2.88l-.42.66.42.3c-.19.78-.53,1.57-.48,2.4l-.48.96c-1.19,9.77-3.28,23.33-9.12,31.44-.79,1.1-3.07,2.26-3.37,4.36l5.29,21.8c.74.12.56-.9.7-1.44,3.52-13.73,5.44-25.82,11.36-39.05,4.08-9.12,16.54-32.3,23.48-11.56l-28.25,80.72c2.18,9.85,4.36,19.71,7.09,29.41.12.44-.29,1.32.24,1.44h.71c.03-.48-.03-.97,0-1.44.4-6.62,2.12-13.65,3.59-20.17,2.78-12.27,13.57-53.22,23.05-59.99,8.13-5.81,9.37,8.56,8.9,13.7-.53,5.82-1.03,11.61-1.46,17.5-.51.36-.75,1.28,0,1.44-1.53,19.6-6.02,45.09-13.99,63.05-2.89,6.52-7.01,14.88-14.34,16.88l11.53,28.8,35.01-78.15c1.38-1.23,3.58-1.32,4.15.61.33,1.11-.2,1.81-.1,2.57,2.25,16.9-1.98,32.74-7.98,48.44-5.56,14.55-13.58,31.03-26.24,40.49l9.57,26.59c.71.14.49-.55.62-1.04,7.83-28.89,15.17-58.43,28.24-85.52,1.49-3.09,5.35-11.86,8.92-12.2,10.24-.99,8.91,16.64,8.29,22.93l-.48.72.48.24c-2.38,21.52-17.43,74.46-34.55,88.09-1.23.98-4.76,2.46-4.84,3.36l20.24,54.9,1.86.05c1.88-11.75,3.91-24.08,7.55-35.41,3.77-11.75,8.12-25.58,12.4-37.04,3.09-8.28,8.59-17.14,12.92-25,1.57-2.84,7.64-11.16,11.3-9.34,1.73.86.6,2.8.65,3.92.21,4.05-.54,9.99-.18,13.12l-.48.96c-1.18,15.98-5.98,32.21-11.64,47.16-6.63,17.52-15.44,35.41-27.48,49.81l-.24,1.62,147.13,356.44-.21,5.08c-1.6,1.55-4.33,1.74-5.73-.1l-145.45-352.21-4.41-.96-75.84-87.39c-.83-1.65.18-3.06,1.83-3.54,2.09.79,4.26.54,6.38,1.12,14.92,4.12,43.18,34.17,51.83,47.29.51.77.68,2.47,1.92,2.88.53-1.47-1.21-2.81-1.44-3.36-3.84-9.49-6.75-19.47-10.64-28.96-.6-1.21-2.41-.52-3.04-1.76s-.1-4.26-1.4-5.32c-.72-.59-6.39-1.99-7.95-2.61-10.59-4.18-21.52-10.31-31.17-16.35-9.26-5.8-37.02-24.65-39.9-34.49-1.11-3.8-.05-3.07,1.18-5.59,1.33-2.7.32-3.62,4.84-3.7,15.37-.28,46.2,24.02,57.37,34.69l11.04,11.52-6.84-18.6c-1.46-2.34-3.95-1.66-2.29-6.11-3.67-.56-7.42-3.04-10.71-4.9-19.29-10.88-43.93-29.55-58.18-46.46-4.04-4.79-14.19-17.59-10.53-23.98,1.92-3.35,4.58.88,4.87.95.98.23,2.38-.17,3.63.1,18.58,3.99,51.64,35.7,61.79,51.73.51.8.68,2.45,1.92,2.88.56-1.43-1.26-2.47-1.44-2.88-1.81-4.17-3.91-13.83-6.22-17.06-1.09-1.51-5.5-4.21-7.22-5.74-18.43-16.36-41.93-41.59-53.04-63.6-2.15-4.25-7.09-15.02-2.13-18.47,3.86-2.68,3.81-.08,5.77,1.39,3.18,2.37,7.1,4.24,10.48,6.8,13.27,10.07,30.15,29.47,37.97,43.87.36.66.25,2.15,1.44,2.4.72-2.52-.87-2.27-.96-2.4-.7-1.04-3.86-17.93-4.94-21.22-1.86-5.69-7.63-8.6-11.87-12.61-12.06-11.4-25.87-26.61-34.75-40.61-2.88-4.54-8.49-13.3-6.79-18.7.16-.49,3.22-3.65,3.46-3.74,2.62-.93,6.88,2.31,8.96,3.84,11.49,8.43,23.74,24.41,31.52,36.4.33.5.33,1.76,1.44,1.92.33-.86-.35-1.45-.48-1.92-.77-2.87-2.93-13.65-4.11-15.33-.56-.8-2.68-1.82-3.57-2.67-13.81-13.12-26.69-29.88-36.08-46.48-2.76-4.89-11.24-19.95-8.03-24.99.47-.74,1.5-.92,1.9-1.46.62-.84.35-2.38,1.4-2.91,4.5-2.27,9.07,4.27,11.51,7.23,4.88,5.93,8.35,13.03,12.87,18.81.46.58.55,1.3,1.55,1.09-1.09-4.87-3.18-9.56-4.56-14.4-2.71-9.49-4.66-19.44-5.52-29.28l.48-.72-.48-.24c-.44-6.37-.99-13.45.7-19.7.41-1.52,1.94-3.6,2.09-4.64s-.93-2.83.57-3.74c4.36-2.63,7.9,7.39,9,10.21,6.27,15.93,9.31,34.52,11.16,51.48ZM113.28,113.28c.65,1.94.97,2.19,1.92,3.84.81,1.4,1.23,3.22,2.64,4.31.29-1.81-1.67-3.34-2.16-4.31-.46-.9-.29-3.25-1.92-3.84l-.96-.24c.2.34.47.21.48.24ZM119.52,123.84v-.71s-1.2-1.2-1.2-1.2l.25,1.91h.95ZM124.32,132.96c-.2-1.5-.53-3.44-1.23-4.76-.34-.64-2.14-2.91-3.08-2.91,1.15,2.54,2.47,5.63,4.31,7.68ZM150,237.6v.48c.31-.16.31-.32,0-.48ZM210.96,417.12v.48c.31-.16.31-.32,0-.48ZM211.44,418.09l-.23.23,1.2,1.2.23-.23-1.2-1.2Z"/>
  <path class="st3" d="M200.16,387.36c.22.55,1.97,1.89,1.44,3.36-1.24-.41-1.41-2.11-1.92-2.88l.48-.48Z"/>
  <path class="st7" d="M162.72,287.52c.18.41,2,1.45,1.44,2.88-1.24-.43-1.41-2.08-1.92-2.88h.48Z"/>
  <path class="st11" d="M131.04,125.76c-.02.96.02,1.92,0,2.88-1.44-.36-.72-2.09-.96-2.88h.96Z"/>
  <path class="st3" d="M148.8,234.72c.09.13,1.67-.12.96,2.4-1.18-.25-1.07-1.74-1.44-2.4h.48Z"/>
  <path class="st10" d="M135.36,178.08c.13.47.81,1.06.48,1.92-1.1-.16-1.11-1.42-1.44-1.92h.96Z"/>
  <path class="st5" d="M127.68,112.8c-.72-.16-.75-1.72,0-1.92.05.89-.02,1.44,0,1.92Z"/>
  <path class="st16" d="M192.96,191.52c-.75-.16-.51-1.08,0-1.44,0,.09.06.69,0,1.44Z"/>
  <path class="st1" d="M158.88,239.04c-.03.48.02.96,0,1.44h-.71c-.53-.12-.12-1-.24-1.44h.96Z"/>
  <path class="st5" d="M127.2,120l.48-1.44c0,1.85-.4,1.11-.48,1.44Z"/>
  <path class="st3" d="M131.04,121.44c0-.26-.02-.48,0-.96l.48.24-.48.72Z"/>
  <path class="st6" d="M151.2,122.4c0,.07.66.48.48.96h-.96s.48-.96.48-.96Z"/>
  <path class="st14" d="M102.72,67.68c-.05-.57,0-.84,0-.96l.48.24-.48.72Z"/>
  <path class="st5" d="M126.24,100.32h.96c.19.5-.47.9-.48.96l-.48-.96Z"/>
  <path class="st5" d="M127.2,105.6l-.48-.24.48-.72c.04.5,0,.9,0,.96Z"/>
  <path class="st3" d="M236.64,265.92l-.48-.24.48-.72c0,.06.07.32,0,.96Z"/>
  <polygon class="st0" points="131.52 116.16 131.52 115.2 131.94 115.5 131.52 116.16"/>
  <path class="st6" d="M152.16,116.16l-.4-.3.4-.66c0,.06.07.25,0,.96Z"/>
  <path class="st4" d="M264,322.56c0,.06.67.45.48.96h-.96s.48-.96.48-.96Z"/>
  <path class="st6" d="M151.68,120l-.42-.3.42-.66s.52-.07.47.29l-.47.67Z"/>
  <path class="st15" d="M124.32,132.96c-1.84-2.04-3.16-5.14-4.31-7.68.94,0,2.74,2.28,3.08,2.91.7,1.32,1.03,3.27,1.23,4.76Z"/>
  <path class="st8" d="M115.68,117.12h-.48c-.95-1.65-1.27-1.9-1.92-3.84h.48c1.63.59,1.46,2.94,1.92,3.84Z"/>
  <path class="st12" d="M115.2,117.12h.48c.5.97,2.46,2.5,2.16,4.31-1.42-1.09-1.84-2.91-2.64-4.31Z"/>
  <polygon class="st12" points="119.52 123.84 118.56 123.84 118.32 121.93 119.52 123.13 119.52 123.84"/>
  <path class="st2" d="M113.76,113.28h-.48s-.28.1-.48-.24l.96.24Z"/>
  <path class="st3" d="M150,237.6c.31.16.31.32,0,.48v-.48Z"/>
  <path class="st13" d="M210.96,417.12c.31.16.31.32,0,.48v-.48Z"/>
  <rect class="st13" x="211.76" y="417.95" width=".32" height="1.69" transform="translate(-234.07 272.51) rotate(-45)"/>
</svg>