<?xml version="1.0" encoding="UTF-8"?>
<svg id="Layer_8_xA0_Image" xmlns="http://www.w3.org/2000/svg" version="1.1" viewBox="0 0 612 792">
  <!-- Generator: Adobe Illustrator 29.2.1, SVG Export Plug-In . SVG Version: 2.1.0 Build 116)  -->
  <defs>
    <style>
      .st0 {
        fill: #becfc3;
      }

      .st1 {
        fill: #dce5de;
      }

      .st2 {
        fill: #cddad1;
      }

      .st3 {
        fill: #a4bcab;
      }

      .st4 {
        fill: #b1c6b7;
      }

      .st5 {
        fill: #b7cabd;
      }

      .st6 {
        fill: #c4d4c9;
      }

      .st7 {
        fill: #b4c8ba;
      }

      .st8 {
        fill: #ccd9cf;
      }

      .st9 {
        fill: #8baa94;
      }

      .st10 {
        fill: #c6d5ca;
      }

      .st11 {
        fill: #c3d3c7;
      }

      .st12 {
        fill: #c2d2c7;
      }

      .st13 {
        fill: #c7d6cb;
      }
    </style>
  </defs>
  <path class="st13" d="M408.48,508.8c-.9.05-1.44-.02-1.92,0,.16-.72,1.72-.75,1.92,0Z"/>
  <path class="st5" d="M349.44,385.92c0-.09-1.08-.63,0-1.44.75.17.51,1.08,0,1.44Z"/>
  <path class="st0" d="M381.12,337.92c-.04-.2-.73-.44,0-.96,0,.04.76.05.48.72l-.48.24Z"/>
  <path class="st5" d="M349.92,381.6c-.23.07-.44-.05-.4-.3.06-.45.4-.61.4-.66l.42.3-.42.66Z"/>
  <path class="st13" d="M349.44,411.36c0-.09-.32-.2-.34-.38-.03-.36.34-.54.34-.58l.48.24-.48.72Z"/>
  <g>
    <path class="st9" d="M476.16,125.76c-.1.16-.87.3-.91.82-.2.7.42,1,.43,1.1.17,1.58.26,3.23.48,4.8-1.27.56,0,1.35,0,1.44.56,5.01.18,10.11.98,15.1-.53,9.18.64,19.01-.02,28.1-.02.27-.84,1.16-.48,1.92,1.12-.19.75-1.29.96-1.92,3.34-10.2,8.22-21.14,13.36-30.56,3.43-6.28,15.19-25.89,22.02-27.42,5.41-1.21,7.98,1,9.05,6.11,4.47,21.44-20.79,56.77-37,69.61-1.17.92-6.93,4.47-7.17,4.83-.43.66-.28,1.8-.78,2.58-.43.68-1.55.85-1.8,1.56-.56,1.63.07,5.7-.56,8.32-.03.11-.51.3-.42.66l.42.3c-.71,3.87-.62,7.89-1.45,11.75l.96.24c.79-2.07,2.32-3.96,3.66-5.71,8.59-11.16,23.41-26.56,36.35-32.29,9.27-4.11,20.74-4,20.52,8.96-.38,22.62-35.25,63.68-55.87,71.85-4.02,1.59-7.46,2.18-11.82,1.86l-4.61,23.47c-.53.54-.21,1.34.5.98.48-.24,5.36-7.16,6.47-8.41,10.07-11.24,23.82-21.29,39.37-22.31.2.75,1.76.72,1.92,0,2.48.1,5.32-.56,6.59,2.29,1.39,3.1.18,7.27-.94,10.32-6.78,18.46-43.52,61.49-61.68,68.88-1.39.57-2.93.75-4.37,1.15l-7.28,26.08c.35.66,1.26.07,1.7-.22,2.44-1.65,5.87-6.19,8.37-8.43,9.94-8.87,28.28-21.82,42.01-21.87,2.07,0,7.07.48,7,3.15-1.01,5.33-1.04,10.7-2.29,16-7.69,32.63-41.08,59.27-73.49,64.51l-21.23,57.49h-.96s.24.96.24.96c.8.2.88-.7,1.2-.96,24.55-20.31,47.13-45.29,71.77-65.27,3.28-2.66,9.97-4.91,11.16.81,2.76,13.26-2.52,30.58-8.93,42.21-13.34,24.2-38.85,43.32-66.32,47.68l-.3-.42-.66.42c-1.34.18-2.44.41-3.84.48-.2-.75-1.76-.72-1.92,0-1.11.04-2.25.03-3.36,0-.2-.75-1.76-.72-1.92,0-1.16-.06-2.22-.31-3.36-.48l-.66-.42-.3.42c-1.13-.14-2.51-1.18-3.32.29-19.79,45.95-43.82,89.97-71.36,131.67-29.94,45.33-60.39,90.53-89.76,136.32-3.03,4.76-10.36,2.12-9.29-3.53l51.74-79.78,1.58-4.66c13.3-16.36,24.34-35.07,36.01-52.79.58-.89,1.5-1.47,2.04-2.28,28.51-43.24,53.11-89.05,73.24-136.76-4.09-1.04-7.86-5.63-10.55-8.9-16.23-19.77-25.72-51.31-27.85-76.55l.48-.72-.48-.24c-.6-8.48-.53-16.02,0-24.48.51-.36.75-1.27,0-1.44l.48-2.88.42-.66-.42-.3c1-6.51,2.58-22.46,12.25-12.97,17.73,17.42,35.49,61.33,36.23,85.93.02.53-.14,1.21.48,1.44.32,4.17.34,7.85.48,12,.02.5-.21,1.91.24,1.92.54-.37.5-1.35.72-1.92,5.4-13.74,13.11-31.01,16.06-45.15.09-.41.49-.82.73-1.18-4.52-2.73-8.33-7.31-11.42-11.61-11.35-15.77-19.66-39.51-22.98-58.62-.71-4.12-.75-8.74-1.59-12.57l.48-.24c.28-.67-.47-.67-.48-.72-.79-7.85-.33-20.09,3.28-27.2,1.52-3,3.44-5.85,6.81-3.28,8.88,6.75,19.96,22.48,25.2,32.4,7.66,14.5,10.71,26.57,12.71,42.73.08.62-.06,1.29,0,1.92h.71c.55-.1.11-1.39.24-1.92,3.05-11.89,7.32-23.53,10.08-35.52-11.65.5-22-12.23-28.23-20.97-10.13-14.21-27.71-50.27-20.34-67.2,4.95-11.37,16.82-5.29,23.62.57,16.47,14.18,24.9,35.58,31.93,55.44.16.46.06,1.1.7.96l8.16-39.83c-6.78,2.15-11.3-2.35-15.08-7.24-14.53-18.84-29.07-69.48-25.66-92.78,1.23-8.42,6.53-15.49,15.05-8.93,14.87,11.47,27.97,56.88,30.01,75.35.15,1.37-.11,2.92,0,4.32,1.25,1.66.92-3.43.96-3.84,1-12.07,3.59-24.02,3.86-36.16-3.97-1.85-6.95-5.33-9.53-8.81-10.6-14.28-27.96-54.94-27.46-72.37.18-6.07,3.89-10.32,9.77-6.42,11.51,7.65,23.93,40.4,28.64,53.68.05.15-.1,2.69.96,1.44.4-.48-.47-1.36-.48-1.44-.28-4.06.65-30.12-.5-31.18-3.45.49-6.52-3.15-8.6-5.56-10.87-12.56-31.24-54.29-32.19-70.53-.27-4.5.71-12.49,6.13-13.59,14.79-3.01,25.26,15.64,31.58,26.28l6.46,13.45c1.9-16.2,7.7-36.01,20.39-47.05,3.42-2.98,7.22-6.63,11.22-2.07,2.54,2.9,2.24,8.26,1.99,11.92-1.31,19.61-16.32,55.77-27.35,72.24Z"/>
    <path class="st2" d="M461.28,241.92c-.03.41.3,5.5-.96,3.84-.11-1.4.15-2.95,0-4.32l.96.48Z"/>
    <path class="st4" d="M510.72,263.52c-.16.72-1.72.75-1.92,0,1.1-.07.96-.04,1.92,0Z"/>
    <path class="st8" d="M430.08,381.6c-.13.53.3,1.82-.24,1.92h-.71c-.06-.63.07-1.3,0-1.92h.96Z"/>
    <path class="st13" d="M403.2,508.8c-.52-.01-1.07.04-1.92,0,.16-.72,1.72-.75,1.92,0Z"/>
    <path class="st11" d="M475.68,127.68c-.01-.1-.63-.4-.43-1.1.04-.52.81-.67.91-.82l-.48,1.92Z"/>
    <path class="st3" d="M477.6,177.12c-.21.63.16,1.73-.96,1.92-.37-.76.46-1.65.48-1.92h.48Z"/>
    <path class="st11" d="M476.16,133.92c0-.09-1.27-.88,0-1.44.04.26.95.76,0,1.44Z"/>
    <path class="st7" d="M467.04,171.84c0,.08.88.96.48,1.44-1.06,1.25-.9-1.28-.96-1.44h.48Z"/>
    <path class="st1" d="M400.32,467.04c-.22.57-.18,1.56-.72,1.92-.45-.01-.22-1.42-.24-1.92h.96Z"/>
    <path class="st6" d="M398.88,455.04c-.62-.23-.46-.91-.48-1.44,1.59.54.47,1.34.48,1.44Z"/>
    <path class="st12" d="M405.12,482.88h.48c-.32.26-.4,1.17-1.2.96l-.24-.96h.96Z"/>
    <path class="st10" d="M474.72,213.12l-.42-.3c-.08-.35.4-.54.42-.66l.41.3c.09.35-.39.55-.41.66Z"/>
    <path class="st13" d="M397.92,508.32c-.07-.01-.05.11-.96,0l.3-.42.66.42Z"/>
    <path class="st13" d="M413.28,508.32c-1.02.16-.89,0-.96,0l.66-.42.3.42Z"/>
  </g>
</svg>