<?xml version="1.0" encoding="UTF-8"?>
<svg id="Layer_12_xA0_Image" xmlns="http://www.w3.org/2000/svg" version="1.1" viewBox="0 0 612 792">
  <!-- Generator: Adobe Illustrator 29.2.1, SVG Export Plug-In . SVG Version: 2.1.0 Build 116)  -->
  <defs>
    <style>
      .st0 {
        fill: #bcb39e;
      }

      .st1 {
        fill: #6c5a2b;
      }

      .st2 {
        fill: #d02a1c;
      }

      .st3 {
        fill: #77673b;
      }

      .st4 {
        fill: #d12a1b;
      }

      .st5 {
        fill: #c98782;
      }

      .st6 {
        fill: #9e241c;
      }

      .st7 {
        fill: #c1716c;
      }

      .st8 {
        fill: #d22a1b;
      }

      .st9 {
        fill: #d32a1b;
      }
    </style>
  </defs>
  <path class="st1" d="M365.28,334.08c2.67,4.91,5.68,11.23,4.77,17.01-.33,2.12-2.4,5.08-4.77,3.88-.88-.44-3.39-7.77-5.03-8.89-.68.3-2.57,8.6-2.9,10.06-4.44,19.91-8.06,40.1-9.76,60.44,1.57.39,5.9,2.71,5.72,4.59l-6.73,7.36-1.51,15.25c1.79,1.99,4.92,2.42,4.38,5.72-.06.38-3.73,6.32-4.05,6.54-.84.6-1.74.46-2.68.44l-.95,11.52,86.84-118.35c1.24-1.32,3.05-.74,3.38,1.01.56,2.95.22,11.95,0,15.34-2.43,39.71-33.98,94.84-71.34,111.06-6.14,2.66-12.76,4.6-19.54,4.46l-.72.72.04,4.39c2.77,2.84,7.38-2.05,7.14,3.24-.1,2.13-2.53,4.09-4.13,5.49-1.32,1.16-2.9,1.13-3.14,3.1-1.12,9.24.88,20.79.05,30.29-3.85,79.77-2.71,160.1-1.48,240,.05,3.4,1.82,8.69-.97,11.46-3.68,3.66-8.74.94-9.44-3.93-.32-2.19-.52-5.72-.63-8.01-.79-17.4.18-35.78.04-53.32-.46-57.97-1.43-116.28.44-174.24.18-5.7,2.27-16.86.26-21.82-.37-.9-1.14-1.36-1.4-1.96-.34-.8-2.25-5.18-2.25-5.48-.02-2.27,2.58-2.25,4.37-2.16l-.03-17.98c-18.04-28.04-34.73-61.84-41.59-94.73-1.18-5.67-4.51-21.55.83-25.27,4.81-3.35,8.54,1.54,11.21,5.07,13.36,17.69,27.17,65.03,30.53,87.31.1.67-.28,2.78.24,2.88h.71c.05-.96-.06-1.93,0-2.88.93-14.01,3.46-29.38,4.8-43.92.44-4.75,1.86-10.88,1.89-15.43.03-3.09-5.97-6.57-5.28-10.48.33-1.85,4.73-2.53,5.93-3.58.12-.11,1.6-2.63,1.65-2.79,1.27-3.94,1.82-11.52,2.67-16.05.61-3.24,2.68-8.68,2.13-11.56-.51-2.65-3.31-4.98-2.2-8.2.43-1.24,2.26-1,3.25-1.57,3.13-1.77,3.14-8.91,5.31-11.95l-14.13-3.07c-1.91-4.25,4.92-5.03,7.87-6.07,1.04-.36,2.37-1.5,2.89-1.67,1.97-.63,4.64-.01,6.52-1.43,2.21-.38,2.17.82,3.11,1.16,1.7.61,3.31.42,4.8,1.92.6.61,2.22,3.91,2.85,5.07Z"/>
  <path class="st6" d="M348,327.36c-12.35-5.86-24.4-12.66-34.79-21.61-17.51-15.08-32.59-35.66-23.54-59.52.99-2.6-.01-4.02,4.09-4.32-.81-1.96-1.95-3.74-2.62-5.78-6.08-18.63,8.35-35.95,27.71-29.15,1.66.58,6.78,3.91,7.7,3.68,17.54-22.54,51.02-27.84,75.7-14.11,12.1,6.73,22.19,19.03,22.55,33.37,3.21-.33,6.04-2.44,9.41-2.83,23.32-2.73,46.07,24,35.65,46.21-.36.77-2.68,3.76-2.34,4.14,9.45.74,12.9,9.67,8.9,17.78-3.49,7.07-17.41,16.99-24.3,21.3-20.68,12.94-56.36,26.12-80.6,19.72-2.13-.56-4.14-1.53-6.24-2.16-.63-1.16-2.25-4.46-2.85-5.07-1.49-1.5-3.1-1.31-4.8-1.92-.94-.34-.9-1.55-3.11-1.16-1.87,1.42-4.54.8-6.52,1.43ZM416.79,223.05c.11.1,1.1.67,1.28.4-12.87-35.17-67.19-37.67-87.28-8.08l4.09,6.32c4.91-.39,9.3-.85,14.07.81,2.1.73,3.77,2.24,5.77,3.11,6.39-21.88,27.32-27.25,46.41-16.4,7.38,4.19,9.93,8.73,15.67,13.85ZM359.04,232.32c-.24.14-2.29.58-1.44,1.44.81.81,1.29-1.07,1.44-1.44,8.87-5.31,20.97-8.69,30.99-4.35,1.53.66,4.15,3.1,5.8,3.27,1.04.1,5.07-1.63,7.11-1.81,1.68-.15,4.58-.15,6.25.02,2.07.21,3.92,1.43,6,1.2-9.1-15.39-35.08-30.71-49.68-13.69-4.83,5.63-4.14,9.51-6.47,15.37ZM307.2,243.84c1.84-7.61,8.7-13.35,15.22-17.19,1.1-.65,6.22-2.66,6.36-3.26-2.57-5.33-8.72-10.77-14.73-11.59-16.86-2.29-22.85,14.02-15.09,27.09.31.51,2.15,3.43,2.33,3.55,1.14.71,4.44.7,5.92,1.4ZM351.36,250.56c.54-.75-.43-4.92-.4-6.02.03-1.22.99-2.3.92-3.82-.06-1.2-.91-1.97-.98-2.9-.25-3.37,2.69-6.36-2.39-9.12-10.88-5.91-33.17,5.1-36.03,17.35l.07.6c7.17,3.65,12.25,9.96,17.94,15.43,2.22-3.01,4.97-8.08,8.23-10,1.67-.99,9.09-3.25,10.74-2.76.5.15,1.79,1.4,1.9,1.25ZM396.47,244.31c1.15-1.55-6.71-9.33-8.29-10.16-4.08-2.14-13.55-2.18-17.99-1-16.59,4.42-15.1,20.39-5.63,31.34.41.48,3.21,3.83,3.61,3.35-1.54-3.64,3.89-7.1,4.19-8.95.2-1.2-1.66-6.62-1.75-8.64-.18-4.23,4.46-9,8.33-10.27s6.79-.63,10.52,1.06c1.48.67,5.1,3.62,5.42,3.68.23.04,1.55-.33,1.6-.4ZM443.58,269.7c4.41-.13,8.71.28,12.89,1.75,3.06,1.08,4.84,4.16,7.13.87,7.24-10.4.24-25.84-8.55-33.04-7.72-6.33-21.58-10.22-28.78-1.49,9.35,8.11,14.84,19.88,17.32,31.91ZM437.28,269.76c-2.69-16.68-15.63-35.89-34.56-34.56-.22.83.35.96.71,1.44,1.67,2.17,4.13,4.12,5.92,6.56,6.27,8.57,9.31,19.43,6.8,29.92.61.58,5.73-1.71,7-1.88,1.71-.22,3.6.19,5.23-.05,2.96-.42,5.83-1.74,8.89-1.44ZM406.2,270.6c.64.52,2.85.57,3.48,2.03,4.01-8.96-.29-21.89-7.43-28.31-.37,2.1-1.46,4.12-3.4,5.06,0,1.19,4.51,6.96,5.09,9.32.64,2.66-.31,4.93-.11,6.91.03.31,2.17,4.8,2.38,4.98ZM398.33,261.53c-1.19-6.28-11.2-20.17-18.63-15.51-2.66,1.67-3.34,3.87-2.9,6.94,1.28.05,1.66-1.28,2.75-1.81,2.11-1.03,5.41-.76,7.36.58,3.42,2.37,8.2,8.3,7.66,12.74l3.77-2.95ZM353.28,323.04c-3.7-18.56-12.34-37.7-23.8-52.76-6-7.88-20.29-23.15-31.02-22.01-7.16.76-6.46,12.01-5.52,17.27,4.62,25.7,37.62,48.42,60.33,57.5ZM351.84,254.4c-.05,2.59-2.99,3.07-3.63,5.73-2.15,8.97,12.81,20.62,19.63,24.6,7.8,4.55,22.78,10.41,31.8,9.55,2.04-.19,4.72-2.3,6.67-3.4.78-.44,1.71-.46,2.43-.93,2.54-1.66.52-5.92-.82-7.86-2.4-3.46-2.57-.62-4.75.85-3.99,2.71-8.15,4.11-13.05,3.51-16.81-2.09-32.55-15.99-37.32-32.04-.32-1.09-.24-2.83-1.44-3.36-.17,1.15.5,2.24.48,3.36ZM390.62,266.77c4.42-2.52-5.19-17.29-10.71-12.38s6.61,14.72,10.71,12.38ZM343.2,256.8c-1.16-1.17-8.59,7.89-8.07,11.18.12.77,7.3,11.13,8.46,13.15,7.94,13.94,11,25.13,15.44,40.24.21.7-.28.84.97.7,1.71-5.25,5.34-10.56,9.65-14.12,4.56-3.77,9.36-5.41,14.93-7.15,1.65-.51,4.19-.28,5.18-1.77-12.48-2.37-25.45-8.17-35.05-16.56-6.96-6.08-15.23-15.84-11.52-25.68ZM375.18,265.47c-1.98.35-.18,6.7-1.04,8.61.18.36,6.35,3.89,6.97,4.1,2.05.7,10.35,2.72,12.23,2.64,3.23-.14,9.34-3.13,8.05-7.07-1.75-5.4-3.64-2.85-6.93-1.91-5,1.43-7.94,1.53-12.71-1.02-2.71-1.45-4.07-3.79-6.57-5.34ZM432.48,295.2c.7.79,17.6-5.48,19.37-6.79.9-.66,3.59-3.36,4.36-4.28.71-.86,2.92-3.9,2.46-4.77-.96-.95-2.39-1.68-3.64-2.15-5.03-1.88-13.46-1.88-18.92-1.71-3.83.12-8.41,2.5-12.75,1.46-.76.61,2.42,2.22,2.88,2.63,4.45,3.98,7.84,9.41,6.24,15.6ZM426.09,293.61c2.03-1.76-.1-5.9-1.51-7.55-.71-.83-7.11-5.63-7.95-5.97-.95-.38-1.88-.3-2.86-.26-.05,1.78,1.27,3.06,1.78,4.69,1.29,4.14-.46,8.67-4.17,10.91,2.73,2.96,5.88,2.54,9.28,1.13.92-.38,4.85-2.45,5.44-2.96ZM468.79,283.76c-4.38,2.88-8.56,6.91-13.12,9.44-9.43,5.22-26.22,9.76-36.92,11.08-7.36.9-15.63-.84-22.94.11-12.6,1.63-25.79,6.58-30.56,19.36-1.41,3.79,4.76,5.89,7.71,6.73,25.77,7.4,71.11-12.07,90.49-29.5,4.37-3.93,13.95-12.83,5.34-17.21Z"/>
  <path class="st3" d="M106.87,479.09c1.73-.58,3.83.75,2.6,2.61-2.15,3.26-5.01-1.8-2.6-2.61Z"/>
  <path class="st0" d="M331.2,463.68c-.06.95.05,1.93,0,2.88h-.71c-.53-.09-.14-2.21-.24-2.88h.96Z"/>
  <path class="st8" d="M468.79,283.76c8.61,4.38-.97,13.28-5.34,17.21-19.38,17.44-64.72,36.91-90.49,29.5-2.94-.85-9.12-2.94-7.71-6.73,4.77-12.79,17.96-17.74,30.56-19.36,7.3-.94,15.57.8,22.94-.11,10.71-1.32,27.49-5.85,36.92-11.08,4.56-2.53,8.74-6.56,13.12-9.44Z"/>
  <path class="st9" d="M353.28,323.04c-22.71-9.08-55.72-31.8-60.33-57.5-.94-5.26-1.65-16.51,5.52-17.27,10.74-1.14,25.03,14.13,31.02,22.01,11.46,15.06,20.1,34.19,23.8,52.76Z"/>
  <path class="st8" d="M443.58,269.7c-2.48-12.03-7.97-23.8-17.32-31.91,7.2-8.73,21.06-4.84,28.78,1.49,8.79,7.2,15.79,22.64,8.55,33.04-2.29,3.29-4.07.21-7.13-.87-4.18-1.47-8.48-1.89-12.89-1.75Z"/>
  <path class="st8" d="M351.36,250.56c-.11.15-1.41-1.1-1.9-1.25-1.65-.5-9.08,1.77-10.74,2.76-3.26,1.92-6.01,6.99-8.23,10-5.69-5.46-10.76-11.78-17.94-15.43l-.07-.6c2.86-12.25,25.15-23.26,36.03-17.35,5.09,2.76,2.14,5.76,2.39,9.12.07.94.92,1.71.98,2.9.08,1.52-.89,2.6-.92,3.82-.03,1.1.94,5.27.4,6.02Z"/>
  <path class="st8" d="M343.2,256.8c-3.71,9.85,4.56,19.6,11.52,25.68,9.59,8.39,22.56,14.18,35.05,16.56-.99,1.49-3.53,1.26-5.18,1.77-5.57,1.73-10.38,3.37-14.93,7.15-4.31,3.56-7.93,8.87-9.65,14.12-1.24.13-.76,0-.97-.7-4.45-15.11-7.5-26.3-15.44-40.24-1.15-2.02-8.33-12.38-8.46-13.15-.52-3.3,6.91-12.35,8.07-11.18Z"/>
  <path class="st8" d="M359.04,232.32c2.33-5.85,1.64-9.74,6.47-15.37,14.6-17.02,40.58-1.7,49.68,13.69-2.08.23-3.94-.99-6-1.2-1.68-.17-4.57-.17-6.25-.02-2.04.18-6.07,1.92-7.11,1.81-1.65-.17-4.27-2.61-5.8-3.27-10.02-4.34-22.12-.96-30.99,4.35Z"/>
  <path class="st8" d="M307.2,243.84c-1.48-.7-4.78-.69-5.92-1.4-.18-.11-2.02-3.03-2.33-3.55-7.76-13.07-1.77-29.38,15.09-27.09,6.01.82,12.16,6.26,14.73,11.59-.14.6-5.26,2.61-6.36,3.26-6.52,3.84-13.38,9.58-15.22,17.19Z"/>
  <path class="st8" d="M437.28,269.76c-3.06-.3-5.93,1.02-8.89,1.44-1.64.23-3.52-.18-5.23.05-1.27.16-6.39,2.46-7,1.88,2.51-10.49-.53-21.35-6.8-29.92-1.79-2.44-4.26-4.39-5.92-6.56-.37-.48-.93-.61-.71-1.44,18.93-1.34,31.87,17.87,34.56,34.56Z"/>
  <path class="st8" d="M352.8,254.4c4.77,16.04,20.51,29.95,37.32,32.04,4.9.61,9.05-.8,13.05-3.51,2.18-1.47,2.35-4.31,4.75-.85,1.34,1.93,3.36,6.2.82,7.86-.72.47-1.65.49-2.43.93-1.95,1.1-4.63,3.21-6.67,3.4-9.02.86-23.99-4.99-31.8-9.55-6.82-3.98-21.78-15.63-19.63-24.6.64-2.66,3.58-3.14,3.63-5.73h.96Z"/>
  <path class="st8" d="M396.47,244.31c-.05.07-1.37.44-1.6.4-.32-.06-3.94-3.01-5.42-3.68-3.73-1.69-6.52-2.37-10.52-1.06s-8.51,6.04-8.33,10.27c.09,2.02,1.94,7.44,1.75,8.64-.3,1.85-5.73,5.32-4.19,8.95-.4.48-3.19-2.87-3.61-3.35-9.47-10.95-10.96-26.92,5.63-31.34,4.44-1.18,13.92-1.14,17.99,1,1.59.83,9.44,8.61,8.29,10.16Z"/>
  <path class="st8" d="M432.48,295.2c1.61-6.19-1.79-11.62-6.24-15.6-.47-.42-3.64-2.02-2.88-2.63,4.33,1.05,8.92-1.34,12.75-1.46,5.46-.17,13.89-.18,18.92,1.71,1.25.47,2.68,1.2,3.64,2.15.47.87-1.74,3.91-2.46,4.77-.76.92-3.46,3.62-4.36,4.28-1.77,1.31-18.67,7.58-19.37,6.79Z"/>
  <path class="st8" d="M375.18,265.47c2.5,1.55,3.87,3.89,6.57,5.34,4.77,2.55,7.71,2.44,12.71,1.02,3.28-.94,5.17-3.48,6.93,1.91,1.28,3.95-4.82,6.94-8.05,7.07-1.88.08-10.19-1.94-12.23-2.64-.62-.21-6.79-3.74-6.97-4.1.87-1.91-.93-8.26,1.04-8.61Z"/>
  <path class="st4" d="M406.2,270.6c-.21-.17-2.35-4.66-2.38-4.98-.2-1.99.76-4.26.11-6.91-.57-2.37-5.09-8.13-5.09-9.32,1.94-.94,3.03-2.96,3.4-5.06,7.15,6.42,11.44,19.35,7.43,28.31-.63-1.46-2.84-1.52-3.48-2.03Z"/>
  <path class="st8" d="M426.09,293.61c-.59.51-4.52,2.58-5.44,2.96-3.4,1.41-6.55,1.83-9.28-1.13,3.71-2.23,5.46-6.77,4.17-10.91-.51-1.63-1.83-2.91-1.78-4.69.98-.04,1.91-.13,2.86.26.85.34,7.24,5.14,7.95,5.97,1.41,1.65,3.54,5.78,1.51,7.55Z"/>
  <path class="st2" d="M398.33,261.53l-3.77,2.95c.55-4.44-4.23-10.38-7.66-12.74-1.95-1.35-5.25-1.61-7.36-.58-1.08.53-1.47,1.86-2.75,1.81-.44-3.07.24-5.26,2.9-6.94,7.43-4.66,17.44,9.23,18.63,15.51Z"/>
  <path class="st8" d="M390.62,266.77c-4.1,2.33-16.16-7.54-10.71-12.38s15.13,9.86,10.71,12.38Z"/>
  <path class="st7" d="M352.8,254.4h-.96c.02-1.11-.64-2.21-.48-3.36,1.2.53,1.11,2.27,1.44,3.36Z"/>
  <path class="st5" d="M359.04,232.32c-.15.37-.63,2.25-1.44,1.44-.86-.86,1.2-1.29,1.44-1.44Z"/>
  <path class="st8" d="M416.79,223.05c-5.74-5.12-8.29-9.66-15.67-13.85-19.09-10.84-40.02-5.48-46.41,16.4-2-.86-3.67-2.38-5.77-3.11-4.77-1.66-9.16-1.19-14.07-.81l-4.09-6.32c20.09-29.59,74.41-27.08,87.28,8.08-.18.28-1.17-.3-1.28-.4Z"/>
</svg>