<?xml version="1.0" encoding="UTF-8"?>
<svg id="Layer_11_xA0_Image" xmlns="http://www.w3.org/2000/svg" version="1.1" viewBox="0 0 612 792">
  <!-- Generator: Adobe Illustrator 29.2.1, SVG Export Plug-In . SVG Version: 2.1.0 Build 116)  -->
  <defs>
    <style>
      .st0 {
        fill: #eec276;
      }

      .st1 {
        fill: #eec275;
      }

      .st2 {
        fill: #3b1c15;
      }

      .st3 {
        fill: #fff;
      }

      .st4 {
        fill: #44312a;
      }

      .st5 {
        fill: #dca659;
      }

      .st6 {
        fill: #391f17;
      }

      .st7 {
        fill: #edc175;
      }

      .st8 {
        fill: #edc275;
      }

      .st9 {
        fill: #341d15;
      }

      .st10 {
        fill: #6b5a2a;
      }

      .st11 {
        fill: #3a231b;
      }

      .st12 {
        fill: #371e16;
      }

      .st13 {
        fill: #1e120b;
      }
    </style>
  </defs>
  <path class="st10" d="M218.4,471.36c1.16-.08,1.87,1.78,2.41,2.63,11.65,18.28,20.51,37.81,29.34,57.54,1.14,2.55,2.51,5.15,4.01,7.51.52-2.98-.35-6.23-.87-9.21-1.49-8.54-4.21-16.93-5.85-25.35-2.08-10.62-2.12-22.14-2.12-32.88,0-3.38-1.74-9.49.66-12.27,1.78-2.06,4.33-2.07,6.49-.67,1.69,1.1,6.91,6.6,8.43,8.37,23.76,27.67,39.7,102.4,23.53,135.38-.44.89-1.67,1.87-1.69,2.61,1.81,4.13,3.83,8.2,5.3,12.47,10.3,29.96,20.55,58.64,27.96,89.64,3.12,13.08,6.18,23.37,6.08,37.08-.06,7.83-.07,18.77-2.1,26.21-1.23,4.5-6.45,3.96-7.47-.32,2.96-16.67,3.2-34.13-.63-50.69-8.71-37.78-21.71-74.32-35.61-110.31-1.57-4.06-2.7-8.53-4.34-12.46-1.97-4.74-5.09-9.06-6.43-14.1-20.24-5.82-39-16.13-55.46-29.13-13.24-10.46-30.94-27.92-36.63-44.01-1.18-3.35-3.63-11.49-.86-14.07s3.79-.68,6.3,0c24.98,6.74,39.88,17.06,59.5,33.14.43.36,2.78,2.28,3.1,1.93-.9-5.83-4.54-10.53-7.13-15.67-6.48-12.85-12.03-24.41-20.23-36.41-.47-.69-1.2-1.01-.95-2.16,1.26.32,3.83.19,5.28.48-.06-1.75.09-3.54,0-5.28ZM241.68,530.88v.48c.31-.16.31-.32,0-.48ZM254.88,540.48v-.96h-.47v.96h.47Z"/>
  <path class="st5" d="M213.12,476.16c-4.26-1.09-8.68-5.9-12-8.64.71,7.33,1.25,17.79-6.09,22.01-.58.11-.78-.32-1.12-.64-2.22-2.1-5.49-6.21-6.97-8.88-2.62-4.75-4.62-10.95-5.04-16.33-.71-.12-.6.9-.72,1.43-1.21,5.33-1.72,10.09-4,15.21-1.54,3.45-4.2,8.63-8.74,7.62-1.11-2.52-2.96-4.57-3.8-7.25-1.66-5.28-.96-11.11-.51-16.53-4.45,4.2-8.25,8.26-14.01,10.71-.83.35-1.92.25-2.79.57-1.4.5-2.42,2.16-4.31,1.69-1.82-8.45,2.48-15.97,5.28-23.52-8.44,2.97-17.6,3.89-26.38,1.9-.81-.98,3.81-7.23,4.76-8.4l10.1-7.42h-11.76c-1.54,0-6.86-1.83-8.37-2.67s-4.93-3.43-3.77-5.4c.19-.32,5.53-3.63,6.3-4.02,1.08-.54,2.34-.82,3.44-1.36l14.64-3.35c-2.96-.22-19.03-9.68-18.69-11.71.52-3.05,14.42-2.86,17.01-2.69,1.78.12,3.72.85,5.53.95-1.87-3.59-15.47-12.07-16.24-14.73-.61-2.08.93-2.16,2.54-2.07,4.78.26,9.13,2.7,13.7,3.84.15-.7-.25-1.06-.56-1.59-2.26-3.8-5.78-7.3-8.16-11.52-.96-1.7-3-5.39-3.52-7.08-.17-.54-.33-.73.21-1.19,1.53-1.89,8.5,2.13,10.43,3.06l12.16,9.2c-1.22-4.68-3.81-9.44-2.84-14.37,2.23-1.58,11.09,8.01,12.92,9.57-.52-4.57-2.41-9.32-.91-13.88,1.76-1.2,6.68,3.94,7.88,5.23l5.99,8.64-3.27-13.78c2.13-4.16,8.18,2.23,10,4.41s2.92,4.81,4.78,6.97l5.81-16.76c1.65-1.15,3.92,2.56,4.54,3.78,2.55,5.03,2.88,10.86,2.14,16.34.83.22.96-.35,1.44-.71,2.69-2.06,10.47-11.43,13.27-11.71,1.22-.12,1.99,4.39,2.09,5.47.34,3.75-.46,7.64-1.83,11.12-1.47,3.74-4.23,6.61-5.84,10.23,7.35-1.76,15.56-6.25,23.29-5.79,4.62.28,3.16,3.45,1.76,6.6-1.82,4.1-5.41,7.11-8.5,10.22l-5.51,3.85c7.1.71,13.99,1.33,20.51,4.44,2.07,1.71-3.99,10.66-5.61,12.15-.59.54-2.92,1.98-3.65,2.11l-19.42-2.37,11.77,7.66c4.75,4.77,13.24,11.88,8.55,19.16-2.95-.74-5.94-.23-8.91-.56-3.84-.43-7.27-2.21-10.93-3.22,3.47,6,6.82,12.14,7.2,19.2.09,1.75-.06,3.53,0,5.28-1.45-.3-4.02-.16-5.28-.48ZM188.64,395.52c.9-.82,3.65-3.47,4.06-4.34.81-1.73,3.26-7.34,3.49-8.99.39-2.7.18-13.21-2.52-14.51-.9-.43-.7.69-.84,1.06-1.23,3.36-5.22,12.34-5.55,15.14s2.26,8.27,1.36,11.63ZM174.88,370.85l8,30.91c-.48-2.42,2.58-2.94,2.83-3.66.6-1.74.21-8.29-.16-10.29-1.14-6.13-5.06-13.94-10.67-16.96ZM173.76,402.72c-.24.09-.44,1.38-2.07.9-.89-.26-2.36-4.24-3.69-.42-.33-.87-1.33-2.22-1.34-3.21,0-.69.75-1.18.86-1.87.35-2.24-5.49-10.92-7.2-12.92-.77-.91-7.4-7.21-7.93-7.43-.7-.3-.76.14-.73.72.15,2.78,4.21,12.67,5.69,15.44,1.86,3.47,4.88,6.6,6.57,10.23l1.43.5c.39-1.44,1.42-.97,2.64-.97.02.04.59.03.45.44-1.49-.06-1.22,1.63-1.48,1.89-.33.32-2.15-.08-2.95.09-.32.07-2.59,2.53-1.68,3.27l1.35.81-1.51,3.04c-1.24.8-4.89-2.2-4.21,1.95l1.81.59.04,2.79-2.81.54c-.3,1.34.12,2.93,1.64,1.89l.23.94-3.08.92c-.68.47-.37,2.15.5,2.39l2.52.12.52,2.31c-2.15.19-5.06,2.6-2.15,3.89l2.62-.48c-.53,1.99,2.19,1.85,2.37,2.66l-.2,3.59c.64,1.03,2.41-.45,3.43-.5,2.23-.1,2.27,2.07,2.11,3.83l4.06-1.43c1.42.63-.52,2.94.99,3.35,1.65.46,1.92-1.67,2.23-1.85.23-.14,4.89.95,5.2,1.14.61.37,1.74,4.24,3.36,3.11,1.12-.78-1.53-5.34,2.55-4.33.63.15.72,2.32,2.4,1.88,2.36-.61-.09-3.85,1.77-5.01,1.56-.97,3.11,1.36,4.33.51,1.4-.97-1.21-2.45-.24-4.56.88-1.92,1.98-1.03,2.98-1.09,2.66-.15-1.53-3.41,1.6-5.38.71-.45,1.82-.12,2.37-1,.24-1.07-1.54-1.29-1.9-2.05-.39-.83-1.3-7.91-.96-8.24l1.92-.24c.68-.43.32-1.26.46-1.7,12.75,1.2,26.81-6.49,30.73-18.95-12.05.34-23.28,5.98-33.61,11.76,1.92,1.62.54,3.75,3.37,3.58l.44.55c.29,1.07-.71,1.9-.93,2.59-2.11.75-2.64-.69-3.23-.93s-1.32.23-2.28-.51c-.88-.68-.9-2.16-1.25-2.98-.58-1.37-.75-2.24-1.37-4.03-.16-.45.01-1.12-.02-1.63-2.17-.13-4.09.45-4.08,2.88l-1.17-3.16-5.99.68c-.91-.21-1.25-2.91-2.51-3.23-.66-.17-2.76,1.79-4.01,2.35-.47-1.6-1.07-3.41.47-4.59,1.23-.63,1.89,1.48,2.88,1.71-.47-4.11-2.2-8.42-3.9-12.17-2.57-5.63-6.38-12.1-11.45-15.67.65,11.14,5.68,21.29,11.04,30.72ZM212.64,374.88c-.83-.22-.96.35-1.44.71-2.92,2.24-6.53,5.93-9.13,8.63-4.16,4.32-7.9,9.14-11.77,13.72l.74,4.3c1.64-.71,3.82.61,4.07,2.39,9.81-6.16,19.76-17.35,17.52-29.75ZM159.29,406.01c.07-.9.56-1.9.31-2.78-.83-2.89-6.38-10.15-8.63-12.51-4.71-4.96-11.45-10.41-18-12.47,3.97,8.52,10.79,17.94,18,24,.77.65,5.62,4.15,6.14,4.18.55.03,1.52-.41,2.19-.42ZM198.48,384v.48c.31-.16.31-.32,0-.48ZM131.04,396c.21,1.24,1.92,2.28,2.87,3.12,4.39,3.88,13.55,10.76,18.86,12.82,1.16.45,2.48.45,3.7.62-.76-1.01-.16-2.34-.91-3.4-.43-.6-7.3-5.73-8.42-6.46-4.78-3.09-10.62-5.17-16.09-6.7ZM141.84,396.48v.48c.31-.16.31-.32,0-.48ZM207.12,397.92v.48c.31-.16.31-.32,0-.48ZM151.68,417.12c-2.94.47-1.9-1.3-2.64-2.41-.56-.84-9.1-2.96-10.7-3.22-5.29-.86-10.15-.73-15.46-.14-.71.54,2.15,2.23,2.53,2.51,7.35,5.33,17.56,9.6,26.75,9.01-.51-1.36-.45-1.78.48-2.87l-1.9-1.26.94-1.62ZM237.12,419.05c-6.83-3.09-14.1-3.13-21.41-3.8l-11.39,1.95-2.18,3.13,2.37,2.79-1.95,2.63,23.31,2.9c1.46-.32,3.87-.2,5.15-.6,2.06-.64,5.45-6.86,6.11-9.01ZM151.18,425.78c-12-.15-26-.81-35.5,7.65,11.28,6.85,26.82,4.11,37.92-1.92l-1.41-1.74.93-1.61c-1.85.11-2.03-.74-1.94-2.39ZM229.92,453.12c-.26-8.76-10.97-16.73-18.22-20.42-3.87-1.97-8.53-4.72-11.54-.45v.71s1.44.73,1.44.73v.96s-.91.44-.91.44l.38,3.61-1.38.74c3.37,2.53,5.88,6.02,9.45,8.31,2.66,1.71,10.91,5.37,13.83,5.37h6.96ZM156.48,434.88c-7.7,2.04-15.43,4.9-22.04,9.4-3.33,2.28-7.44,5.31-8.68,9.32,7.83,1.3,19.5-.19,26.08-4.88,2.42-1.73,4.88-5.96,7.51-7.86-1.45-1.63-2.83-3.42-2.87-5.98ZM216,474.24c.23-8.33-4.55-18.16-9.83-24.49-1.19-1.43-7.94-8.45-9.1-9.14-2.65-1.58-1.89.27-2.43.97-.42.55-1.28.24-1.69.84-.2.28-.96,2.72-.87,3.13.14.69,3.46,5.43,4.17,6.91,2.44,5.02,2.63,8.1,6.54,12.66,3.52,4.11,7.92,7.65,13.2,9.11ZM164.64,441.12c-.81-.2-.96.32-1.45.71-1.42,1.15-3.19,3.76-4.79,5.29-2.39,2.3-3.97,2.67-6.15,5.85-3.69,5.37-6.85,13.3-6.81,19.83,4.36-.08,7-1.75,10.3-4.33,4.04-3.15,7.24-7.21,10.26-11.34l5.36-12.64-6.73-1.2v-2.16ZM177.41,447.08c-.4-.39-2.8-2.46-3.17-2.12-.25,5.22-4.34,9.47-5.99,13.93-2.72,7.34-4.03,20.69,2.39,26.38,2.99-2.45,4.6-6.44,5.76-10.06,2.64-8.22,3.53-17.97,2.63-26.53-.61-.46-1.09-1.06-1.63-1.59ZM187.55,445.54c-.38.11-.73.65-1.15.72-.63.11-1.49-.6-2.11-.14-2.02,1.49-.41,16.14.17,19.1,1.39,7.12,4.68,16.59,11.08,20.52,4.3-4.61,3.68-13.93,2.55-19.76-.92-4.72-2.52-5.71-4.43-9.49-1.74-3.45-3.54-6.88-4.8-10.56-.33-.61-.71-.57-1.32-.39ZM149.04,453.12v.48c.31-.16.31-.32,0-.48Z"/>
  <path class="st4" d="M40.28,225.64c.15.1.4,1.72.8,2.32,2.11,3.14,7.79,4.9,9.35,7.45,1.37,2.25-.77,2.62-2.6,1.64-1.06-.57-7.81-5.58-8.46-6.42-.82-1.06-1.83-2.92-1.39-4.25.28-.85,1.84-1.08,2.31-.75Z"/>
  <rect class="st3" x="254.4" y="539.52" width=".47" height=".96"/>
  <path class="st3" d="M241.68,530.88c.31.16.31.32,0,.48v-.48Z"/>
  <path class="st13" d="M174.72,402.72c1.25-.56,3.35-2.52,4.01-2.35,1.26.32,1.6,3.02,2.51,3.23l5.99-.68,1.17,3.16c-.01-2.43,1.9-3.01,4.08-2.88.04.51-.13,1.18.02,1.63.62,1.79.79,2.66,1.37,4.03.35.82.37,2.3,1.25,2.98.96.74,1.68.26,2.28.51s1.12,1.68,3.23.93c-.05.14.05.34,0,.48-.14.45.22,1.27-.46,1.7l-1.92.24c-.34.33.57,7.41.96,8.24.36.76,2.14.98,1.9,2.05-.54.87-1.66.55-2.37,1-3.13,1.97,1.06,5.23-1.6,5.38-1,.05-2.09-.84-2.98,1.09-.97,2.11,1.64,3.59.24,4.56-1.22.85-2.77-1.48-4.33-.51-1.86,1.16.59,4.39-1.77,5.01-1.68.44-1.77-1.73-2.4-1.88-4.09-1-1.44,3.56-2.55,4.33-1.62,1.12-2.75-2.74-3.36-3.11-.31-.19-4.97-1.28-5.2-1.14-.31.19-.58,2.31-2.23,1.85-1.51-.42.43-2.72-.99-3.35l-4.06,1.43c.16-1.76.12-3.93-2.11-3.83-1.02.05-2.79,1.52-3.43.5l.2-3.59c-.17-.81-2.9-.67-2.37-2.66l-2.62.48c-2.9-1.29,0-3.69,2.15-3.89l-.52-2.31-2.52-.12c-.88-.23-1.18-1.91-.5-2.39l3.08-.92-.23-.94c-1.52,1.04-1.95-.55-1.64-1.89l2.81-.54-.04-2.79-1.81-.59c-.68-4.15,2.97-1.15,4.21-1.95l1.51-3.04-1.35-.81c-.91-.75,1.36-3.21,1.68-3.27.8-.16,2.63.24,2.95-.09.26-.26,0-1.94,1.48-1.89.14-.4-.43-.39-.45-.44-.06-.13.06-.34,0-.48,1.33-3.82,2.8.16,3.69.42,1.63.48,1.83-.81,2.07-.9s.74.1.96,0ZM186.71,411.36l.77-2.4-5.56-2.87-.49,1.91c.12.16,2.9.52,3.57,1,.95.68.59,3.34,1.7,2.36ZM178.65,410.3c-.27-.16-.35-1.12-.81-1.34h-.71s-1.3,1.88-1.3,1.88l-2.07-.92v3.84c1.62.46,1.33-.85,2.24-1.34,1.98-1.06,2.53-1.09,4.47-.11l.48-1.92c-.7-.09-1.72.24-2.31-.11ZM170.88,411.36h-1.44s.49,2.4.49,2.4h.95s0-2.4,0-2.4ZM185.76,411.84c-.48-.49-1.93.94-1.44,1.44s1.93-.94,1.44-1.44ZM174.24,416.16c.49-1.4-3.1-2.19-3.36-1.92v2.4s3.36-.48,3.36-.48ZM188.64,418.08l-.7-3.42-4.06-.37-1,3.31,3.12-.97.27,1.4,2.37.05ZM168.48,423.84c-1.39-2.13,1.88-4.58-.71-5.27-.31.89-2.44,5.01-2.16,5.28h2.88ZM187.2,432.48c-2.4-.52-3.75.23-5.05-2.4-1.28-.32-1.34,2.1-1.2,2.88,1.85-.51,2.95,1.43,4.55.48l.25,1.45c1.41.38,1.09-1.54,1.44-2.4Z"/>
  <path class="st1" d="M187.55,445.54c.61-.17.99-.21,1.32.39,1.26,3.68,3.06,7.1,4.8,10.56,1.91,3.78,3.51,4.78,4.43,9.49,1.13,5.82,1.75,15.14-2.55,19.76-6.4-3.93-9.7-13.4-11.08-20.52-.58-2.96-2.19-17.62-.17-19.1.62-.46,1.47.25,2.11.14.42-.07.77-.61,1.15-.72Z"/>
  <path class="st0" d="M229.92,453.12h-6.96c-2.92,0-11.17-3.67-13.83-5.37-3.57-2.29-6.08-5.79-9.45-8.31l1.38-.74-.38-3.61.93-.44v-.96s-1.45-.73-1.45-.73v-.71c3.01-4.27,7.67-1.52,11.54.45,7.25,3.69,17.96,11.66,18.22,20.42Z"/>
  <path class="st1" d="M164.64,441.12v2.16s6.72,1.2,6.72,1.2l-5.36,12.64c-3.01,4.13-6.22,8.19-10.26,11.34-3.3,2.58-5.95,4.25-10.3,4.33-.05-6.53,3.12-14.46,6.81-19.83,2.18-3.18,3.76-3.54,6.15-5.85,1.6-1.54,3.36-4.14,4.79-5.29.48-.39.63-.91,1.45-.71Z"/>
  <path class="st1" d="M237.12,419.05c-.65,2.15-4.05,8.37-6.11,9.01-1.28.4-3.69.28-5.15.6l-23.31-2.9,1.95-2.63-2.37-2.79,2.18-3.13,11.39-1.95c7.31.67,14.59.71,21.41,3.8Z"/>
  <path class="st1" d="M177.41,447.08c.54.53,1.01,1.13,1.63,1.59.9,8.56,0,18.31-2.63,26.53-1.17,3.63-2.78,7.61-5.76,10.06-6.42-5.69-5.11-19.03-2.39-26.38,1.65-4.46,5.74-8.71,5.99-13.93.37-.34,2.77,1.72,3.17,2.12Z"/>
  <path class="st1" d="M216,474.24c-5.29-1.47-9.68-5.01-13.2-9.11-3.91-4.55-4.1-7.64-6.54-12.66-.72-1.47-4.03-6.22-4.17-6.91-.08-.42.68-2.85.87-3.13.41-.59,1.26-.29,1.69-.84.54-.7-.22-2.55,2.43-.97,1.16.69,7.91,7.71,9.1,9.14,5.28,6.32,10.06,16.15,9.83,24.49Z"/>
  <path class="st1" d="M200.64,413.28c.22-.68,1.22-1.52.93-2.59l-.44-.55c-2.83.18-1.45-1.95-3.37-3.58,10.33-5.78,21.56-11.42,33.61-11.76-3.91,12.47-17.98,20.15-30.73,18.95.05-.14-.05-.34,0-.48Z"/>
  <path class="st1" d="M156.48,434.88c.04,2.56,1.43,4.35,2.87,5.98-2.63,1.9-5.08,6.14-7.51,7.86-6.58,4.69-18.25,6.17-26.08,4.88,1.25-4,5.35-7.04,8.68-9.32,6.6-4.51,14.34-7.37,22.04-9.4Z"/>
  <path class="st8" d="M151.18,425.78c-.09,1.65.09,2.5,1.94,2.39l-.93,1.61,1.41,1.74c-11.1,6.03-26.64,8.77-37.92,1.92,9.51-8.46,23.5-7.8,35.5-7.65Z"/>
  <path class="st1" d="M212.64,374.88c2.24,12.4-7.71,23.6-17.52,29.75-.26-1.78-2.44-3.1-4.07-2.39l-.74-4.3c3.87-4.58,7.61-9.4,11.77-13.72,2.6-2.7,6.21-6.39,9.13-8.63.48-.37.61-.93,1.44-.71Z"/>
  <path class="st8" d="M159.29,406.01c-.68.01-1.64.45-2.19.42-.52-.03-5.36-3.53-6.14-4.18-7.21-6.06-14.03-15.48-18-24,6.55,2.06,13.29,7.52,18,12.47,2.24,2.36,7.8,9.62,8.63,12.51.25.88-.23,1.88-.31,2.78Z"/>
  <path class="st8" d="M151.68,417.12l-.94,1.62,1.9,1.26c-.93,1.09-1,1.5-.48,2.87-9.19.59-19.4-3.68-26.75-9.01-.38-.27-3.24-1.96-2.53-2.51,5.31-.59,10.17-.72,15.46.14,1.6.26,10.14,2.38,10.7,3.22.74,1.11-.3,2.87,2.64,2.41Z"/>
  <path class="st8" d="M173.76,402.72c-5.35-9.43-10.38-19.58-11.04-30.72,5.06,3.57,8.88,10.04,11.45,15.67,1.71,3.75,3.43,8.06,3.9,12.17-.99-.23-1.65-2.34-2.88-1.71-1.55,1.18-.95,2.99-.47,4.59-.22.1-.72-.1-.96,0Z"/>
  <path class="st8" d="M168,403.2c.06.14-.06.35,0,.48-1.22,0-2.26-.47-2.64.97l-1.43-.5c-1.69-3.63-4.71-6.76-6.57-10.23-1.48-2.77-5.53-12.66-5.69-15.44-.03-.58.02-1.02.73-.72.53.22,7.15,6.53,7.93,7.43,1.71,2,7.56,10.69,7.2,12.92-.11.69-.87,1.18-.86,1.87,0,.99,1,2.34,1.34,3.21Z"/>
  <path class="st8" d="M174.88,370.85c5.61,3.03,9.53,10.83,10.67,16.96.37,1.99.76,8.55.16,10.29-.25.72-3.31,1.23-2.83,3.66l-8-30.91Z"/>
  <path class="st8" d="M188.64,395.52c.9-3.36-1.7-8.77-1.36-11.63s4.32-11.78,5.55-15.14c.14-.37-.06-1.49.84-1.06,2.7,1.3,2.91,11.81,2.52,14.51-.24,1.65-2.68,7.26-3.49,8.99-.41.87-3.15,3.51-4.06,4.34Z"/>
  <path class="st7" d="M131.04,396c5.47,1.53,11.32,3.61,16.09,6.7,1.12.73,8,5.86,8.42,6.46.75,1.06.15,2.4.91,3.4-1.22-.17-2.54-.17-3.7-.62-5.31-2.06-14.47-8.95-18.86-12.82-.95-.84-2.66-1.89-2.87-3.12Z"/>
  <path class="st3" d="M207.12,397.92c.31.16.31.32,0,.48v-.48Z"/>
  <path class="st3" d="M141.84,396.48c.31.16.31.32,0,.48v-.48Z"/>
  <path class="st3" d="M149.04,453.12c.31.16.31.32,0,.48v-.48Z"/>
  <path class="st3" d="M198.48,384c.31.16.31.32,0,.48v-.48Z"/>
  <polygon class="st12" points="188.64 418.08 186.27 418.03 186 416.63 182.88 417.6 183.88 414.28 187.95 414.66 188.64 418.08"/>
  <path class="st9" d="M178.65,410.3c.59.34,1.61.02,2.31.11l-.48,1.92c-1.94-.99-2.49-.96-4.47.11-.91.49-.62,1.8-2.24,1.34v-3.84s2.07.92,2.07.92l1.3-1.88h.71c.47.21.54,1.18.81,1.33Z"/>
  <path class="st6" d="M187.2,432.48c-.35.86-.03,2.78-1.44,2.4l-.25-1.45c-1.61.95-2.7-.98-4.55-.48-.15-.78-.08-3.2,1.2-2.88,1.29,2.64,2.65,1.88,5.05,2.4Z"/>
  <path class="st2" d="M186.71,411.36c-1.12.97-.76-1.69-1.7-2.36-.67-.48-3.45-.83-3.57-1l.49-1.91,5.56,2.87-.77,2.4Z"/>
  <path class="st11" d="M168.48,423.84h-2.88c-.27-.27,1.86-4.39,2.16-5.27,2.59.7-.68,3.15.71,5.27Z"/>
  <path class="st9" d="M174.24,416.16l-3.35.48v-2.4c.25-.27,3.84.51,3.35,1.92Z"/>
  <polygon class="st9" points="170.88 411.36 170.88 413.76 169.93 413.76 169.44 411.36 170.88 411.36"/>
  <path class="st2" d="M185.76,411.84c.49.5-.95,1.92-1.44,1.44s.95-1.92,1.44-1.44Z"/>
</svg>