<?xml version="1.0" encoding="UTF-8"?>
<svg id="Layer_14_xA0_Image" xmlns="http://www.w3.org/2000/svg" version="1.1" viewBox="0 0 612 792">
  <!-- Generator: Adobe Illustrator 29.2.1, SVG Export Plug-In . SVG Version: 2.1.0 Build 116)  -->
  <defs>
    <style>
      .st0 {
        fill: #e65a62;
      }

      .st1 {
        fill: #f3b0b9;
      }

      .st2 {
        fill: #e66862;
      }

      .st3 {
        fill: #b09c61;
      }

      .st4 {
        fill: #d6cbad;
      }

      .st5 {
        fill: #d8ceb2;
      }

      .st6 {
        fill: #c3b489;
      }

      .st7 {
        fill: #d3c8a8;
      }

      .st8 {
        fill: #d9cfb3;
      }

      .st9 {
        fill: #cfc4a2;
      }

      .st10 {
        fill: #d2c7a7;
      }

      .st11 {
        fill: #d5caab;
      }

      .st12 {
        fill: #e75566;
      }

      .st13 {
        fill: #d1c6a4;
      }

      .st14 {
        fill: #e1dac4;
      }

      .st15 {
        fill: #e65464;
      }

      .st16 {
        fill: #d7cdaf;
      }

      .st17 {
        fill: #d66a62;
      }

      .st18 {
        fill: #d9d0b4;
      }
    </style>
  </defs>
  <path class="st3" d="M264.48,399.36c.6.05,1.28.42,1.92.48.75.07,3.74.02,3.66-.98,1.73-.38,4.72,3.25,6.19,4.33l1.17-2.19c2.27-.04,1.99-.61,2.46-2.58l1.4-.03-.47,3.84c.95-.44,1.41-1.44,2.4-1.92.12-.06.33.04.48,0h.48c-.06.27.04.65,0,.96-.46.34-1.74,2.15-1.69,2.87l2.65-2.87c.66-.34,1.18-1.33,2.4-.96l-.24,2.39,7.29-4.74.65.16c.48,2.16,1.25.14,2.38,1.22-1.21,1.7-1.57,2.8-3.84,4.32-3.37,2.25-7.98,3.94-11.4,6.36-.96,2.34-.77,4.29-.6,6.6l-.42.3.42.66c1.25,15.98,4.24,32.45,6.24,48.48l-.42.3.42.66.48,2.88-.42.3.42.66c.63,1.92.29,3.9.48,5.76.08.76-.03,1.73.96,1.92.07-.62-.08-1.31,0-1.92,2.79-19.9,14.57-47.49,27.85-62.63,26.8-30.56,58.49-21.68,71.87,14.99,1.04,2.84,3.38,9.15,3.03,11.9-1.2,9.32-2.51,16.97-7.32,25.33-7.37,12.79-19.5,23.28-33.61,27.83-1.17.38-3.89.52-4.56.96-.57.37-1.27,2.69-2.08,3.44-2.49,2.31-6.74,1.27-6.66-2.31.04-1.95,1.09-2.52,1.62-3.69.74-1.67-.02-2.79,2.32-3.92.7-.34,1.77-.2,2.16-.47s4.08-6.61,4.89-7.7c1.32-1.77,3.41-3.05,4.76-5.45,2.87-5.11,4.88-17.62,4.37-23.45-.12-1.41-1.76-10.59-2.17-11.27-.47-.79-5.09-3.31-6.15-3.24-1.58.1-7.03,1.29-8.69,1.81-6.65,2.09-13.05,10.37-17.26,15.86s-5.37,8.67-8.41,14.15c-2.19,3.94-5.77,7.34-7.89,11.79s-3.69,10.08-5.33,14.83c-2.24,6.46-6.32,16.2-6,23.04l-.48.96h.96c.2,2.39.76,4.77.96,7.2.05.62-.27,1.58.48,1.92-.2.89-.41,1.97-.48,2.88-.04.52-.11,1.22.48,1.44-.4,1.41-1.52,5.3-1.49,6.49.02.65,1.74,1.41,1.84,2.94.07.99-.83,2.04-.84,3.28-.05,4.79,1.81,12.21,2.4,17.29.97,8.39,1.7,16.95,2.92,25.4s3.77,17.18,3.8,25.72l.48.96c-.16,1.37.39,2.26.48,3.36l-.4.3.4.66c.18,2.33-.29,5.7.03,7.42,1.29,6.97,2.9,14.22,3.82,21.14,1.31,9.81,2.72,19.67,3.83,29.53l-.41.3.41.66.48,7.2.48.96c-.35,4.11,1.81,14.45,2.4,19.2l-.41.3.41.66c.14,1.13.35,2.24.48,3.36l-.42.3.42.66.48,2.88-.41.3.41.66.96,7.2-.41.3.41.66c.28,2.4.69,4.81.96,7.2l-.41.3.41.66.48,2.88-.4.3.4.66c.13,1.15.36,2.26.48,3.36l-.48.72.48.24c.82,7.61,1.97,15.15,2.88,22.8.35,2.94.61,5.91.96,8.88l-.41.3.41.66.96,7.2-.41.3.41.66c.46,3.94.66,8.32,1.92,12h-7.2c-.1-.97-.35-1.91-.48-2.88l.41-.3-.41-.66-.96-7.2.41-.3-.41-.66c-.29-2.39-.68-4.81-.96-7.2.75-.56.33-1.18-.48-1.44-.25-2.13-.21-4.4-.48-6.72l.41-.3-.41-.66-.96-7.2.41-.3-.41-.66-1.92-15.36.41-.3-.41-.66-2.4-19.2.41-.3-.41-.66c-.13-1.13-.35-2.24-.48-3.36l.41-.3-.41-.66-.96-7.2.41-.3-.41-.66-1.44-11.04.41-.3-.41-.66c-.14-1.13-.35-2.24-.48-3.36l.41-.3-.41-.66-.48-2.88.41-.3-.41-.66c-.28-2.39-.68-4.81-.96-7.2l.41-.3-.41-.66c-.28-2.39-.67-4.81-.96-7.2l.47-.29-.47-.67c-.96-7.98-1.35-17.13-4.2-24.36l-3.46-29.08c-8.26-4.84-14.18-14.15-19.13-22.25-8.68-14.21-16.39-30.87-22.88-46.24-12.29-29.15-24.86-63.93-27.62-95.5.81-.89.81-3.43,0-4.32.41-3.41,1.19-5.06,1.83-8.05.23-1.06-.49-1.81.04-3.24,1.73-4.73,7.99-4.69,11.83-2.65,13.19,7.02,28.56,46.35,33.83,60.73,2.75,7.51,5.37,15.15,7.67,22.81.1.34-.14,1.02.01,1.58.09.35.76.36.79.45.15.43-.7,1.53.63,1.82.34-1.34-.39-2.68-.48-3.84-1.96-27.21-6.9-54.15-9.66-81.3l-10.15-29.45-7.87-3.43-1.33.92c-4.44-1.9-8.31-3.6-12.01-6.75-.88-.75-1.48-1.75-2.17-2.39-.06-.45.09-1.03,0-1.44,2.92-.7,5.26,3.06,7.53,3.67,1.25.33,4.17-.07,5.65.2,2.73.5,4.39,1.13,7.47,1.41Z"/>
  <path class="st15" d="M243.84,395.52c-29.91-27.41-42.46-70.57-17.19-105.75,1.55-2.16,11.98-14.24,13.69-14.68,2.09-.53,4.86,4.46,5.65,4.27,1.5-1.71,4.95-11.96,6.33-12.42,3.24-1.07,8.51,4.44,10.75,6.39,1.09.95,3.1.9,2.86,3.15l1.44-.24c4.92-3.83,10.95-10.26,17.13-4.89,4.64,4.02,9.05,10.1,12.17,15.06.24.38,1.18,5.6,2.37,4.47,2.56-8.46,7.79-20.21,17.77-21.12-.8,1.86.94,2.54.95,2.7.1,2.22,1.54,5.61,2.88,7.68l-.36,1.07c.71.44.83,1.03,1.34,1.85.71,1.15-.58,1.91.97,2.34l-.5,1.16c3.17-.33,6.33-1.05,9.51-1.33.55-.05.93-.21,1.32.35-.1,4.01-.47,8.03-.74,12.02l-.48.72.48.24c-2.12,28.31-8,70.2-24.77,93.55-3.41,4.74-7.87,9.91-13.63,11.57,2.27-1.52,2.63-2.62,3.84-4.32.3-.42,4.57-3.66,5.75-5.05,15.92-18.93,24.58-61.69,26.41-85.91.35-4.7,1.45-15.04.91-19.16-.07-.56-.25-1.14-.5-1.65-1.75-.01-4.39-.49-5.9.47-2.43,1.54-4.58,1.91-6.96,3.58-20.44,14.38-31,57.71-32.99,81.15-.1,1.2-.72,8.09-.67,8.51.04.37,1.03.09,1.02.99,0,1.36.07,8.18-.02,8.6-.07.35-.96.28-1,.61-.32,2.4,1.47,4.64.5,8.82h-.48l-.48-.48c-2.87-27.43,2.4-57.06,13.36-82.4,2.54-5.88,5.09-7.16,4.27-14.3-1.16-10.03-10.27-24.4-18.1-30.74-2.57-2.08-2.87-1.84-5.94-.65-11.43,4.41-17.23,19.5-20.39,30.43,6.22,18.54,10.31,37.88,11.92,57.35l.48,1.44c-.47,1.61-.1,3.19,0,4.8.05.87.48.91.48.96.06,1.11-.04,2.25,0,3.36v1.44c-.42,4.23.32,9.4,0,13.44,0,.05-.41.16-.48.96-.41,4.7-1.21,9.32-2.4,13.92-.64-.06-1.32-.43-1.92-.48,1.58-4.33,2.66-8.77,3.08-13.38.07-.81-.25-1.64-.2-2.46.76-.32.76-2.08,0-2.4.16-3.35.53-6.64.48-10.08-.01-.91.33-2.36-.48-2.88-.02-1.92.02-3.84,0-5.76l-.48-1.44-1.92-18.24-.48-.96c-2.88-17.68-8.95-45.94-19.47-60.45-1.23-1.7-3.14-4.69-5.28-3.42-1.46.87-6.31,6.12-7.66,7.7-9.71,11.32-14.91,23.65-16.55,38.41,0,.05-.68.4-.48.96v9.6c-.21.16-.33.3-.32.58,0,.17.32.29.32.38.02.79-.06,1.61,0,2.4.03.41.01.83.48.96,1.18,17.92,10.74,35.14,22.31,48.49,1.51,1.75,5.58,4.79,6.01,6.71.09.41-.06.99,0,1.44ZM255.36,298.56l.24.47.24-.47c1.56-4.43,3.14-8.96,5.37-13.11.89-1.66,4.39-5.94,4.25-7.27-.26-2.45-9.4-9.27-12-10.34l-6.23,13.69c3.3,5.39,5.78,11.19,8.14,17.03ZM308.92,297.88c1.74-1.99,3.92-4.67,5.95-6.29,1.53-1.23,5.93-3.04,6.19-4.9l-4.84-13.22c-1.89-3.77-7.07,1.88-8.53,3.75-3.06,3.91-7.38,12.28-7.22,17.25.11,3.39,2.15,6.43,2.16,9.87l1.2.47c1.28-2.54,3.24-4.8,5.09-6.92Z"/>
  <path class="st6" d="M230.88,452.64c-.19-2.2-.28-1.96,0-4.32.81.89.81,3.43,0,4.32Z"/>
  <path class="st8" d="M287.04,517.92c.08,1.16.81,2.5.48,3.84-1.33-.29-.48-1.39-.63-1.82-.03-.09-.7-.1-.79-.45-.15-.55.09-1.23-.01-1.58h.96Z"/>
  <path class="st7" d="M298.08,526.56h.96c.38.86-.39,1.51-.48,1.92-.75-.34-.43-1.3-.48-1.92Z"/>
  <path class="st16" d="M289.92,476.64c-.09.61.07,1.3,0,1.92-.98-.19-.88-1.16-.96-1.92h.96Z"/>
  <path class="st7" d="M298.08,531.36c1.83-.18.69.7.48,1.44-.59-.22-.52-.92-.48-1.44Z"/>
  <path class="st18" d="M320.16,772.8c0-.08-.37-.53-.48-1.44.81.26,1.23.88.48,1.44Z"/>
  <path class="st1" d="M332.16,298.56l-.48-.24.48-.72s.35.21.32.58c-.01.18-.32.29-.32.38Z"/>
  <polygon class="st13" points="318.24 756.48 318.24 755.52 318.65 756.18 318.24 756.48"/>
  <path class="st13" d="M319.2,764.64s-.37-.2-.42-.66c-.03-.24.19-.37.42-.3l.41.66-.41.3Z"/>
  <path class="st10" d="M326.88,771.84l-.41-.66.41-.3s.37.2.42.66c.03.24-.2.37-.42.3Z"/>
  <path class="st10" d="M327.84,780l-.41-.66.41-.3c.27.17.39.34.42.66.05.39-.43.28-.42.3Z"/>
  <path class="st18" d="M321.12,780.96c-.27-.17-.39-.34-.42-.66-.05-.39.43-.28.42-.3l.41.66-.41.3Z"/>
  <path class="st16" d="M322.08,789.12c-.01-.1-.97-.8,0-.96l.41.66-.41.3Z"/>
  <path class="st9" d="M281.76,417.6l-.42-.66.42-.3c.05.67,0,.89,0,.96Z"/>
  <path class="st16" d="M288,467.04l-.42-.66.42-.3s.37.2.42.66c.03.24-.2.37-.42.3Z"/>
  <polygon class="st16" points="288.48 470.88 288.06 470.22 288.48 469.92 288.48 470.88"/>
  <path class="st16" d="M308.16,671.04c-.11-.89,0-.89,0-.96l.47.67-.47.29Z"/>
  <path class="st9" d="M297.12,519.36h-.96s.48-.96.48-.96c0,.05.41.14.48.96Z"/>
  <path class="st14" d="M307.2,613.92h.96c.19.51-.47.9-.48.96l-.48-.96Z"/>
  <path class="st14" d="M308.16,619.2l-.4-.66.4-.3c.06.72,0,.89,0,.96Z"/>
  <path class="st4" d="M315.84,678.24l-.41-.66.41-.3s.37.2.42.66c.03.24-.19.37-.42.3Z"/>
  <path class="st16" d="M309.12,679.2c-.11-.89,0-.89,0-.96l.41.66-.41.3Z"/>
  <path class="st11" d="M316.32,685.44h.96c.19.5-.47.9-.48.96l-.48-.96Z"/>
  <path class="st16" d="M310.08,687.36c-1.02-.81,0-.89,0-.96l.41.66-.41.3Z"/>
  <path class="st16" d="M310.56,691.2c-.01-.09-.97-.8,0-.96l.41.66-.41.3Z"/>
  <path class="st16" d="M311.04,695.52c-1.03-.81,0-.89,0-.96l.41.66-.41.3Z"/>
  <path class="st5" d="M319.2,706.56l-.41-.66.41-.3c.11.91,0,.89,0,.96Z"/>
  <polygon class="st13" points="312.48 707.52 312.48 706.56 312.89 707.22 312.48 707.52"/>
  <path class="st5" d="M319.68,710.88l-.42-.66.42-.3c.01.09.97.8,0,.96Z"/>
  <polygon class="st5" points="320.16 714.72 319.75 714.06 320.16 713.76 320.16 714.72"/>
  <path class="st11" d="M313.44,715.68c-.01-.09-.97-.8,0-.96l.41.66-.41.3Z"/>
  <path class="st11" d="M313.92,720c-1.03-.81,0-.89,0-.96l.41.66-.41.3Z"/>
  <path class="st5" d="M321.12,722.88l-.41-.66.41-.3c1.03.81,0,.89,0,.96Z"/>
  <path class="st5" d="M322.08,731.04l-.41-.66.41-.3s.37.2.42.66c.03.24-.19.37-.42.3Z"/>
  <path class="st5" d="M322.56,734.88l-.4-.66.4-.3c1.02.81,0,.89,0,.96Z"/>
  <path class="st5" d="M323.04,739.2l-.48-.24.48-.72c.07.65,0,.9,0,.96Z"/>
  <polygon class="st13" points="316.32 740.16 316.32 739.2 316.73 739.86 316.32 740.16"/>
  <path class="st2" d="M264.48,341.76l.48.96,1.92,18.24.48,1.44c.02,1.92-.02,3.84,0,5.76.01.91-.33,2.36.48,2.88.05,3.44-.32,6.73-.48,10.08-.04.8.05,1.61,0,2.4s.27,1.65.2,2.46c-.42,4.61-1.5,9.05-3.08,13.38-3.08-.28-4.74-.91-7.47-1.41-1.47-.27-4.4.14-5.65-.2-2.26-.61-4.6-4.37-7.53-3.67-.42-1.92-4.49-4.97-6.01-6.71-11.58-13.35-21.13-30.56-22.31-48.49-.03-.41-.02-.83-.48-.96-.06-.79.02-1.61,0-2.4l.48-.72-.48-.24v-6.24l.48-.72-.48-.24v-2.4l.48-.96c1.65-14.76,6.84-27.09,16.55-38.41,1.35-1.57,6.2-6.83,7.66-7.7,2.13-1.27,4.04,1.71,5.28,3.42,10.52,14.51,16.59,42.76,19.47,60.45Z"/>
  <path class="st2" d="M283.2,399.84v.48c-.98.48-1.44,1.48-2.4,1.92l.47-3.84-1.4.03c-.46,1.97-.19,2.54-2.46,2.58l-1.17,2.19c-1.47-1.09-4.46-4.71-6.19-4.33.08,1-2.9,1.05-3.66.98,1.19-4.6,1.99-9.22,2.4-13.92l.48-.96c.32-4.04-.42-9.21,0-13.44.72-.07.72-1.37,0-1.44-.04-1.11.06-2.25,0-3.36l-.48-.96c-.1-1.61-.47-3.19,0-4.8l-.48-1.44c-1.62-19.47-5.71-38.81-11.92-57.35,3.15-10.93,8.96-26.01,20.39-30.43,3.07-1.19,3.38-1.43,5.94.65,7.83,6.34,16.94,20.71,18.1,30.74.82,7.14-1.73,8.41-4.27,14.3-10.95,25.34-16.22,54.98-13.36,82.4Z"/>
  <path class="st17" d="M285.12,401.28l-2.65,2.87c-.05-.72,1.23-2.53,1.69-2.87.15-.11.75.11.96,0Z"/>
  <path class="st2" d="M284.16,400.32c.97-4.18-.83-6.42-.5-8.82.04-.33.93-.27,1-.61.08-.43.01-7.24.02-8.6,0-.9-.98-.62-1.02-.99-.05-.43.57-7.31.67-8.51,1.99-23.44,12.55-66.78,32.99-81.15,2.38-1.67,4.53-2.04,6.96-3.58,1.5-.95,4.15-.48,5.9-.47.25.51.42,1.08.5,1.65.54,4.12-.56,14.46-.91,19.16-1.83,24.22-10.5,66.98-26.41,85.91-1.17,1.4-5.45,4.63-5.75,5.05-1.13-1.08-1.9.94-2.38-1.22l-.65-.16-7.29,4.74.24-2.39c-1.22-.38-1.73.62-2.4.96-.21.11-.81-.11-.96,0,.04-.31-.06-.69,0-.96Z"/>
  <path class="st2" d="M283.68,400.32c-.15.04-.36-.06-.48,0v-.48l.48.48Z"/>
  <path class="st0" d="M308.92,297.88c-1.85,2.11-3.81,4.38-5.09,6.92l-1.2-.47c-.01-3.44-2.05-6.48-2.16-9.87-.16-4.97,4.16-13.34,7.22-17.25,1.46-1.86,6.64-7.52,8.53-3.75l4.84,13.22c-.26,1.86-4.66,3.67-6.19,4.9-2.02,1.63-4.21,4.31-5.95,6.29Z"/>
  <path class="st0" d="M255.84,298.56h-.48c-2.36-5.85-4.84-11.65-8.14-17.03l6.23-13.69c2.61,1.06,11.75,7.89,12,10.34.14,1.33-3.36,5.6-4.25,7.27-2.22,4.15-3.8,8.68-5.37,13.11Z"/>
  <path class="st12" d="M267.84,371.04c-.81-.52-.47-1.97-.48-2.88.81.52.47,1.97.48,2.88Z"/>
  <path class="st12" d="M269.28,371.52v-1.44c.72.07.72,1.37,0,1.44Z"/>
  <path class="st12" d="M267.36,383.52c.05-.79-.04-1.6,0-2.4.76.32.76,2.08,0,2.4Z"/>
  <polygon class="st12" points="215.04 328.32 215.04 327.36 215.52 327.6 215.04 328.32"/>
  <path class="st12" d="M215.04,335.52c0-.09-.32-.22-.32-.38,0-.28.11-.42.32-.58l.48.24-.48.72Z"/>
  <path class="st12" d="M268.8,360.96l-.48-1.44.48,1.44Z"/>
  <path class="st12" d="M267.36,362.4l-.48-1.44.48,1.44Z"/>
  <path class="st12" d="M215.04,324.96c-.2-.56.47-.91.48-.96l-.48.96Z"/>
  <path class="st12" d="M215.52,338.88c-.47-.13-.45-.55-.48-.96.46.13.45.55.48.96Z"/>
  <path class="st12" d="M264.96,342.72l-.48-.96.48.96Z"/>
  <path class="st12" d="M269.28,366.72c0-.05-.43-.09-.48-.96l.48.96Z"/>
  <path class="st12" d="M268.8,385.92c.07-.8.48-.91.48-.96l-.48.96Z"/>
  <polygon class="st12" points="255.36 298.56 255.84 298.56 255.6 299.03 255.36 298.56"/>
</svg>