<?xml version="1.0" encoding="UTF-8"?>
<svg id="Layer_10_xA0_Image" xmlns="http://www.w3.org/2000/svg" version="1.1" viewBox="0 0 612 792">
  <!-- Generator: Adobe Illustrator 29.2.1, SVG Export Plug-In . SVG Version: 2.1.0 Build 116)  -->
  <defs>
    <style>
      .st0 {
        fill: #faebd8;
      }

      .st1 {
        fill: #af9b61;
      }

      .st2 {
        fill: #ece7d9;
      }

      .st3 {
        fill: #d8ceb1;
      }

      .st4 {
        fill: #b09c61;
      }

      .st5 {
        fill: #fff;
      }

      .st6 {
        fill: #f0ede4;
      }

      .st7 {
        fill: #dbd2b7;
      }

      .st8 {
        fill: #d9a664;
      }

      .st9 {
        fill: #887f46;
      }

      .st10 {
        fill: #af9c61;
      }

      .st11 {
        fill: #fcf2e7;
      }

      .st12 {
        fill: #f7f4ef;
      }

      .st13 {
        fill: #f1cfa3;
      }

      .st14 {
        fill: #e59d3f;
      }

      .st15 {
        fill: #d9a665;
      }
    </style>
  </defs>
  <path class="st1" d="M554.88,449.28c.13,1.21-.09,2.59,0,3.84.69,9.52-1.04,15.99-4.87,24.65-18.29,41.39-80.09,95.07-122.44,110.36-7.57,2.73-14.45,4.7-22.45,4.67-.92-1.86-2.03-2.3-1.23-4.82.48-1.51,1.9-1.67,2.09-1.99s.45-4.04.97-5.52c4.27-12.13,28.88-37.33,38.49-47.67,1.02-1.09,2.66-2,2.88-3.36,19.71-19.25,39.48-38.56,60.73-56.15,12.33-10.2,22.68-17.9,36.67-25.73,2.24-1.25,1.42-2.73,5.53-2.09,2.38.37,3.38,1.53,3.63,3.81Z"/>
  <path class="st4" d="M406.08,520.8l.48.96c-.2,1.49.35,4.03.48,5.76.06.76.48,1.36.48,1.44.09,1.75-.05,3.53,0,5.28.12,4.37.13,9.07,0,13.44-.06,1.91.12,3.86,0,5.76,0,.08-.43.67-.48,1.44-.19,2.66-1.15,7.36-.96,9.6l-.48.96-1.93,12.7.97.26c.17.65-.32,1.03-.48,1.44-1.9.11-.93.88-.96.96-3.07,7.73-4.43,18.85-11.47,23.81l-16.12,22.27c-.9,1.13-3.48,1.05-4.57.47-2.27-1.21-3.88-13.49-3.36-16.32l-.48-.96c.13-2.06-.38-4.12-.48-6.24-.32-6.61-.26-12.61,0-19.2.07-1.83.43-3.72.48-5.28.02-.48-.48-.88-.48-.96,0-.16.01-.32,0-.48h.96c.37-1.2-.48-1.35-.48-1.44,0-.77.42-2.19.48-3.36l.4-.66-.4-.3c1.26-17.35,6.62-38.06,13.36-54.08,1.75-4.17,10.71-22.3,14.12-23.79,1.84-.81,4.18-.61,5.27,1.21,3.57,5.96,4.83,18.39,5.65,25.31Z"/>
  <path class="st10" d="M426.24,420.48c.83,2.57,6.39,8.44,8.36,11.56,9.79,15.48,10.51,26.94,15.16,43.64l-.41.3c-.09.35.39.55.41.66.57,3.1.83,6.9.96,10.08.16,3.99.13,8.48,0,12.48-.06,1.93-.33,3.83-.48,5.76l-.48.72.48.24c-.07.92-.59,1.72-.48,2.88l-.48.96c.22,1.18-.31,2.25-.48,3.36-.07.45.05.98,0,1.44-1.61,3.07-2.46,8.7-4.1,12.46-2.66,6.13-6.46,11.04-11.27,15.61-1.22.56-3.08.23-4.32-.23-7-2.65-11.32-19.9-12.81-26.79-1.26-5.81-1.5-10.17-2.07-15.93-.03-.31.04-.64,0-.96h-.96c.66-4.08-.69-10.38-.96-14.88-.05-.79.04-1.6,0-2.4-.1-1.87-.42-3.69-.48-5.76-.2-6.66-.22-13.98,0-20.64.07-2.02.22-3.32.48-5.28.06-.46-.07-.99,0-1.44.05-.31,1.22-1.41,0-1.92.66-2.2.2-4.89.55-7.37.53-3.73,3.49-18.58,6.76-20.11,3.05-1.43,4.26.61,6.61,1.56Z"/>
  <path class="st14" d="M534.72,401.28c-1.08-.28-.88.55-1.44,1.2,1.68,1.13,1.65-.96,1.92-1.2,1.86-1.67,7.37-5.33,9.69-5.91,7.85-1.97,13.06,3.65,13.35,11.19.02.47.03.97,0,1.44-1.04,19.12-25.65,43.95-40.36,54.92-11.14,8.31-24.17,15.65-37.88,18.52-.03-.56-.22-2.02-.48-2.4,14.79-2.83,29.38-11.79,41.03-21.13,12.55-10.06,35.21-33.37,35.78-50.17.22-6.57-3.82-11.59-10.7-10.19-5.73,1.17-21.96,17.57-26.51,22.44-13.31,14.24-30.39,35.4-39.79,52.37-.93,1.67-1.87,3.32-2.2,5.24-1.88-.23-2.85,1.34-4.32,1.92-1.64-1.95-3.42-3.79-4.99-5.81-15.17-19.58-30.85-63.6-28.4-87.81.07-.66,1.42-5.83,1.68-6.01,7.43-1.75,12.44,3.93,16.83,8.91.19.22.65,1.23.96.96.06-.3-.08-.72,0-.96.62-1.8.05-1.79.18-3.04.99-9.37,7.15-31.5,20.49-25.07,6.14,2.96,7.24,11,9.36,16.58.15.39.15,1.38.93.96.4-.21,3.68-6.53,4.65-7.83,14.55-19.51,41.61-15.09,44.02,10.54.67,7.16-1.77,13.63-3.78,20.34ZM529.44,404.64c.21-.61,3.02-4.37,3.77-6.07,13.82-31.47-18.55-53.61-37.76-25.28-2.13,3.14-3.05,6.96-5.36,9.6.16,6.66-.02,13.24-.97,19.82,1.28.27.82-.34,1.19-.95,2.72-4.53,5.08-9.02,8.42-13.2,19.06-23.86,34.61-11.46,30.23,16.07-.1.63-.93,1.73-.48,2.88,1.45-.34.7-2.16.96-2.88ZM478.08,435.84c1.9-8.03,3.96-16.02,5.98-24.02,2.39-9.42,4.75-15.39,4.12-25.68-.46-7.45-3.96-25.56-14.2-24.24-8.71,1.12-13.71,23.88-12.72,31,.26,1.89,4.56,8.61,5.71,11.09,2.83,6.05,5.09,12.5,7.03,18.89,1.16,3.83,1.8,8.75,3.07,12.29.24.68-.15.81,1.01.67ZM479.99,467.52c12.8-21.17,29.02-40.04,45.96-57.96,3.31-10.89,2.75-40.42-15.87-28.83-10.47,6.52-20.25,25.18-24.33,36.63-5.96,16.72-7.13,31.33-6.23,48.98.03.54-.31,1.32.47,1.19ZM474.7,476.62c1.77-3.78,2.62-8.04,2.9-12.22,1.44-21.55-7.64-55.96-20.72-73.35-3.2-4.26-7.79-9.49-13.55-9.47-.46.13-1.64,5.59-1.72,6.52-2.04,22.4,14.51,67,28.6,84.66.74.92,3.28,4.71,4.49,3.87Z"/>
  <path class="st5" d="M366.72,603.84c.1,2.12.61,4.18.48,6.24,0,.05-.67.45-.48.96h.96c-.52,2.83,1.09,15.11,3.36,16.32l-95.72,138.76c-3.51,3.84,1.27,8.85,5.02,5.5l123.67-178.74c.35-.14.75-.08,1.11-.08,8,.03,14.88-1.94,22.45-4.67,42.36-15.29,104.15-68.97,122.44-110.36,3.83-8.66,5.56-15.13,4.87-24.65,3.83-.6,3.04,4.31,2.86,6.94-1.4,20.24-23.22,49.59-37.16,64.11-2.91,3.03-6.07,4.66-8.67,7.17-2.86,2.76-4.97,6.75-8.36,9.88-21.92,20.24-63.53,50.77-93.94,53.94-1.68.18-2.86-1.08-4.7.54l-122.9,178.06c-2.46,2.05-6.09,2-8.43-.22s-.73-3.52-1.31-6.15l95.7-139.55-3.2-16.59c1.55-2.92.46-2.04-.2-3.58-.8-1.86-.18-3.99,2.15-3.83Z"/>
  <path class="st5" d="M450.72,499.2c3.7.18,2.3,3.3,1.43,5.51l.96.24,16.74-25.13c-12.22-14.83-20.81-33.91-26.46-52.26-3.39-11.02-5.09-21.71-6.62-32.74-.44-3.18.62-12.08,1.68-15.17.56-1.63,3.24-3.07,4.79-1.94.42.31.15,2.42,1.23,1.48.11-.1.16-1.27.96-1.7,1.43-.76,5.48,1.4,6.88,2.27.93.57,4.43,4.01,5.12,3.27.81-10.11,7.45-28.02,20.29-25.81,5.97,1.03,9.19,7.09,11.49,12.03.43.92.24,2.74,1.58,2.74.28,0,2.46-3.76,3.14-4.55,20.03-23.21,49.19-10.02,47.02,20.13-.17,2.4-1.04,5.06-1.44,7.45.33.32,4.69-2.31,6.03-2.37.77-.04,1.5.42,2.31.41.88-.01,1.65-.52,2.87-.42,3.43.28,7.57,4.47,8.82,7.54.9,2.19,2.49,6.32-1.32,6.36-.29-7.54-5.51-13.16-13.35-11.19-2.32.58-7.82,4.24-9.69,5.91h-.48c2.01-6.71,4.45-13.18,3.78-20.34-2.41-25.63-29.47-30.05-44.02-10.54-.97,1.3-4.25,7.62-4.65,7.83-.78.42-.78-.57-.93-.96-2.11-5.58-3.22-13.62-9.36-16.58-13.33-6.43-19.5,15.69-20.49,25.07-.13,1.25.44,1.24-.18,3.04h-.96c-4.39-4.98-9.4-10.67-16.83-8.91-.25.18-1.61,5.35-1.68,6.01-2.45,24.22,13.23,68.23,28.4,87.81,1.57,2.02,3.35,3.86,4.99,5.81-6.55,10.93-14.56,20.9-21.42,31.61-.91,1.41-1.77,2.02-2.1,2.47l-.48-.48c.17-1.11.7-2.18.48-3.36h.96c.19-.5-.47-.9-.48-.96-.11-1.16.41-1.96.48-2.88,0-.09.34-.19.36-.37.03-.36-.36-.54-.36-.59.15-1.93.42-3.83.48-5.76Z"/>
  <path class="st5" d="M558.24,408c4.27-.78,1.64,6.23.97,8.41-2.6,8.39-8.95,17.62-14.42,24.46-.96,1.21-5.44,5.56-5.74,6.26-.25.59.09.89.71.71s3.79-1.78,4.53-2.19c.86-.48,1.45-1.79,2.3-2.03,1.31-.38,2.25.36,3.2.26,2.06-.21,2.19-1.53,5.08.4,2.16,1.44,4.05,5.38.02,5.02-.25-2.28-1.25-3.44-3.63-3.81-4.11-.64-3.3.83-5.53,2.09-13.99,7.83-24.34,15.53-36.67,25.73-21.25,17.59-41.02,36.9-60.73,56.15v-.48c10.87-14.52,20.24-30.84,31.25-45.35.2-.4.45-1.76.43-2.17,13.71-2.87,26.74-10.21,37.88-18.52,14.71-10.97,39.32-35.8,40.36-54.92Z"/>
  <path class="st5" d="M366.72,578.4c-3.76-.8-1.07-3.71-1.01-5.01,1-22.52,8.45-49.44,19.65-69.23,1.57-2.77,7.08-12.08,10.02-12.55l5.09.38c3.52,3.77,4.77,8.94,5.95,13.84,1.47,6.14,2.1,12.72,3.03,18.61.28,1.76-.62,3.04-2.41,3.08-.13-1.73-.68-4.27-.48-5.76,0-.07.67-.44.48-.96h-.96c-.82-6.92-2.08-19.35-5.65-25.31-1.09-1.82-3.42-2.02-5.27-1.21-3.41,1.49-12.37,19.63-14.12,23.79-6.73,16.03-12.1,36.74-13.36,54.08,0,.05-.38.23-.41.66-.02.4.41.27.41.3-.06,1.17-.49,2.59-.48,3.36-.45.39-.52.87-.48,1.44.01.16,0,.32,0,.48Z"/>
  <path class="st5" d="M412.32,483.84c.27,4.5,1.62,10.8.96,14.88-.05.3.02.65,0,.96h.96c.56,5.76.81,10.13,2.07,15.93,1.49,6.89,5.81,24.14,12.81,26.79l-24.48,36-.97-.26,1.93-12.7h.96c.19-.5-.47-.9-.48-.96-.19-2.24.77-6.94.96-9.6,1.95.26,2.75,1.07,2.39,3.09-.53,2.95-1.16,6.46-1.38,9.69-.05.72-.4,1.33.66,1.14l17.05-24.73c.26-2.12-1.41-2.09-2.18-3.08-7.4-9.4-11.46-32.54-12.67-44.51-.13-1.33-.53-3.78-.56-4.74-.05-1.4,1.05-2.35.96-2.8-.1-.56-1.32-.87-1.44-2.46-.14-1.79.43-3.17,2.45-2.65Z"/>
  <path class="st5" d="M411.84,448.32c-2.01-.24-2.13-1.74-1.82-3.49.95-5.26,1.33-10.95,2.81-16.39s3.71-13.42,10.65-12.16c3.22.58,2.1,2.2,2.75,4.2.29.12,1.23-.01,1.91.23,6.12,2.18,15.46,22.44,17.78,28.8,2.82,7.75,6.32,20.76,6.68,28.88.03.67-.02,1.76-.4,2.28-.49.67-1.9-.29-1.48,1.23,3.33-.19,3.38,5,0,4.81-.13-3.18-.39-6.98-.96-10.08l.47-.29c.05-.35-.44-.56-.47-.67-4.65-16.7-5.37-28.15-15.16-43.64-1.97-3.12-7.53-8.99-8.36-11.56-2.35-.95-3.56-2.99-6.61-1.56-3.27,1.53-6.23,16.38-6.76,20.11-.35,2.49.11,5.17-.55,7.37-.15.5-.82,1.05-.48,1.92Z"/>
  <path class="st5" d="M411.84,475.68c.06,2.07.38,3.89.48,5.76-3.84.8-4.17-5.93-.48-5.76Z"/>
  <path class="st5" d="M407.52,553.44c.12-1.9-.06-3.85,0-5.76,3.44-.32,3.44,6.08,0,5.76Z"/>
  <path class="st5" d="M412.32,449.76c-.26,1.96-.41,3.26-.48,5.28-3.68.81-3.28-6.21.48-5.28Z"/>
  <path class="st5" d="M367.2,579.36c-.05,1.56-.41,3.45-.48,5.28-3.68.11-3.29-6,.48-5.28Z"/>
  <path class="st5" d="M407.52,528.96c3.36-.46,3.44,6.22,0,5.28-.05-1.75.09-3.53,0-5.28Z"/>
  <path class="st3" d="M412.32,448.32h-.48c-.34-.87.33-1.42.48-1.92,1.22.51.05,1.61,0,1.92Z"/>
  <path class="st9" d="M477.12,477.6c.32.04,2.25,1.22,2.4,1.44.26.38.45,1.84.48,2.4.02.41-.23,1.77-.43,2.17-11.01,14.52-20.38,30.83-31.25,45.35-.03.04-.65-.12-.98.33-.74.99-1.3,2.41-1.9,3.51-9.61,10.34-34.22,35.54-38.49,47.67-.52,1.48-.79,5.2-.97,5.52s-1.61.48-2.09,1.99c-.8,2.52.31,2.96,1.23,4.82-.37,0-.76-.07-1.11.08l-123.67,178.74c-3.75,3.35-8.53-1.66-5.02-5.5l95.72-138.76c1.09.58,3.67.66,4.57-.47l16.12-22.27c7.04-4.96,8.4-16.08,11.47-23.81,1.35.25.78-.48.96-.96.16-.41.65-.79.48-1.44l24.48-36c1.23.47,3.1.79,4.32.23,4.81-4.57,8.61-9.47,11.27-15.61,1.63-3.77,2.49-9.39,4.1-12.46.14-.28.39-.84.48-.96.32-.44,1.19-1.05,2.1-2.47,6.86-10.71,14.88-20.69,21.42-31.61,1.47-.58,2.44-2.15,4.32-1.92Z"/>
  <path class="st7" d="M448.32,528.96v.48c-.22,1.36-1.86,2.27-2.88,3.36.6-1.1,1.16-2.52,1.9-3.51.33-.44.95-.29.98-.33Z"/>
  <path class="st2" d="M367.2,576.48c0,.09.85.24.48,1.44h-.96c-.04-.57.03-1.04.48-1.44Z"/>
  <path class="st6" d="M404.16,579.84c-.18.48.39,1.21-.96.96.03-.08-.94-.85.96-.96Z"/>
  <path class="st6" d="M406.08,564.48c0,.06.67.46.48.96h-.96s.48-.96.48-.96Z"/>
  <path class="st2" d="M367.68,573.12s-.43.1-.41-.3c.02-.44.4-.61.41-.66l.4.3-.4.66Z"/>
  <path class="st2" d="M406.08,520.8h.96c.19.52-.47.89-.48.96l-.48-.96Z"/>
  <path class="st6" d="M367.68,611.04h-.96c-.19-.51.47-.91.48-.96l.48.96Z"/>
  <path class="st2" d="M413.28,498.72h.96c.04.32-.03.65,0,.96h-.96c.02-.31-.05-.66,0-.96Z"/>
  <path class="st6" d="M450.24,505.92l-.48-.24.48-.72s.39.23.36.59c-.02.18-.35.28-.36.37Z"/>
  <path class="st6" d="M449.76,508.8c0,.06.67.46.48.96h-.96s.48-.96.48-.96Z"/>
  <path class="st2" d="M449.76,476.64c-.02-.11-.5-.31-.41-.66l.41-.3c.03.12.52.32.47.67l-.47.29Z"/>
  <path class="st12" d="M449.28,513.6c-.09.12-.34.68-.48.96.05-.46-.07-.99,0-1.44l.48.48Z"/>
  <path class="st15" d="M479.52,479.04c-.15-.22-2.08-1.4-2.4-1.44.33-1.92,1.27-3.57,2.2-5.24,9.4-16.96,26.49-38.12,39.79-52.37,4.56-4.88,20.78-21.28,26.51-22.44,6.88-1.4,10.92,3.62,10.7,10.19-.57,16.79-23.23,40.11-35.78,50.17-11.65,9.34-26.24,18.31-41.03,21.13Z"/>
  <path class="st15" d="M479.99,467.52c-.79.13-.45-.65-.47-1.19-.9-17.65.27-32.25,6.23-48.98,4.08-11.45,13.86-30.11,24.33-36.63,18.62-11.6,19.18,17.94,15.87,28.83-16.94,17.92-33.16,36.79-45.96,57.96Z"/>
  <path class="st15" d="M474.7,476.62c-1.21.84-3.75-2.95-4.49-3.87-14.1-17.66-30.64-62.26-28.6-84.66.08-.93,1.26-6.39,1.72-6.52,5.76-.01,10.35,5.21,13.55,9.47,13.08,17.39,22.15,51.8,20.72,73.35-.28,4.18-1.13,8.44-2.9,12.22Z"/>
  <path class="st15" d="M478.08,435.84c-1.16.14-.77.01-1.01-.67-1.27-3.54-1.91-8.46-3.07-12.29-1.93-6.39-4.2-12.85-7.03-18.89-1.16-2.47-5.45-9.19-5.71-11.09-.98-7.12,4.01-29.88,12.72-31,10.24-1.32,13.74,16.79,14.2,24.24.64,10.29-1.73,16.26-4.12,25.68-2.03,8-4.08,15.99-5.98,24.02Z"/>
  <path class="st8" d="M529.44,404.64h-.48c4.39-27.53-11.16-39.93-30.23-16.07-3.34,4.18-5.7,8.66-8.42,13.2-.36.61.1,1.22-1.19.95.95-6.58,1.12-13.16.97-19.82,2.32-2.65,3.23-6.46,5.36-9.6,19.21-28.33,51.58-6.19,37.76,25.28-.75,1.7-3.56,5.46-3.77,6.07Z"/>
  <path class="st13" d="M529.44,404.64c-.25.72.49,2.54-.96,2.88-.45-1.15.37-2.25.48-2.88h.48Z"/>
  <path class="st0" d="M534.72,401.28h.48c-.27.24-.24,2.34-1.92,1.2.56-.65.36-1.48,1.44-1.2Z"/>
  <path class="st11" d="M458.88,388.8c-.08.23.05.66,0,.96-.3.27-.76-.74-.96-.96h.96Z"/>
</svg>