<?xml version="1.0" encoding="UTF-8"?>
<svg id="Layer_15_xA0_Image" xmlns="http://www.w3.org/2000/svg" version="1.1" viewBox="0 0 612 792">
  <!-- Generator: Adobe Illustrator 29.2.1, SVG Export Plug-In . SVG Version: 2.1.0 Build 116)  -->
  <defs>
    <style>
      .st0 {
        fill: #891939;
      }

      .st1 {
        fill: #424931;
      }

      .st2 {
        fill: #5c192a;
      }
    </style>
  </defs>
  <path class="st0" d="M120.48,455.04c-.37.09-3.96,1.52-4.29,1.71-2.91,1.7-2.07,8.8.93,9.33-.38,2.21.52,4.36.5,6.46-.03,3.2-1.58,8.9-1.42,11.58.04.75,1.16,1.59,1.55,2.69,4.7,13.47,1.07,38.54-5.02,51.44-9.87,20.92-30.4,29.79-43.23,5.69-5.82-.35-10.88-1.11-16.07-3.86-8.97-4.75-16.08-14.73-16.49-25.04-8.98-.46-15.86-7.11-17.54-15.82s1.24-16.28,5.07-24.02c-5.35-1.81-9.9-7.16-11.89-12.36-6.18-16.19,4.28-36.41,16.2-47.41,13.42-12.39,36.85-21.73,51.13-5.52,1.28-.97.52-2.68.73-4.06,2.18-14.53,12.42-21.73,24.73-10.82,13.89,12.32,22.45,42.57,15.11,60.01ZM92.5,396.58c-3.93.9-5.46,9.67-5.64,13.08-.3,5.58,1.53,18.87,4.1,23.78,1.24,2.38,2.13,1.03,4.21,1.55,9.5,2.35,14.72,9.29,18.83,17.64,1.23.02,2.54-7.63,2.63-8.88.8-10.29-2.38-23.11-7.11-32.24-2.7-5.22-10.11-16.51-17.03-14.93ZM83.99,432.01c-7.14,1.54-5.27-3.42-5.75-7.92-.91-8.56-5.27-14.85-14.29-15.95-16.92-2.07-34.13,12.07-41.64,26.26-16.22,30.64,7.96,47.42,34.96,28.24,6.87-4.88,8.15-7.14,12.61-13.79,3.49-5.21,8.83-10.95,15.08-12.53l-.97-4.3ZM90.82,509.18c2.23,1.33,9.03-5.13,10.45-6.87,9.74-11.89,12.22-33.21,6.48-47.26-7.89-19.32-25.08-16.98-34.08-.02-6.77,12.76-8,33.84-.24,46.34,2.45,3.94,6.35,7.91,11.2,8.42.62-.13.65-2.57,3.43-2.47,2.38.08,2.17,1.51,2.75,1.86ZM62.4,467.04c-8.78,6.08-19.43,11.53-30.42,10.19-10.73,11.07-8.98,35.54,11.43,30.58,6.45-1.57,12.9-8.15,15.88-13.88,3.78-7.27,1.7-11.75,2.13-19.47.07-1.25,1.3-6.99.97-7.42ZM92.69,515.57c.38,11.74-5.41,22.07-16.36,26.63,7.1,14.94,19.93,10.78,27.55-1.28,7.22-11.43,9.3-25.77,9.42-39.1l-.97-5.98c-3.43,8.58-10.32,17.46-19.64,19.72ZM85.92,516.48c-8.46-.22-14.71-6.23-18.8-13.12-.69-1.15-1.94-5.14-3.03-5.13-3.08,5.59-8.24,10.94-14.01,13.84-2.04,1.02-6.23,1.55-6.44,3.68-.8,8.28,10.19,18.81,17.77,20.68,9.31,2.29,22.33-2.23,23.84-12.75.24-1.67-.69-2.03-.66-3.04.04-1.27,1.56-2.7,1.33-4.16Z"/>
  <path class="st1" d="M117.12,466.08c-3-.53-3.83-7.63-.93-9.33.33-.19,3.91-1.62,4.29-1.71,8.62-2.15,23.23-.62,32.25,1.11,23.89,4.58,46.87,17.29,64.72,33.68,17.63,16.19,34.55,39,45.04,60.56,3.05,6.27,3.72,12.43,6.22,18.26s6.56,10.89,9.14,16.3,4.14,11.44,7.02,16.98c3.37,6.49,8.09,12.25,10.47,19.29,4.85,14.41,9.99,30.44,12.69,45.39,1.73,9.57,2.4,19.59,3.11,29.15.27,3.67,1.76,8.2,1.84,11.55.22,9.68.17,19.68-.02,29.26-.11,5.55-1.83,10.28-1.95,14.87-.08,3.02,1.66,5.93-.92,8.65-1.37,1.44-2.68,1.52-4.31.45-2.61-1.73-.95-3.01-1.03-4.83-.3-6.75,1.19-9.47,1.5-15.29.13-2.34-.55-4.21-.54-6.26.01-2.75,1.04-6.43,1.05-9.12s-.92-5.96-1.02-8.62c-.11-3.1.7-6.4.5-9.13-.58-8.02-2.16-17.05-3.29-25.04-2.99-21.02-6.99-41.16-14.86-60.98-2.54-6.4-7.56-12.51-10.58-18.7-2.29-4.69-3.57-10.36-5.73-14.91-2.77-5.83-7.31-11.26-9.78-17.58-1.16-2.96-1.28-5.61-2.17-8.39-4.95-15.55-16.63-28.25-24.89-41.83-.92-1.51-2.61-3.46-3.8-4.84-14.15-16.26-35.22-35.48-54.96-44.4-10.65-4.81-24.32-5.52-35.79-5.97-2-.08-4.31-1.02-6.22-1.02-5.18,0-11.66,2.58-17.04,2.44Z"/>
  <path class="st2" d="M83.99,432.01l.97,4.3c-6.25,1.57-11.58,7.32-15.08,12.53-4.46,6.65-5.74,8.91-12.61,13.79-27,19.17-51.18,2.4-34.96-28.24,7.51-14.19,24.72-28.32,41.64-26.26,9.02,1.1,13.37,7.39,14.29,15.95.48,4.51-1.39,9.47,5.75,7.92Z"/>
  <path class="st2" d="M90.82,509.18c-.58-.35-.37-1.77-2.75-1.86-2.78-.1-2.81,2.34-3.43,2.47-4.85-.51-8.76-4.48-11.2-8.42-7.76-12.51-6.53-33.58.24-46.34,9-16.96,26.19-19.3,34.08.02,5.74,14.05,3.26,35.37-6.48,47.26-1.42,1.74-8.22,8.2-10.45,6.87Z"/>
  <path class="st2" d="M62.4,467.04c.32.43-.9,6.17-.97,7.42-.43,7.72,1.65,12.2-2.13,19.47-2.98,5.73-9.43,12.32-15.88,13.88-20.42,4.96-22.16-19.5-11.43-30.58,10.99,1.33,21.64-4.11,30.42-10.19Z"/>
  <path class="st2" d="M92.5,396.58c6.92-1.58,14.33,9.71,17.03,14.93,4.72,9.14,7.9,21.95,7.11,32.24-.1,1.25-1.4,8.9-2.63,8.88-4.12-8.35-9.33-15.28-18.83-17.64-2.08-.52-2.97.83-4.21-1.55-2.57-4.92-4.39-18.2-4.1-23.78.18-3.41,1.71-12.18,5.64-13.08Z"/>
  <path class="st2" d="M85.92,516.48c.24,1.46-1.29,2.89-1.33,4.16-.03,1.01.9,1.37.66,3.04-1.51,10.51-14.53,15.04-23.84,12.75-7.58-1.87-18.58-12.4-17.77-20.68.21-2.13,4.39-2.65,6.44-3.68,5.77-2.89,10.93-8.25,14.01-13.84,1.09-.01,2.35,3.97,3.03,5.13,4.09,6.89,10.34,12.9,18.8,13.12Z"/>
  <path class="st2" d="M92.69,515.57c9.32-2.26,16.21-11.14,19.64-19.72l.97,5.98c-.11,13.34-2.2,27.67-9.42,39.1-7.62,12.06-20.45,16.22-27.55,1.28,10.94-4.57,16.74-14.9,16.36-26.63Z"/>
</svg>